SplineFontDB: 3.2
FontName: NotoSansTagalog-Regular
FullName: Noto Sans Tagalog Regular
FamilyName: Noto Sans Tagalog
Weight: Book
Copyright: Copyright 2017 Google Inc. All Rights Reserved.
Version: 2.000
ItalicAngle: 0
UnderlinePosition: -125
UnderlineWidth: 50
Ascent: 800
Descent: 200
InvalidEm: 0
sfntRevision: 0x00020000
LayerCount: 3
Layer: 0 1 "Back" 1
Layer: 1 1 "Fore" 0
Layer: 2 1 "ORIGINAL" 1
XUID: [1021 597 -233719944 16015]
StyleMap: 0x0040
FSType: 0
OS2Version: 4
OS2_WeightWidthSlopeOnly: 1
OS2_UseTypoMetrics: 0
CreationTime: 1493842294
ModificationTime: 1586546927
PfmFamily: 17
TTFWeight: 400
TTFWidth: 5
LineGap: 0
VLineGap: 0
Panose: 2 11 5 2 4 5 4 2 2 4
OS2TypoAscent: 1069
OS2TypoAOffset: 0
OS2TypoDescent: -293
OS2TypoDOffset: 0
OS2TypoLinegap: 0
OS2WinAscent: 1069
OS2WinAOffset: 0
OS2WinDescent: 293
OS2WinDOffset: 0
HheadAscent: 1069
HheadAOffset: 0
HheadDescent: -293
HheadDOffset: 0
OS2SubXSize: 650
OS2SubYSize: 600
OS2SubXOff: 0
OS2SubYOff: 75
OS2SupXSize: 650
OS2SupYSize: 600
OS2SupXOff: 0
OS2SupYOff: 350
OS2StrikeYSize: 50
OS2StrikeYPos: 322
OS2CapHeight: 714
OS2XHeight: 536
OS2Vendor: 'GOOG'
OS2CodePages: 00000001.00000000
OS2UnicodeRanges: 80000003.00002000.00100000.00000000
Lookup: 260 0 0 "'mark' Mark Positioning in Tagalog lookup 0" { "'mark' Mark Positioning in Tagalog lookup 0 subtable"  } ['mark' ('tglg' <'dflt' > ) ]
Lookup: 260 0 0 "'mark' Mark Positioning in Tagalog lookup 1" { "'mark' Mark Positioning in Tagalog lookup 1 subtable"  } ['mark' ('tglg' <'dflt' > ) ]
DEI: 91125
ShortTable: maxp 16
  1
  0
  31
  128
  16
  0
  0
  1
  0
  0
  0
  0
  0
  0
  0
  0
EndShort

StartChar: .notdef
Encoding: 34 -1 0
Width: 600
Flags: W
LayerCount: 3
Fore
SplineSet
94 0 m 1,0,-1
 94 714 l 1,1,-1
 505 714 l 1,2,-1
 505 0 l 1,3,-1
 94 0 l 1,0,-1
145 51 m 1,4,-1
 454 51 l 1,5,-1
 454 663 l 1,6,-1
 145 663 l 1,7,-1
 145 51 l 1,4,-1
EndSplineSet
EndChar

StartChar: uni1700
Encoding: 4 5888 5
Width: 1014
GlyphClass: 2
InSpiro: 1
Flags: W
LayerCount: 3
Back
SplineSet
84 408 m 1,0,-1
 258 408 l 1025
  Spiro
    84 408 {
    258 408 v
    0 0 z
  EndSpiro
84 553 m 1,2,-1
 454 553 l 1025
  Spiro
    84 553 {
    454 553 v
    0 0 z
  EndSpiro
97 745 m 0,4,5
 177.744386961 733.029774669 177.744386961 733.029774669 227.407402737 665.068792883 c 0,6,7
 229.950404354 661.588841377 229.950404354 661.588841377 233 657 c 0,8,9
 272.184352026 597.321223531 272.184352026 597.321223531 272.439839937 509.924632254 c 0,0,0
 272.439839937 501.521942893 272.439839937 501.521942893 272 492 c 0,1,2
 269.515292418 440.98824908 269.515292418 440.98824908 239.17643045 317.383338845 c 0,3,4
 236.316059864 305.729775507 236.316059864 305.729775507 233.922098535 295.539012161 c 0,5,6
 220.178525122 236.870379409 220.178525122 236.870379409 218.499714619 196.661394514 c 0,7,8
 218.297374388 191.423397385 218.297374388 191.423397385 218.27748423 185.320449629 c 0,0,0
 218.27748423 135.930098977 218.27748423 135.930098977 236 99 c 0,1,2
 247.462470291 75.5286912466 247.462470291 75.5286912466 266.338499985 58.8495577516 c 0,3,4
 285.697703287 42.1260985292 285.697703287 42.1260985292 311 36 c 0,5,6
 321.709253437 33.5345949386 321.709253437 33.5345949386 334.131848629 33.4246664846 c 0,0,0
 354.378231984 33.4246664846 354.378231984 33.4246664846 375.418504172 40.9531345888 c 0,1,2
 402.675247809 50.9466809717 402.675247809 50.9466809717 431 75 c 0,3,4
 473.269321455 111.213920027 473.269321455 111.213920027 524 192 c 2,5,-1
 635 369 l 2,6,7
 644.11249619 383.530737169 644.11249619 383.530737169 661.778190223 412.97538982 c 0,8,9
 702.190708884 480.333772265 702.190708884 480.333772265 726.45849658 512.666413246 c 0,10,11
 755.100438423 550.662455102 755.100438423 550.662455102 786.588947336 572.458485423 c 0,12,13
 824.337088187 598.177775426 824.337088187 598.177775426 866 600 c 0,14,15
 868.196034062 600.077659243 868.196034062 600.077659243 870.394418923 600.077607231 c 0,0,0
 906.922262135 600.077607231 906.922262135 600.077607231 937.463450584 580.328065383 c 0,1,2
 969.50250898 559.188542601 969.50250898 559.188542601 983 522 c 1024
  Spiro
    97 745 {
    233 657 o
    272 492 o
    236 99 o
    311 36 o
    431 75 o
    524 192 [
    635 369 ]
    866 600 o
    983 522 o
    0 0 z
  EndSpiro
EndSplineSet
Fore
SplineSet
84 373.006863131 m 1,0,-1
 84 442.993136869 l 1,1,-1
 258 442.993136869 l 1,2,-1
 258 373.006863131 l 1,3,-1
 84 373.006863131 l 1,0,-1
84 518.006863131 m 1,4,-1
 84 587.993136869 l 1,5,-1
 454 587.993136869 l 1,6,-1
 454 518.006863131 l 1,7,-1
 84 518.006863131 l 1,4,-1
91.8339805238 710.387528395 m 1,8,-1
 102.097962596 779.622560928 l 1,9,10
 177.564171698 767.740522928 177.564171698 767.740522928 229.910439119 715.908497967 c 0,11,12
 243.993321509 701.539353689 243.993321509 701.539353689 255.689684192 685.694237922 c 0,13,14
 259.090171245 680.947975625 259.090171245 680.947975625 262.275554473 676.192251585 c 0,15,16
 306.884371636 607.115026331 306.884371636 607.115026331 307.432976806 509.924632254 c 0,17,18
 307.3859776 500.135848646 307.3859776 500.135848646 306.951388604 490.284684323 c 0,19,20
 303.976257547 434.766735649 303.976257547 434.766735649 273.156732863 308.99804238 c 0,21,22
 270.248977432 297.112412076 270.248977432 297.112412076 267.98887114 287.514238932 c 0,23,24
 255.109563335 231.908398074 255.109563335 231.908398074 253.466574572 195.300376032 c 0,25,26
 253.30080949 190.044156779 253.30080949 190.044156779 253.270621099 185.320449629 c 0,27,28
 253.656055224 143.662346961 253.656055224 143.662346961 267.451110341 114.371839927 c 0,29,30
 275.153121951 99.4652603277 275.153121951 99.4652603277 285.426240229 88.9195453892 c 0,31,32
 287.863563453 86.5837000682 287.863563453 86.5837000682 289.34324394 85.2298739038 c 0,33,34
 302.93781589 74.2492637307 302.93781589 74.2492637307 319.079320732 70.0548167057 c 0,35,36
 326.590074072 68.5945866498 326.590074072 68.5945866498 334.285419859 68.4179589467 c 0,37,38
 348.891674223 68.826055718 348.891674223 68.826055718 363.462249863 73.8523102873 c 0,39,40
 385.436465875 82.4671230668 385.436465875 82.4671230668 408.25211132 101.601492487 c 0,41,42
 414.846097397 107.393507969 414.846097397 107.393507969 420.665434286 113.147481907 c 0,43,44
 454.687735898 147.664290533 454.687735898 147.664290533 494.332654601 210.581753855 c 2,45,-1
 605.3326546 387.581753854 l 2,46,47
 614.856043063 402.825460265 614.856043063 402.825460265 631.752524826 430.973046694 c 0,48,49
 673.207131015 499.898155108 673.207131015 499.898155108 698.485474736 533.708524034 c 0,50,51
 714.506184305 554.671347537 714.506184305 554.671347537 730.529433302 570.828782909 c 0,52,53
 748.60900648 588.593431078 748.60900648 588.593431078 766.902266429 601.403318812 c 0,54,55
 813.41344128 632.416262365 813.41344128 632.416262365 864.459364649 634.959462786 c 2,56,-1
 864.606598072 634.965902383 l 2,57,58
 867.573210733 635.07081191 867.573210733 635.07081191 870.394418923 635.0707441 c 0,59,60
 917.606503665 634.493584906 917.606503665 634.493584906 956.452562685 609.735987409 c 2,61,-1
 956.587126661 609.64897125 l 2,62,63
 970.139424475 600.403264494 970.139424475 600.403264494 980.562310193 590.161137234 c 0,64,65
 1004.00816828 565.995971653 1004.00816828 565.995971653 1015.89162758 533.97603151 c 0,66,-1
 950.108372423 510.02396849 l 1,67,68
 942.913380714 528.471496542 942.913380714 528.471496542 931.06483551 540.663662551 c 0,69,70
 924.723196509 546.639062038 924.723196509 546.639062038 918.338054642 551.008125889 c 0,71,72
 895.809060485 564.817295202 895.809060485 564.817295202 870.394418923 565.084470362 c 0,73,74
 868.891854199 565.08450614 868.891854199 565.08450614 867.391075771 565.033897055 c 0,75,76
 835.274466075 562.952456516 835.274466075 562.952456516 806.275628243 543.513652034 c 0,77,78
 792.553924679 533.711005812 792.553924679 533.711005812 780.026907985 521.331308225 c 0,79,80
 766.607733006 507.636437636 766.607733006 507.636437636 754.431518424 491.624302458 c 0,81,82
 730.721448168 459.760058951 730.721448168 459.760058951 691.80385562 394.977732946 c 0,83,84
 673.93029905 365.216906084 673.93029905 365.216906084 664.6673454 350.418246146 c 2,85,-1
 553.667345399 173.418246145 l 2,86,87
 508.999110808 102.722681598 508.999110808 102.722681598 470.162908969 63.6500072238 c 0,88,89
 461.376973931 55.0031652366 461.376973931 55.0031652366 453.74788868 48.3985075127 c 0,90,91
 420.047868146 20.2789115886 420.047868146 20.2789115886 387.501334317 8.10046662991 c 2,92,-1
 387.373628175 8.0536438228 l 2,93,94
 359.992625632 -1.38556353548 359.992625632 -1.38556353548 334.131848629 -1.56847038432 c 0,95,-1
 333.819830763 -1.56708987934 l 2,96,97
 317.128001505 -1.2086971603 317.128001505 -1.2086971603 303.106232488 1.90280339507 c 0,98,-1
 302.721786661 1.99359258212 l 2,99,100
 268.941575383 10.7053010312 268.941575383 10.7053010312 243.481606546 32.341841035 c 0,101,-1
 243.184158079 32.6017179008 l 2,102,103
 238.987103909 36.4155148215 238.987103909 36.4155148215 235.928765546 39.4220707061 c 0,104,105
 216.674631968 59.2421114079 216.674631968 59.2421114079 204.548889659 83.6281600727 c 0,106,107
 183.489426075 128.60164681 183.489426075 128.60164681 183.284347361 185.320449629 c 0,108,109
 183.339749045 192.552381435 183.339749045 192.552381435 183.532854666 198.022412996 c 0,110,111
 185.607494388 242.422484653 185.607494388 242.422484653 199.85532593 303.56378539 c 0,112,113
 202.444376919 314.538414774 202.444376919 314.538414774 205.196128037 325.76863531 c 0,114,115
 234.567916235 445.847342961 234.567916235 445.847342961 237.048611396 493.715315677 c 0,116,117
 237.424260668 502.743304264 237.424260668 502.743304264 237.446703068 509.924632254 c 0,118,119
 236.7147583 586.99659831 236.7147583 586.99659831 203.724445527 637.807748415 c 0,120,121
 200.959005673 641.893481564 200.959005673 641.893481564 199.125121282 644.443347844 c 0,122,123
 189.800315609 656.883783129 189.800315609 656.883783129 180.412964436 666.411023284 c 0,124,125
 143.390149485 702.412303585 143.390149485 702.412303585 91.8339805238 710.387528395 c 1,8,-1
EndSplineSet
Layer: 2
SplineSet
318 0 m 4,0,1
 266 0 266 0 228 43 c 128,-1,2
 190 86 190 86 190 168 c 0,3,4
 190 223 190 223 201 276 c 128,-1,5
 212 329 212 329 222 375 c 1,6,-1
 84 375 l 1,7,-1
 84 443 l 1,8,-1
 233 443 l 1,9,10
 235 462 235 462 236 481 c 128,-1,11
 237 500 237 500 237 518 c 1,12,-1
 84 518 l 1,13,-1
 84 586 l 1,14,-1
 230 586 l 1,15,16
 218 631 218 631 187.5 663 c 128,-1,17
 157 695 157 695 90 712 c 1,18,-1
 106 779 l 1,19,20
 157 762 157 762 197 740 c 128,-1,21
 237 718 237 718 265 682 c 128,-1,22
 293 646 293 646 306 586 c 1,23,-1
 453 586 l 1,24,-1
 453 518 l 1,25,-1
 313 518 l 1,26,-1
 313 504 l 2,27,28
 313 462 313 462 306 416.5 c 128,-1,29
 299 371 299 371 290 327 c 128,-1,30
 281 283 281 283 274 244 c 128,-1,31
 267 205 267 205 267 176 c 0,32,33
 267 68 267 68 324 68 c 0,34,35
 358 68 358 68 392 93.5 c 128,-1,36
 426 119 426 119 459.5 162 c 128,-1,37
 493 205 493 205 526.5 258.5 c 128,-1,38
 560 312 560 312 594 368 c 2,39,-1
 640 444 l 2,40,41
 684 516 684 516 718 557.5 c 128,-1,42
 752 599 752 599 786.5 616.5 c 128,-1,43
 821 634 821 634 864 634 c 0,44,45
 916 634 916 634 953.5 607 c 128,-1,46
 991 580 991 580 1010 533 c 1,47,-1
 947 506 l 1,48,49
 934 540 934 540 912 553 c 128,-1,50
 890 566 890 566 862 566 c 0,51,52
 828 566 828 566 798.5 542 c 128,-1,53
 769 518 769 518 734 461 c 2,54,-1
 663 343 l 2,55,56
 630 289 630 289 594 229.5 c 128,-1,57
 558 170 558 170 516 117.5 c 128,-1,58
 474 65 474 65 425 32.5 c 128,-1,59
 376 -5.00008923154e-11 376 -5.00008923154e-11 318 0 c 4,0,1
  Spiro
    318 0 o
    269.5 10.75 o
    228 43 o
    199.5 95.75 o
    190 168 o
    192.75 222.5 o
    201 276 o
    211.75 327.25 o
    222 375 v
    84 375 v
    84 443 v
    233 443 v
    234.75 462 o
    236 481 o
    236.75 499.75 o
    237 518 v
    84 518 v
    84 586 v
    230 586 v
    213.375 627.75 o
    187.5 663 o
    147.875 691.25 o
    90 712 v
    106 779 v
    154.25 760.75 o
    197 740 o
    234 714.5 o
    265 682 o
    289.25 640 o
    306 586 v
    453 586 v
    453 518 v
    313 518 v
    313 504 ]
    311.25 461.125 o
    306 416.5 o
    298.5 371.375 o
    290 327 o
    281.5 284.25 o
    274 244 o
    268.75 207.5 o
    267 176 o
    281.25 95 o
    324 68 o
    358 74.375 o
    392 93.5 o
    425.875 123.375 o
    459.5 162 o
    493 207.625 o
    526.5 258.5 o
    560.125 312.625 o
    594 368 [
    640 444 ]
    681.5 508.375 o
    718 557.5 o
    752.125 593 o
    786.5 616.5 o
    823.125 629.625 o
    864 634 o
    912.375 627.25 o
    953.5 607 o
    986.375 575 o
    1010 533 v
    947 506 v
    931.75 534.75 o
    912 553 o
    888.5 562.75 o
    862 566 o
    829.125 560 o
    798.5 542 o
    767.625 509.75 o
    734 461 [
    663 343 ]
    629.25 287.625 o
    594 229.5 o
    556.5 171.75 o
    516 117.5 o
    472.25 70 o
    425 32.5 o
    373.75 8.125 o
    0 0 z
  EndSpiro
EndSplineSet
EndChar

StartChar: uni1701
Encoding: 5 5889 6
Width: 1011
GlyphClass: 2
InSpiro: 1
Flags: W
LayerCount: 3
Back
SplineSet
47 137 m 0,0,1
 105.616105534 107.958892483 105.616105534 107.958892483 170.086892848 110.865419838 c 0,2,3
 235.404277087 114.614173984 235.404277087 114.614173984 290 149 c 0,4,5
 343.817593303 184.019098234 343.817593303 184.019098234 374.202008296 239.233195496 c 0,6,7
 404.336564201 295.800146927 404.336564201 295.800146927 404 359 c 1,8,9
 407.593288913 291.391391183 407.593288913 291.391391183 440 233 c 0,10,11
 457.975282309 201.519073101 457.975282309 201.519073101 482 176 c 1,12,13
 524.554979248 204.60695078 524.554979248 204.60695078 554 245 c 0,14,15
 590.969643077 297.077797173 590.969643077 297.077797173 602 359 c 1,16,17
 601.099176882 282.227963182 601.099176882 282.227963182 638 218 c 0,18,19
 667.671376671 168.103817587 667.671376671 168.103817587 711.900000314 139.503212067 c 0,20,21
 761.089111007 108.87040932 761.089111007 108.87040932 815 110 c 0,22,23
 870.990845945 112.180892032 870.990845945 112.180892032 914 146 c 1024
  Spiro
    47 137 {
    290 149 o
    404 359 v
    440 233 o
    482 176 v
    554 245 o
    602 359 v
    638 218 o
    815 110 o
    914 146 v
    0 0 z
  EndSpiro
53 542 m 0,25,26
 137.074214389 466.286024653 137.074214389 466.286024653 254 458 c 0,27,28
 341.640444365 452.075562971 341.640444365 452.075562971 489.841136092 499.134678074 c 0,29,30
 494.933761002 500.754280752 494.933761002 500.754280752 499.594133359 502.24531948 c 0,31,32
 643.908587518 548.448250966 643.908587518 548.448250966 723.574417693 548.580195691 c 0,33,34
 734.915195886 548.542074443 734.915195886 548.542074443 745 548 c 0,35,36
 870.112889191 540.19761608 870.112889191 540.19761608 956 458 c 1024
  Spiro
    53 542 {
    254 458 o
    745 548 o
    956 458 o
    0 0 z
  EndSpiro
EndSplineSet
Fore
SplineSet
31.45044053 105.636309614 m 1,0,-1
 62.54955947 168.363690386 l 1,1,2
 113.579684052 143.645635756 113.579684052 143.645635756 168.283106146 145.813150989 c 0,3,4
 224.711496575 149.621738556 224.711496575 149.621738556 271.143650877 178.494642139 c 0,5,6
 291.479296174 192.062260478 291.479296174 192.062260478 307.278536794 207.676121946 c 0,7,8
 328.729051743 229.625893448 328.729051743 229.625893448 343.417130913 255.901605966 c 0,9,10
 369.048125445 305.191026419 369.048125445 305.191026419 369.007363124 358.812221719 c 1,11,-1
 438.943449225 360.871209265 l 1,12,13
 442.587279878 301.042661456 442.587279878 301.042661456 470.508727488 250.168107508 c 0,14,15
 478.745481597 236.03119139 478.745481597 236.03119139 487.443102606 224.077012452 c 1,16,17
 494.829089992 230.577809628 494.829089992 230.577809628 500.819197868 236.50228256 c 0,18,19
 514.597994741 250.564985052 514.597994741 250.564985052 525.564713139 265.415750694 c 0,20,21
 557.790157828 311.698109963 557.790157828 311.698109963 567.552236127 365.175553955 c 1,22,-1
 636.990709732 358.586282329 l 1,23,24
 636.730969638 291.148790853 636.730969638 291.148790853 668.228466828 235.657401826 c 0,25,26
 683.192588023 211.118027313 683.192588023 211.118027313 700.856710138 193.231823123 c 0,27,28
 715.232524569 179.227296651 715.232524569 179.227296651 730.641676027 169.071425733 c 0,29,30
 771.347246354 144.461491151 771.347246354 144.461491151 813.945673184 144.979109584 c 0,31,32
 858.726086347 147.458747694 858.726086347 147.458747694 892.392505062 173.537706268 c 1,33,-1
 935.664406677 118.507044769 l 1,34,-1
 935.607494938 118.462293732 l 2,35,36
 883.050137731 77.9635760463 883.050137731 77.9635760463 816.372329109 75.0335787872 c 0,37,-1
 815.738653656 75.0146006811 l 1,38,39
 751.003364109 74.253009135 751.003364109 74.253009135 693.410682683 109.778100026 c 0,40,-1
 692.910866432 110.095304126 l 2,41,42
 670.135450749 125.144342234 670.135450749 125.144342234 651.359235455 143.73434844 c 0,43,44
 626.637140948 168.905983614 626.637140948 168.905983614 607.904774528 200.118798803 c 0,45,-1
 607.641886208 200.568525064 l 2,46,47
 597.588611081 218.350188311 597.588611081 218.350188311 590.209217193 236.016345204 c 1,48,49
 586.514921412 230.33132945 586.514921412 230.33132945 582.562206819 224.763191531 c 2,50,-1
 582.435425127 224.584598754 l 1,51,-1
 582.30636804 224.407556621 l 2,52,53
 567.207240582 204.036580511 567.207240582 204.036580511 550.316672551 187.004807876 c 0,54,55
 527.534698931 164.575646497 527.534698931 164.575646497 501.50673799 146.933385236 c 2,56,-1
 476.879745503 130.37825645 l 1,57,-1
 456.504263249 152.021108939 l 2,58,59
 429.416806982 181.221686867 429.416806982 181.221686867 409.595908342 215.64879958 c 2,60,-1
 409.491366908 215.831887733 l 2,61,62
 407.355297136 219.680721766 407.355297136 219.680721766 405.421793171 223.383086204 c 1,63,-1
 404.986979153 222.565204636 l 1,64,-1
 404.873255923 222.358548509 l 2,65,66
 384.616757857 186.268052818 384.616757857 186.268052818 356.776011477 158.178647263 c 0,67,68
 334.68392284 136.464753148 334.68392284 136.464753148 309.07218955 119.645968191 c 0,69,-1
 308.638854247 119.368540581 l 1,70,71
 245.82661846 80.4244945886 245.82661846 80.4244945886 172.107024511 75.9302016098 c 0,72,-1
 171.674820745 75.9080573173 l 2,73,74
 97.7341317537 73.0824810995 97.7341317537 73.0824810995 31.45044053 105.636309614 c 1,0,-1
29.5970747692 515.973909993 m 0,75,-1
 76.4029252308 568.026090007 l 1,76,77
 152.332581761 500.623128041 152.332581761 500.623128041 256.377734229 492.912870085 c 0,78,79
 338.258582525 487.877567587 338.258582525 487.877567587 479.166206301 532.469708505 c 2,80,-1
 488.882626334 535.568661722 l 2,81,82
 638.517090223 583.2328429 638.517090223 583.2328429 723.692945924 583.573133348 c 0,83,84
 736.348157474 583.483532629 736.348157474 583.483532629 746.892380506 582.942317622 c 0,85,-1
 747.194352595 582.924786328 l 1,86,87
 885.2812892 573.585965555 885.2812892 573.585965555 980.209380053 483.276803015 c 1,88,-1
 931.809832606 432.704809654 l 1,89,90
 854.394867157 505.718359191 854.394867157 505.718359191 742.95725606 513.065729069 c 0,91,92
 733.228351681 513.531947128 733.228351681 513.531947128 723.455889462 513.587258034 c 0,93,94
 648.485048279 513.040728325 648.485048279 513.040728325 510.305640384 468.921977238 c 2,95,-1
 500.516065883 465.799647643 l 2,96,97
 345.927519454 416.712156112 345.927519454 416.712156112 251.622265771 423.087129915 c 0,98,99
 122.346732029 432.939219296 122.346732029 432.939219296 29.5970747692 515.973909993 c 0,75,-1
EndSplineSet
Layer: 2
SplineSet
283 425 m 0,0,1
 210 425 210 425 151.5 448.5 c 128,-1,2
 93 472 93 472 32 517 c 1,3,-1
 70 573 l 1,4,5
 110 545 110 545 143 527 c 128,-1,6
 176 509 176 509 209.5 501 c 128,-1,7
 243 493 243 493 285 493 c 0,8,9
 347 493 347 493 406.5 508 c 128,-1,10
 466 523 466 523 510 537 c 0,11,12
 555 551 555 551 610 565 c 128,-1,13
 665 579 665 579 725 579 c 0,14,15
 799 579 799 579 858 555.5 c 128,-1,16
 917 532 917 532 978 487 c 1,17,-1
 936 433 l 1,18,19
 902 459 902 459 869 476 c 128,-1,20
 836 493 836 493 799 502 c 128,-1,21
 762 511 762 511 712 511 c 0,22,23
 666 511 666 511 618 497.5 c 128,-1,24
 570 484 570 484 531 472 c 0,25,26
 482 456 482 456 415.5 440.5 c 128,-1,27
 349 425 349 425 283 425 c 0,0,1
  Spiro
    283 425 o
    213.625 430.875 o
    151.5 448.5 o
    92.375 477.375 o
    32 517 v
    70 573 v
    108.25 547.5 o
    143 527 o
    176.125 511.5 o
    209.5 501 o
    245.125 495 o
    285 493 o
    346.375 496.75 o
    406.5 508 o
    462.125 522.75 o
    510 537 o
    557.5 551 o
    610 565 o
    666.25 575.5 o
    725 579 o
    795.25 573.125 o
    858 555.5 o
    917.5 526.625 o
    978 487 v
    936 433 v
    902.25 456.75 o
    869 476 o
    835 491 o
    799 502 o
    758.75 508.75 o
    712 511 o
    665.5 507.625 o
    618 497.5 o
    572.25 484.375 o
    531 472 o
    477.625 456.125 o
    415.5 440.5 o
    349.125 428.875 o
    0 0 z
  EndSpiro
180 78 m 0,28,29
 91 78 91 78 35 114 c 1,30,-1
 71 172 l 1,31,32
 111 146 111 146 180 146 c 0,33,34
 248 146 248 146 302 200 c 128,-1,35
 356 254 356 254 382 362 c 1,36,-1
 428 362 l 1,37,38
 439 314 439 314 454.5 280.5 c 128,-1,39
 470 247 470 247 488 224 c 1,40,41
 505 236 505 236 523.5 261 c 128,-1,42
 542 286 542 286 557.5 314 c 128,-1,43
 573 342 573 342 581 362 c 1,44,-1
 627 362 l 1,45,46
 638 303 638 303 660.5 254 c 128,-1,47
 683 205 683 205 719 175.5 c 128,-1,48
 755 146 755 146 804 146 c 0,49,50
 837 146 837 146 856.5 154 c 128,-1,51
 876 162 876 162 901 175 c 1,52,-1
 933 115 l 1,53,54
 902 99 902 99 874.5 88.5 c 128,-1,55
 847 78 847 78 805 78 c 0,56,57
 748 78 748 78 707.5 101 c 128,-1,58
 667 124 667 124 639 161.5 c 128,-1,59
 611 199 611 199 591 240 c 1,60,61
 572 216 572 216 543.5 183.5 c 128,-1,62
 515 151 515 151 475 126 c 1,63,64
 457 147 457 147 437 176 c 128,-1,65
 417 205 417 205 406 229 c 1,66,67
 385 191 385 191 353 156 c 128,-1,68
 321 121 321 121 278 99.5 c 128,-1,69
 235 78 235 78 180 78 c 0,28,29
  Spiro
    180 78 o
    99.25 87 o
    35 114 v
    71 172 v
    118.25 152.5 o
    180 146 o
    244.5 159.5 o
    302 200 o
    349 267.5 o
    382 362 v
    428 362 v
    440.125 317.625 o
    454.5 280.5 o
    470.625 249.625 o
    488 224 v
    505.375 239.25 o
    523.5 261 o
    541.25 286.75 o
    557.5 314 o
    571.125 340 o
    581 362 v
    627 362 v
    640.875 305.5 o
    660.5 254 o
    686.375 209.875 o
    719 175.5 o
    758.25 153.375 o
    804 146 o
    833.625 148 o
    856.5 154 o
    877.375 163.25 o
    901 175 v
    933 115 v
    902.875 100.375 o
    874.5 88.5 o
    843.375 80.625 o
    805 78 o
    752.125 83.75 o
    707.5 101 o
    670.125 127.625 o
    639 161.5 o
    613 199.875 o
    591 240 v
    569.625 213.875 o
    543.5 183.5 o
    512.125 152.875 o
    475 126 v
    456.5 149 o
    437 176 o
    419.25 203.75 o
    406 229 v
    382.25 191.75 o
    353 156 o
    318.25 124.375 o
    278 99.5 o
    232 83.375 o
    0 0 z
  EndSpiro
EndSplineSet
EndChar

StartChar: uni1702
Encoding: 6 5890 7
Width: 535
GlyphClass: 2
Flags: W
LayerCount: 3
Back
SplineSet
126 562 m 0,0,1
 227.892891806 615.282309696 227.892891806 615.282309696 320 601 c 0,2,3
 372.36649869 591.976675192 372.36649869 591.976675192 403.407236426 561.391952758 c 0,4,5
 420.547071626 543.46657181 420.547071626 543.46657181 428.570732608 522.202925021 c 0,6,7
 436.431828945 499.278427557 436.431828945 499.278427557 434 476 c 0,8,9
 430.785217898 451.871256735 430.785217898 451.871256735 417.984995724 430.419721039 c 0,10,11
 405.160319428 410.171915017 405.160319428 410.171915017 386 394 c 0,12,13
 351.618142565 366.066480238 351.618142565 366.066480238 305.698284809 354.269095046 c 0,14,15
 271.994800299 346.039386824 271.994800299 346.039386824 216 346 c 2,16,-1
 198 346 l 1,17,-1
 246 346 l 2,18,19
 295.820178091 345.833560519 295.820178091 345.833560519 321.307978278 341.600181773 c 0,20,21
 362.027433603 334.223142659 362.027433603 334.223142659 391.483508933 315.158017875 c 0,22,23
 424.447718727 292.665934774 424.447718727 292.665934774 441.123354763 259.428004877 c 0,24,25
 457.724019359 224.228795025 457.724019359 224.228795025 454 186 c 0,26,27
 449.752916527 150.387892901 449.752916527 150.387892901 429.689870187 119.934137409 c 0,28,29
 409.601281292 90.8888560503 409.601281292 90.8888560503 379.050160304 70.7321990025 c 0,30,31
 323.687668328 35.4181802926 323.687668328 35.4181802926 244 32 c 0,32,33
 152.899308258 28.753779973 152.899308258 28.753779973 60 64 c 1024
  Spiro
    126 562 {
    320 601 o
    434 476 o
    386 394 o
    216 346 [
    198 346 v
    246 346 ]
    454 186 o
    244 32 o
    60 64 o
    0 0 z
  EndSpiro
EndSplineSet
Fore
SplineSet
142.219192119 530.977150982 m 1,0,-1
 109.775433755 593.020038754 l 1,1,2
 222.299917003 651.201131809 222.299917003 651.201131809 325.39754015 635.577360726 c 2,3,-1
 325.689267626 635.532124889 l 1,4,-1
 325.980130935 635.482005935 l 2,5,6
 389.258525736 623.943276642 389.258525736 623.943276642 427.968695846 586.326587701 c 0,7,-1
 428.713525817 585.570517671 l 2,8,9
 450.758206757 561.850800072 450.758206757 561.850800072 461.309299215 534.592492748 c 2,10,-1
 461.496724596 534.095793408 l 1,11,-1
 461.66900604 533.593386956 l 2,12,13
 471.763732703 502.846071863 471.763732703 502.846071863 468.802425579 472.338052089 c 0,14,-1
 468.684631189 471.346721366 l 2,15,16
 464.043712951 439.702953114 464.043712951 439.702953114 448.053439732 412.493560572 c 0,17,-1
 447.569240799 411.706113803 l 2,18,19
 435.781072308 393.617897148 435.781072308 393.617897148 421.225879881 378.870648713 c 0,20,21
 414.62408754 372.425118849 414.62408754 372.425118849 408.550246622 367.230438995 c 2,22,-1
 408.298838815 367.018242862 l 2,23,24
 399.833215491 360.27316313 399.833215491 360.27316313 392.194854823 355.023859469 c 1,25,26
 402.170425465 349.868123668 402.170425465 349.868123668 410.484687134 344.558133786 c 2,27,-1
 410.839824545 344.328274955 l 2,28,29
 427.021820976 333.003166122 427.021820976 333.003166122 439.326359752 320.869153224 c 0,30,31
 459.77977497 299.869822022 459.77977497 299.869822022 472.409393862 275.133311894 c 2,32,-1
 472.598751448 274.755883762 l 1,33,-1
 472.778899642 274.37390664 l 2,34,35
 493.158671263 229.919835996 493.158671263 229.919835996 488.827117011 182.58266902 c 2,36,-1
 488.790261103 182.204325948 l 1,37,38
 482.989573898 137.653336168 482.989573898 137.653336168 458.935867183 100.696944826 c 2,39,-1
 458.720095409 100.369424232 l 1,40,-1
 458.496901663 100.046717387 l 2,41,42
 446.849022637 83.6111123387 446.849022637 83.6111123387 433.601186205 70.2023691375 c 0,43,44
 417.041439761 54.0080136698 417.041439761 54.0080136698 398.306871337 41.4990702441 c 0,45,-1
 397.857411135 41.2074761631 l 1,46,47
 333.875367245 1.07195092501 333.875367245 1.07195092501 245.51101466 -2.96074583655 c 2,48,-1
 245.383333834 -2.96622266993 l 1,49,50
 146.557688214 -6.07439914788 146.557688214 -6.07439914788 47.5517255005 31.2836463742 c 1,51,-1
 72.3860135541 96.7399755775 l 1,52,53
 159.156171223 64.2251060546 159.156171223 64.2251060546 242.616358251 66.9662323274 c 0,54,55
 312.862310075 70.4692068836 312.862310075 70.4692068836 360.01620575 100.112548706 c 0,56,57
 373.677007004 109.44995877 373.677007004 109.44995877 384.103711522 119.699843821 c 0,58,59
 393.542039242 129.458614705 393.542039242 129.458614705 400.658211479 139.497697958 c 0,60,61
 415.751353521 163.421369187 415.751353521 163.421369187 419.209007499 189.794391509 c 0,62,63
 421.360694598 218.461701367 421.360694598 218.461701367 409.64868454 244.096895334 c 0,64,65
 401.381918106 259.559154573 401.381918106 259.559154573 389.828885069 271.371678541 c 0,66,67
 381.304672973 279.551373806 381.304672973 279.551373806 372.129753078 285.985234658 c 0,68,69
 347.920246155 300.979856037 347.920246155 300.979856037 315.290460978 307.123471523 c 0,70,71
 291.562067339 310.793873084 291.562067339 310.793873084 245.882199086 311.007059905 c 0,72,73
 230.98996422 311.007059905 230.98996422 311.007059905 216.097729353 311.006937505 c 0,74,-1
 198 311.006863131 l 1,75,-1
 198 380.993136869 l 1,76,-1
 216 380.993136869 l 2,77,78
 267.58764536 381.191558641 267.58764536 381.191558641 297.153749451 388.210698769 c 0,79,80
 335.680761512 398.612292706 335.680761512 398.612292706 363.698870161 420.980322798 c 0,81,82
 368.348288942 425.057587753 368.348288942 425.057587753 371.728405198 428.368123396 c 0,83,84
 381.39373973 438.411087832 381.39373973 438.411087832 388.149904584 448.739012757 c 0,85,86
 396.837370702 464.243654792 396.837370702 464.243654792 399.247291121 480.153251484 c 0,87,88
 400.332810873 495.757039863 400.332810873 495.757039863 395.64568183 510.302280533 c 0,89,90
 389.494829778 524.870994165 389.494829778 524.870994165 378.470086726 536.825361679 c 0,91,92
 354.381702858 559.207874015 354.381702858 559.207874015 314.309455946 566.467872251 c 0,93,94
 233.138872037 578.202732489 233.138872037 578.202732489 142.219192119 530.977150982 c 1,0,-1
  Spiro
    142.219 530.977 v
    109.775 593.02 v
    219.455 632.825 o
    325.398 635.577 [
    325.689 635.532 v
    325.98 635.482 ]
    382.723 617.809 o
    427.969 586.327 o
    428.714 585.571 ]
    447.673 561.52 o
    461.309 534.592 [
    461.497 534.096 v
    461.669 533.593 ]
    468.551 503.412 o
    468.802 472.338 o
    468.685 471.347 ]
    461.48 441.274 o
    448.053 412.494 o
    447.569 411.706 ]
    435.546 394.913 o
    421.226 378.871 o
    415.276 373.179 o
    408.55 367.23 [
    408.299 367.018 ]
    400.49 360.947 o
    392.195 355.024 v
    401.272 350.14 o
    410.485 344.558 [
    410.84 344.328 ]
    425.683 333.195 o
    439.326 320.869 o
    457.544 299.488 o
    472.409 275.133 [
    472.599 274.756 v
    472.779 274.374 ]
    487.03 229.716 o
    488.827 182.583 [
    488.79 182.204 v
    478.713 139.913 o
    458.936 100.697 [
    458.72 100.369 v
    458.497 100.047 ]
    446.91 84.8317 o
    433.601 70.2024 o
    417.041 55.29 o
    398.307 41.4991 ]
    397.857 41.2075 v
    328.35 10.1229 o
    245.511 -2.96075 [
    245.383 -2.96622 v
    146.98 3.85215 o
    47.5517 31.2836 v
    72.386 96.74 v
    157.853 73.0165 o
    242.616 66.9662 o
    306.695 76.755 o
    360.016 100.113 o
    372.423 109.237 o
    384.104 119.7 o
    392.584 128.991 o
    400.658 139.498 o
    412.774 163.495 o
    419.209 189.794 o
    418.123 217.211 o
    409.649 244.097 o
    401.006 258.196 o
    389.829 271.372 o
    381.705 278.724 o
    372.13 285.985 o
    346.423 298.654 o
    315.29 307.123 o
    286.763 309.927 o
    245.882 311.007 o
    235.964 311.007 o
    226.016 311.007 o
    216.098 311.007 ]
    198 311.007 v
    198 380.993 v
    216 380.993 ]
    261.743 382.815 o
    297.154 388.211 o
    332.63 401.264 o
    363.699 420.98 o
    367.557 424.396 o
    371.728 428.368 o
    380.321 437.948 o
    388.15 448.739 o
    395.192 463.82 o
    399.247 480.153 o
    399.06 494.975 o
    395.646 510.302 o
    388.731 523.73 o
    378.47 536.825 o
    351.064 555.307 o
    314.309 566.468 o
    231.25 563.749 o
    0 0 z
  EndSpiro
EndSplineSet
Layer: 2
SplineSet
243 0 m 0,0,1
 179 0 179 0 133.5 9 c 128,-1,2
 88 18 88 18 48 33 c 1,3,-1
 73 98 l 1,4,5
 110 82 110 82 157.5 75 c 128,-1,6
 205 68 205 68 242 68 c 0,7,8
 301 68 301 68 338 88 c 128,-1,9
 375 108 375 108 393 139 c 128,-1,10
 411 170 411 170 411 202 c 0,11,12
 411 254 411 254 375.5 282.5 c 128,-1,13
 340 311 340 311 267 311 c 2,14,-1
 198 311 l 1,15,-1
 198 379 l 1,16,-1
 244 379 l 2,17,18
 297 379 297 379 329.5 395.5 c 128,-1,19
 362 412 362 412 376.5 436.5 c 128,-1,20
 391 461 391 461 391 485 c 0,21,22
 391 518 391 518 365 542 c 128,-1,23
 339 566 339 566 278 566 c 0,24,25
 238 566 238 566 200 556.5 c 128,-1,26
 162 547 162 547 136 534 c 1,27,-1
 108 597 l 1,28,29
 153 618 153 618 192 626 c 128,-1,30
 231 634 231 634 282 634 c 0,31,32
 371 634 371 634 419.5 595 c 128,-1,33
 468 556 468 556 468 489 c 0,34,35
 468 444 468 444 446.5 410 c 128,-1,36
 425 376 425 376 380 356 c 1,37,38
 426 343 426 343 456.5 302.5 c 128,-1,39
 487 262 487 262 487 203 c 0,40,41
 487 139 487 139 455.5 93.5 c 128,-1,42
 424 48 424 48 369 24 c 128,-1,43
 314 0 314 0 243 0 c 0,0,1
  Spiro
    243 0 o
    183.625 2.25 o
    133.5 9 o
    89.375 19.5 o
    48 33 v
    73 98 v
    112.625 84.25 o
    157.5 75 o
    202.375 69.75 o
    242 68 o
    295.5 73 o
    338 88 o
    370.25 110.75 o
    393 139 o
    406.5 170.25 o
    411 202 o
    402.125 248.125 o
    375.5 282.5 o
    330.625 303.875 o
    267 311 [
    198 311 v
    198 379 v
    244 379 ]
    291.875 383.125 o
    329.5 395.5 o
    357.5 414 o
    376.5 436.5 o
    387.375 460.875 o
    391 485 o
    384.5 515.75 o
    365 542 o
    330.25 560 o
    278 566 o
    238.5 563.625 o
    200 556.5 o
    165 546.125 o
    136 534 v
    108 597 v
    151.5 614.75 o
    192 626 o
    234 632 o
    282 634 o
    360.875 624.25 o
    419.5 595 o
    455.875 549 o
    468 489 o
    462.625 446.75 o
    446.5 410 o
    419.125 379.5 o
    380 356 v
    422.125 336.125 o
    456.5 302.5 o
    479.375 257.375 o
    487 203 o
    479.125 143.625 o
    455.5 93.5 o
    418.125 53.375 o
    369 24 o
    310 6 o
    0 0 z
  EndSpiro
EndSplineSet
EndChar

StartChar: uni1703
Encoding: 7 5891 8
Width: 984
GlyphClass: 2
InSpiro: 1
Flags: W
AnchorPoint: "Anchor-1" 539 0 basechar 0
AnchorPoint: "Anchor-0" 488 693 basechar 0
LayerCount: 3
Back
SplineSet
498 482 m 1,0,-1
 498 134 l 1025
  Spiro
    498 482 {
    498 134 v
    0 0 z
  EndSpiro
71 132 m 0,2,3
 138.31078591 63.3764726048 138.31078591 63.3764726048 236 57 c 0,4,5
 283.336761518 54.445055461 283.336761518 54.445055461 333.147460938 67.6572265625 c 0,6,7
 367.635442973 77.0729457529 367.635442973 77.0729457529 425 102 c 2,8,-1
 563 162 l 2,9,10
 627.44986593 189.859624149 627.44986593 189.859624149 663.610351562 199.963867188 c 0,11,12
 719.270664063 215.037400641 719.270664063 215.037400641 770 213 c 0,13,14
 851.402709757 208.893094877 851.402709757 208.893094877 917 165 c 1024
  Spiro
    71 132 {
    236 57 o
    425 102 [
    563 162 ]
    770 213 o
    917 165 o
    0 0 z
  EndSpiro
71 488 m 0,16,17
 138.311365836 419.375888311 138.311365836 419.375888311 236 413 c 0,18,19
 283.334181496 410.445028072 283.334181496 410.445028072 333.147372607 423.657376467 c 0,20,21
 367.629693963 433.071215894 367.629693963 433.071215894 425 458 c 2,22,-1
 563 518 l 2,23,24
 627.446361998 545.858580933 627.446361998 545.858580933 663.610503929 555.963554804 c 0,25,26
 719.271513334 571.037274806 719.271513334 571.037274806 770 569 c 0,27,28
 851.402290005 564.893665719 851.402290005 564.893665719 917 521 c 1024
  Spiro
    71 488 {
    236 413 o
    425 458 [
    563 518 ]
    770 569 o
    917 521 o
    0 0 z
  EndSpiro
EndSplineSet
Fore
SplineSet
463.006863131 482 m 1,0,-1
 532.993136869 482 l 1,1,-1
 532.993136869 134 l 1,2,-1
 463.006863131 134 l 1,3,-1
 463.006863131 482 l 1,0,-1
46.0089932979 107.495882129 m 1,4,-1
 95.9910067021 156.504117871 l 1,5,6
 96.824963613 155.653896556 96.824963613 155.653896556 97.6627733588 154.816096399 c 0,7,8
 155.872284958 97.7247349523 155.872284958 97.7247349523 238.097771072 91.9313114962 c 0,9,10
 280.286748522 90.0178262062 280.286748522 90.0178262062 324.008569662 101.443921838 c 0,11,12
 356.951334275 110.661897486 356.951334275 110.661897486 411.021181606 134.093702731 c 2,13,-1
 549.088685058 194.122967151 l 2,14,15
 615.853372295 222.866714605 615.853372295 222.866714605 654.14918822 233.661901095 c 0,16,-1
 654.419245405 233.736197964 l 2,17,18
 715.7268569 250.038718991 715.7268569 250.038718991 771.414932565 247.964735969 c 2,19,-1
 771.595780077 247.957472739 l 1,20,21
 863.176068705 242.787443278 863.176068705 242.787443278 936.444851209 194.108121072 c 0,22,-1
 897.555148791 135.891878928 l 1,23,24
 839.344588058 174.152012473 839.344588058 174.152012473 768.40486538 178.042439461 c 0,25,26
 722.629432735 179.519934959 722.629432735 179.519934959 672.938191694 166.228539602 c 0,27,28
 638.132425533 156.283093539 638.132425533 156.283093539 576.911314942 129.877032849 c 2,29,-1
 438.978818394 69.9062972689 l 2,30,31
 379.122553537 44.0248349796 379.122553537 44.0248349796 342.407761059 33.9037105523 c 0,32,-1
 342.163107375 33.8378676253 l 2,33,34
 286.522023873 19.392356049 286.522023873 19.392356049 234.099822001 22.0581023716 c 0,35,-1
 233.703706006 22.0817193434 l 1,36,37
 124.051559409 29.9982313102 124.051559409 29.9982313102 48.1652986757 105.318621716 c 0,38,39
 47.0829670743 106.400953317 47.0829670743 106.400953317 46.0089932979 107.495882129 c 1,4,-1
46.0089945591 463.495880843 m 1,40,-1
 95.9910054409 512.504119157 l 1,41,42
 96.8249743029 511.653885744 96.8249743029 511.653885744 97.6627957716 510.816073864 c 0,43,44
 155.872816384 453.724201047 155.872816384 453.724201047 238.097719776 447.931313537 c 0,45,46
 280.28440849 446.017793449 280.28440849 446.017793449 324.008786856 457.444153983 c 0,47,48
 356.946144533 466.660357671 356.946144533 466.660357671 411.021181606 490.093702731 c 2,49,-1
 549.088488404 550.122882143 l 2,50,51
 615.849973324 578.865712343 615.849973324 578.865712343 654.14959181 589.661658909 c 0,52,-1
 654.419399005 589.735885914 l 2,53,54
 715.727658095 606.038584905 715.727658095 606.038584905 771.414868973 603.964738523 c 2,55,-1
 771.595629677 603.957479106 l 1,56,57
 863.175606715 598.788071731 863.175606715 598.788071731 936.444939488 550.108062001 c 0,58,-1
 897.555060512 491.891937999 l 1,59,60
 839.344196649 530.152524012 839.344196649 530.152524012 768.405023648 534.042432794 c 0,61,62
 722.630277956 535.519828822 722.630277956 535.519828822 672.93821419 522.228192086 c 0,63,64
 638.129152037 512.28211591 638.129152037 512.28211591 576.911511596 485.877117857 c 2,65,-1
 438.978818394 425.906297269 l 2,66,67
 379.116621687 400.023039622 379.116621687 400.023039622 342.407368277 389.903777339 c 0,68,-1
 342.162712276 389.837936162 l 2,69,70
 286.519281608 375.392324696 286.519281608 375.392324696 234.09969845 378.05810904 c 0,71,-1
 233.703901881 378.081706559 l 1,72,73
 124.052206208 385.997584351 124.052206208 385.997584351 48.1653210886 461.318599181 c 0,74,75
 47.0829789902 462.400941279 47.0829789902 462.400941279 46.0089945591 463.495880843 c 1,40,-1
EndSplineSet
Layer: 2
SplineSet
253 21 m 0,0,1
 188 21 188 21 142.5 44 c 128,-1,2
 97 67 97 67 51 106 c 1,3,-1
 95 159 l 1,4,5
 129 127 129 127 166 108 c 128,-1,6
 203 89 203 89 255 89 c 0,7,8
 280 89 280 89 305 95 c 128,-1,9
 330 101 330 101 347 108 c 2,10,-1
 459 155 l 1,11,-1
 459 437 l 1,12,-1
 374 402 l 2,13,14
 351 392 351 392 318.5 384.5 c 128,-1,15
 286 377 286 377 253 377 c 0,16,17
 188 377 188 377 142.5 400 c 128,-1,18
 97 423 97 423 51 462 c 1,19,-1
 95 515 l 1,20,21
 129 483 129 483 166 464 c 128,-1,22
 203 445 203 445 255 445 c 0,23,24
 280 445 280 445 305 451 c 128,-1,25
 330 457 330 457 347 464 c 2,26,-1
 610 574 l 2,27,28
 633 584 633 584 671.5 594.5 c 128,-1,29
 710 605 710 605 743 605 c 0,30,31
 799 605 799 605 843 592.5 c 128,-1,32
 887 580 887 580 933 555 c 1,33,-1
 902 494 l 1,34,35
 862 515 862 515 826.5 526 c 128,-1,36
 791 537 791 537 747 537 c 0,37,38
 722 537 722 537 688 528.5 c 128,-1,39
 654 520 654 520 637 512 c 2,40,-1
 536 469 l 1,41,-1
 536 187 l 1,42,-1
 610 218 l 2,43,44
 633 228 633 228 671.5 238.5 c 128,-1,45
 710 249 710 249 743 249 c 0,46,47
 799 249 799 249 843 236.5 c 128,-1,48
 887 224 887 224 933 199 c 1,49,-1
 902 138 l 1,50,51
 862 159 862 159 826.5 170 c 128,-1,52
 791 181 791 181 747 181 c 0,53,54
 722 181 722 181 688 172.5 c 128,-1,55
 654 164 654 164 637 156 c 2,56,-1
 374 46 l 2,57,58
 351 36 351 36 318.5 28.5 c 128,-1,59
 286 21 286 21 253 21 c 0,0,1
  Spiro
    253 21 o
    192.875 26.75 o
    142.5 44 o
    96.875 71 o
    51 106 v
    95 159 v
    129.75 130.25 o
    166 108 o
    206.75 93.75 o
    255 89 o
    280 90.5 o
    305 95 o
    328 101.25 o
    347 108 [
    459 155 v
    459 437 v
    374 402 ]
    348.625 392.625 o
    318.5 384.5 o
    285.875 378.875 o
    253 377 o
    192.875 382.75 o
    142.5 400 o
    96.875 427 o
    51 462 v
    95 515 v
    129.75 486.25 o
    166 464 o
    206.75 449.75 o
    255 445 o
    280 446.5 o
    305 451 o
    328 457.25 o
    347 464 [
    610 574 ]
    636.875 584.125 o
    671.5 594.5 o
    708.625 602.375 o
    743 605 o
    796 601.875 o
    843 592.5 o
    887.5 576.875 o
    933 555 v
    902 494 v
    863.125 512.5 o
    826.5 526 o
    788.875 534.25 o
    747 537 o
    719.75 534.875 o
    688 528.5 o
    658.25 520.125 o
    637 512 [
    536 469 v
    536 187 v
    610 218 ]
    636.875 228.125 o
    671.5 238.5 o
    708.625 246.375 o
    743 249 o
    796 245.875 o
    843 236.5 o
    887.5 220.875 o
    933 199 v
    902 138 v
    863.125 156.5 o
    826.5 170 o
    788.875 178.25 o
    747 181 o
    719.75 178.875 o
    688 172.5 o
    658.25 164.125 o
    637 156 [
    374 46 ]
    348.625 36.625 o
    318.5 28.5 o
    285.875 22.875 o
    0 0 z
  EndSpiro
EndSplineSet
EndChar

StartChar: uni1704
Encoding: 8 5892 9
Width: 837
GlyphClass: 2
Flags: W
AnchorPoint: "Anchor-1" 545 0 basechar 0
AnchorPoint: "Anchor-0" 400 693 basechar 0
LayerCount: 3
Back
SplineSet
422 537 m 0,0,1
 448.412981557 556.554322584 448.412981557 556.554322584 478 566 c 0,2,3
 514.843023256 577.50039135 514.843023256 577.50039135 548.550277672 570.977982656 c 0,4,5
 585.611912498 563.10519544 585.611912498 563.10519544 610 537 c 0,6,7
 625.937110705 518.888521108 625.937110705 518.888521108 634.617182285 495.233739939 c 0,8,9
 641.92022829 474.052181015 641.92022829 474.052181015 644.44397298 447.562299585 c 0,10,11
 646.068719938 428.828921542 646.068719938 428.828921542 646 350 c 2,12,-1
 646 174 l 2,13,14
 646.267024777 135.97869824 646.267024777 135.97869824 651.61583942 116.176522751 c 0,15,16
 660.564636037 86.4251323864 660.564636037 86.4251323864 681.181406833 66.8047148438 c 0,17,18
 702.317835378 47.9146010845 702.317835378 47.9146010845 732.228208302 39.931541243 c 0,19,20
 752.601617634 34.8803985153 752.601617634 34.8803985153 790 33 c 2,21,-1
 810 32 l 1025
  Spiro
    422 537 {
    478 566 o
    610 537 o
    646 350 [
    646 174 ]
    790 33 [
    810 32 o
    0 0 z
  EndSpiro
126 562 m 0,23,24
 227.892891806 615.282309696 227.892891806 615.282309696 320 601 c 0,25,26
 372.36649869 591.976675192 372.36649869 591.976675192 403.407236426 561.391952758 c 0,27,28
 420.547071626 543.46657181 420.547071626 543.46657181 428.570732608 522.202925021 c 0
 436.431828945 499.278427557 436.431828945 499.278427557 434 476 c 0,30,31
 430.785217898 451.871256735 430.785217898 451.871256735 417.984995724 430.419721039 c 0
 405.160319428 410.171915017 405.160319428 410.171915017 386 394 c 0,33,34
 351.618142565 366.066480238 351.618142565 366.066480238 305.698284809 354.269095046 c 0
 271.994800299 346.039386824 271.994800299 346.039386824 216 346 c 2,36,-1
 198 346 l 1,37,-1
 246 346 l 2,38,39
 295.820178091 345.833560519 295.820178091 345.833560519 321.307978278 341.600181773 c 0
 362.027433603 334.223142659 362.027433603 334.223142659 391.483508933 315.158017875 c 0
 424.447718727 292.665934774 424.447718727 292.665934774 441.123354763 259.428004877 c 0
 457.724019359 224.228795025 457.724019359 224.228795025 454 186 c 0,43,44
 449.752916527 150.387892901 449.752916527 150.387892901 429.689870187 119.934137409 c 0
 409.601281292 90.8888560503 409.601281292 90.8888560503 379.050160304 70.7321990025 c 0,46,47
 323.687668328 35.4181802926 323.687668328 35.4181802926 244 32 c 0,48,49
 152.899308258 28.753779973 152.899308258 28.753779973 60 64 c 1024
  Spiro
    126 562 {
    320 601 o
    434 476 o
    386 394 o
    216 346 [
    198 346 v
    246 346 ]
    454 186 o
    244 32 o
    60 64 o
    0 0 z
  EndSpiro
EndSplineSet
Fore
SplineSet
442.800042732 508.846140974 m 1,0,-1
 401.144270962 565.112632783 l 1,1,2
 432.823546986 588.121172777 432.823546986 588.121172777 467.530848235 599.399961716 c 0,3,4
 513.264910224 613.182236967 513.264910224 613.182236967 555.238674699 605.330457384 c 2,5,-1
 555.551746315 605.269877516 l 1,6,7
 601.170484357 594.939042291 601.170484357 594.939042291 631.999654677 564.593221025 c 0,8,9
 633.825501619 562.767374084 633.825501619 562.767374084 635.588881237 560.879571533 c 2,10,-1
 635.948543281 560.494586529 l 1,11,12
 656.571431076 536.415925495 656.571431076 536.415925495 667.466646858 507.325303502 c 2,13,-1
 667.584727569 507.003511987 l 2,14,15
 676.311310781 480.922561367 676.311310781 480.922561367 679.278257652 450.905233157 c 0,16,-1
 679.305299774 450.608064536 l 2,17,18
 681.04998052 428.899844483 681.04998052 428.899844483 680.993136869 350 c 2,19,-1
 680.993136869 174.126220562 l 2,20,21
 681.35913492 141.612985915 681.35913492 141.612985915 685.276797084 125.789152055 c 0,22,23
 691.883477694 105.928993527 691.883477694 105.928993527 704.069879271 93.3681772834 c 0,24,25
 704.482619481 92.9554359863 704.482619481 92.9554359863 704.904459082 92.5476033271 c 0,26,27
 720.428133554 79.6087744707 720.428133554 79.6087744707 740.987003218 73.8199435059 c 0,28,29
 759.093255067 69.6692290088 759.093255067 69.6692290088 791.760673792 67.949149988 c 2,30,-1
 811.760673792 66.949149988 l 1,31,-1
 808.239326208 -2.949149988 l 1,32,-1
 788.239326208 -1.949149988 l 2,33,34
 747.24108027 0.270144723996 747.24108027 0.270144723996 723.763495891 5.97082985985 c 2,35,-1
 723.461217072 6.04577330356 l 1,36,37
 684.974800331 16.8452047906 684.974800331 16.8452047906 657.87807854 40.68927277 c 2,38,-1
 657.465264146 41.0582145167 l 2,39,40
 655.803434386 42.6397325 655.803434386 42.6397325 654.572404588 43.8707026004 c 0,41,42
 629.234193786 70.0050069312 629.234193786 70.0050069312 618.109613133 106.054123816 c 2,43,-1
 617.966851975 106.52875109 l 1,44,45
 611.372582514 132.115366108 611.372582514 132.115366108 611.007732696 173.752364376 c 0,46,-1
 611.006863131 174 l 1,47,-1
 611.006863131 350 l 2,48,49
 611.047710007 426.186844282 611.047710007 426.186844282 609.594344862 444.379828929 c 0,50,51
 607.248921914 466.690942425 607.248921914 466.690942425 601.649822855 483.46197044 c 0,52,53
 594.785282835 500.861706217 594.785282835 500.861706217 584.054110096 513.50014189 c 0,54,55
 583.283350516 514.31472046 583.283350516 514.31472046 582.502179994 515.095746342 c 0,56,57
 565.357832965 531.261406594 565.357832965 531.261406594 541.551315768 536.685079527 c 0,58,59
 516.050284964 540.978650453 516.050284964 540.978650453 488.469151765 532.600038284 c 0,60,61
 464.131464614 524.426598699 464.131464614 524.426598699 442.800042732 508.846140974 c 1,0,-1
142.219192119 530.977150982 m 1,62,-1
 109.775433755 593.020038754 l 1,63,64
 222.299917003 651.201131809 222.299917003 651.201131809 325.39754015 635.577360726 c 2,65,-1
 325.689267626 635.532124889 l 1,66,-1
 325.980130935 635.482005935 l 2,67,68
 389.258525736 623.943276642 389.258525736 623.943276642 427.968695846 586.326587701 c 0,69,-1
 428.713525817 585.570517671 l 2,70,71
 450.758206757 561.850800072 450.758206757 561.850800072 461.309299215 534.592492748 c 2,72,-1
 461.496724596 534.095793408 l 1,73,-1
 461.66900604 533.593386956 l 2,74,75
 471.763732703 502.846071863 471.763732703 502.846071863 468.802425579 472.338052089 c 0,76,-1
 468.684631189 471.346721366 l 2,77,78
 464.043712951 439.702953114 464.043712951 439.702953114 448.053439732 412.493560572 c 0,79,-1
 447.569240799 411.706113803 l 2,80,81
 435.781072308 393.617897148 435.781072308 393.617897148 421.225879881 378.870648713 c 0,82,83
 414.62408754 372.425118849 414.62408754 372.425118849 408.550246622 367.230438995 c 2,84,-1
 408.298838815 367.018242862 l 2,85,86
 399.833215491 360.27316313 399.833215491 360.27316313 392.194854823 355.023859469 c 1,87,88
 402.170425465 349.868123668 402.170425465 349.868123668 410.484687134 344.558133786 c 2,89,-1
 410.839824545 344.328274955 l 2,90,91
 427.021820976 333.003166122 427.021820976 333.003166122 439.326359752 320.869153224 c 0,92,93
 459.77977497 299.869822022 459.77977497 299.869822022 472.409393862 275.133311894 c 2,94,-1
 472.598751448 274.755883762 l 1,95,-1
 472.778899642 274.37390664 l 2,96,97
 493.158671263 229.919835996 493.158671263 229.919835996 488.827117011 182.58266902 c 2,98,-1
 488.790261103 182.204325948 l 1,99,100
 482.989573898 137.653336168 482.989573898 137.653336168 458.935867183 100.696944826 c 2,101,-1
 458.720095409 100.369424232 l 1,102,-1
 458.496901663 100.046717387 l 2,103,104
 446.849022637 83.6111123387 446.849022637 83.6111123387 433.601186205 70.2023691375 c 0,105,106
 417.041439761 54.0080136698 417.041439761 54.0080136698 398.306871337 41.4990702441 c 0,107,-1
 397.857411135 41.2074761631 l 1,108,109
 333.875367245 1.07195092501 333.875367245 1.07195092501 245.51101466 -2.96074583655 c 2,110,-1
 245.383333834 -2.96622266993 l 1,111,112
 146.557688214 -6.07439914788 146.557688214 -6.07439914788 47.5517255005 31.2836463742 c 1,113,-1
 72.3860135541 96.7399755775 l 1,114,115
 159.156171223 64.2251060546 159.156171223 64.2251060546 242.616358251 66.9662323274 c 0,116,117
 312.862310075 70.4692068836 312.862310075 70.4692068836 360.01620575 100.112548706 c 0,118,119
 373.677007004 109.44995877 373.677007004 109.44995877 384.103711522 119.699843821 c 0,120,121
 393.542039242 129.458614705 393.542039242 129.458614705 400.658211479 139.497697958 c 0,122,123
 415.751353521 163.421369187 415.751353521 163.421369187 419.209007499 189.794391509 c 0,124,125
 421.360694598 218.461701367 421.360694598 218.461701367 409.64868454 244.096895334 c 0,126,127
 401.381918106 259.559154573 401.381918106 259.559154573 389.828885069 271.371678541 c 0,128,129
 381.304672973 279.551373806 381.304672973 279.551373806 372.129753078 285.985234658 c 0,130,131
 347.920246155 300.979856037 347.920246155 300.979856037 315.290460978 307.123471523 c 0,132,133
 291.562067339 310.793873084 291.562067339 310.793873084 245.882199086 311.007059905 c 0,134,135
 230.98996422 311.007059905 230.98996422 311.007059905 216.097729353 311.006937505 c 0,136,-1
 198 311.006863131 l 1,137,-1
 198 380.993136869 l 1,138,-1
 216 380.993136869 l 2,139,140
 267.58764536 381.191558641 267.58764536 381.191558641 297.153749451 388.210698769 c 0,141,142
 335.680761512 398.612292706 335.680761512 398.612292706 363.698870161 420.980322798 c 0,143,144
 368.348288942 425.057587753 368.348288942 425.057587753 371.728405198 428.368123396 c 0,145,146
 381.39373973 438.411087832 381.39373973 438.411087832 388.149904584 448.739012757 c 0,147,148
 396.837370702 464.243654792 396.837370702 464.243654792 399.247291121 480.153251484 c 0,149,150
 400.332810873 495.757039863 400.332810873 495.757039863 395.64568183 510.302280533 c 0,151,152
 389.494829778 524.870994165 389.494829778 524.870994165 378.470086726 536.825361679 c 0,153,154
 354.381702858 559.207874015 354.381702858 559.207874015 314.309455946 566.467872251 c 0,155,156
 233.138872037 578.202732489 233.138872037 578.202732489 142.219192119 530.977150982 c 1,62,-1
EndSplineSet
Layer: 2
SplineSet
243 0 m 0,0,1
 179 0 179 0 133.5 9 c 128,-1,2
 88 18 88 18 48 33 c 1,3,-1
 73 98 l 1,4,5
 110 82 110 82 157.5 75 c 128,-1,6
 205 68 205 68 242 68 c 0,7,8
 301 68 301 68 338 88 c 128,-1,9
 375 108 375 108 393 139 c 128,-1,10
 411 170 411 170 411 202 c 0,11,12
 411 254 411 254 375.5 282.5 c 128,-1,13
 340 311 340 311 267 311 c 2,14,-1
 198 311 l 1,15,-1
 198 379 l 1,16,-1
 244 379 l 2,17,18
 297 379 297 379 329.5 395.5 c 128,-1,19
 362 412 362 412 376.5 436.5 c 128,-1,20
 391 461 391 461 391 485 c 0,21,22
 391 518 391 518 365 542 c 128,-1,23
 339 566 339 566 278 566 c 0,24,25
 238 566 238 566 200 556.5 c 128,-1,26
 162 547 162 547 136 534 c 1,27,-1
 108 597 l 1,28,29
 153 618 153 618 192 626 c 128,-1,30
 231 634 231 634 282 634 c 0,31,32
 388 634 388 634 436 578 c 1,33,34
 462 594 462 594 487.5 599.5 c 128,-1,35
 513 605 513 605 536 605 c 0,36,37
 619 605 619 605 653 542 c 128,-1,38
 687 479 687 479 687 351 c 2,39,-1
 687 207 l 2,40,41
 687 159 687 159 694.5 128 c 128,-1,42
 702 97 702 97 728.5 82.5 c 128,-1,43
 755 68 755 68 811 68 c 1,44,-1
 811 0 l 1,45,-1
 801 0 l 2,46,47
 719 0 719 0 678 26 c 128,-1,48
 637 52 637 52 623.5 99 c 128,-1,49
 610 146 610 146 610 207 c 2,50,-1
 610 351 l 2,51,52
 610 423 610 423 601 463.5 c 128,-1,53
 592 504 592 504 573.5 520.5 c 128,-1,54
 555 537 555 537 527 537 c 0,55,56
 513 537 513 537 496 532.5 c 128,-1,57
 479 528 479 528 465 520 c 1,58,59
 468 505 468 505 468 489 c 0,60,61
 468 444 468 444 446.5 410 c 128,-1,62
 425 376 425 376 380 356 c 1,63,64
 426 343 426 343 456.5 302.5 c 128,-1,65
 487 262 487 262 487 203 c 0,66,67
 487 139 487 139 455.5 93.5 c 128,-1,68
 424 48 424 48 369 24 c 128,-1,69
 314 0 314 0 243 0 c 0,0,1
  Spiro
    243 0 o
    183.625 2.25 o
    133.5 9 o
    89.375 19.5 o
    48 33 v
    73 98 v
    112.625 84.25 o
    157.5 75 o
    202.375 69.75 o
    242 68 o
    295.5 73 o
    338 88 o
    370.25 110.75 o
    393 139 o
    406.5 170.25 o
    411 202 o
    402.125 248.125 o
    375.5 282.5 o
    330.625 303.875 o
    267 311 [
    198 311 v
    198 379 v
    244 379 ]
    291.875 383.125 o
    329.5 395.5 o
    357.5 414 o
    376.5 436.5 o
    387.375 460.875 o
    391 485 o
    384.5 515.75 o
    365 542 o
    330.25 560 o
    278 566 o
    238.5 563.625 o
    200 556.5 o
    165 546.125 o
    136 534 v
    108 597 v
    151.5 614.75 o
    192 626 o
    234 632 o
    282 634 o
    373.5 620 o
    436 578 v
    461.875 591.375 o
    487.5 599.5 o
    512.375 603.625 o
    536 605 o
    606.75 589.25 o
    653 542 o
    678.5 462.75 o
    687 351 [
    687 207 ]
    688.875 163.25 o
    694.5 128 o
    706.75 101.125 o
    728.5 82.5 o
    762.375 71.625 o
    811 68 v
    811 0 v
    801 0 ]
    729.25 6.5 o
    678 26 o
    643.875 57.25 o
    623.5 99 o
    613.375 149.5 o
    610 207 [
    610 351 ]
    607.75 415.125 o
    601 463.5 o
    589.625 498 o
    573.5 520.5 o
    552.625 532.875 o
    527 537 o
    512.25 535.875 o
    496 532.5 o
    479.75 527.125 o
    465 520 v
    467.25 504.75 o
    468 489 o
    462.625 446.75 o
    446.5 410 o
    419.125 379.5 o
    380 356 v
    422.125 336.125 o
    456.5 302.5 o
    479.375 257.375 o
    487 203 o
    479.125 143.625 o
    455.5 93.5 o
    418.125 53.375 o
    369 24 o
    310 6 o
    0 0 z
  EndSpiro
EndSplineSet
EndChar

StartChar: uni1705
Encoding: 9 5893 10
Width: 1011
GlyphClass: 2
InSpiro: 1
Flags: W
AnchorPoint: "Anchor-1" 564 0 basechar 0
AnchorPoint: "Anchor-0" 488 693 basechar 0
LayerCount: 3
Back
SplineSet
740 84 m 0,0,1
 819.601780975 105.00063548 819.601780975 105.00063548 872 162 c 0,2,3
 901.46579922 195.047541365 901.46579922 195.047541365 914.655238103 232.0288359 c 0,4,5
 928.782930947 274.045464301 928.782930947 274.045464301 921.186310385 313.337475778 c 0,6,7
 911.835904286 356.25909134 911.835904286 356.25909134 881.159891413 383.873712327 c 0,8,9
 848.645491496 411.644603419 848.645491496 411.644603419 806 414 c 0,10,11
 770.645017271 415.143055941 770.645017271 415.143055941 735.841345543 398.690527084 c 0,12,13
 709.913324028 385.919950259 709.913324028 385.919950259 676 358 c 0,14,15
 627.281758137 318.193188928 627.281758137 318.193188928 603.146494059 307.005769833 c 0,16,17
 582.314949604 297.857058432 582.314949604 297.857058432 560.499804801 294.412966447 c 0,18,19
 543.672818032 292.017413196 543.672818032 292.017413196 516 292 c 2,20,-1
 478 292 l 1025
  Spiro
    740 84 {
    872 162 o
    806 414 o
    676 358 o
    516 292 [
    478 292 v
    0 0 z
  EndSpiro
180 612 m 1,22,-1
 148 594 l 2,23,24
 115.957584062 575.425866674 115.957584062 575.425866674 102.974402424 559.338540733 c 0,25,26
 84.6629694657 534.761604435 84.6629694657 534.761604435 86 506 c 0,27,28
 88.8517597789 472.952128127 88.8517597789 472.952128127 113.7319978 451.090329975 c 0,29,30
 138.268170372 431.065764608 138.268170372 431.065764608 172 430 c 0,31,32
 204.900191597 429.760547567 204.900191597 429.760547567 261.893570156 455.341508134 c 0,33,34
 318.26096608 480.177154673 318.26096608 480.177154673 352 480 c 0,35,36
 387.240445023 478.917675237 387.240445023 478.917675237 415.229950292 460.178306639 c 0,37,38
 442.178309714 440.972184968 442.178309714 440.972184968 458.137504964 409.376778552 c 0,39,40
 482.447372858 359.09515651 482.447372858 359.09515651 480 278 c 0,41,42
 478.284564153 232.556087473 478.284564153 232.556087473 468.46586045 200.392852617 c 0,43,44
 454.986323054 159.012705596 454.986323054 159.012705596 428 134 c 0,45,46
 396.964195212 106.671356504 396.964195212 106.671356504 353.793770884 101.450271521 c 0,47,48
 322.388081768 98.204519268 322.388081768 98.204519268 272 108 c 0,49,50
 219.967718661 118.164705015 219.967718661 118.164705015 197.655440135 117.784962419 c 0,51,52
 154.531585746 116.364739005 154.531585746 116.364739005 128 94 c 0,53,54
 111.694713015 79.0706602749 111.694713015 79.0706602749 104.990841852 60.0667564185 c 0,55,56
 98.601596822 39.1489132153 98.601596822 39.1489132153 103.772193395 19.1932523072 c 0,57,58
 110.230932137 -1.65368537935 110.230932137 -1.65368537935 126.004735512 -15.0647069444 c 0,59,60
 143.217250503 -28.3400020039 143.217250503 -28.3400020039 164 -30 c 1024
  Spiro
    180 612 {
    148 594 ]
    86 506 o
    172 430 o
    352 480 o
    480 278 o
    428 134 o
    272 108 o
    128 94 o
    164 -30 o
    0 0 z
  EndSpiro
EndSplineSet
Fore
SplineSet
748.970548515 50.1687111162 m 0,0,-1
 731.029451485 117.831288884 l 1,1,2
 795.96593247 135.551317113 795.96593247 135.551317113 839.477875245 178.640385174 c 0,3,4
 842.808826173 181.971336141 842.808826173 181.971336141 846.035528993 185.472920376 c 0,5,6
 870.667154646 213.768636827 870.667154646 213.768636827 881.591430419 243.524694355 c 0,7,8
 892.236359395 276.838274358 892.236359395 276.838274358 886.909836257 306.2521488 c 0,9,10
 879.82662512 335.539886803 879.82662512 335.539886803 861.389414505 354.402555522 c 0,11,12
 859.255955643 356.456086069 859.255955643 356.456086069 858.099506778 357.537834678 c 0,13,14
 834.071477848 376.98629274 834.071477848 376.98629274 804.458414678 379.03754825 c 0,15,16
 777.367420601 379.299258037 777.367420601 379.299258037 751.070735586 367.16869138 c 0,17,18
 728.09493532 355.399921064 728.09493532 355.399921064 698.119418714 330.872648293 c 0,19,20
 645.783184011 288.394310234 645.783184011 288.394310234 617.883515261 275.252558919 c 0,21,-1
 617.242796966 274.963405181 l 2,22,23
 591.745552417 264.052294326 591.745552417 264.052294326 565.992746378 259.850533063 c 0,24,-1
 565.465269728 259.771353314 l 2,25,26
 545.346214201 257.073076512 545.346214201 257.073076512 516 257.006863131 c 2,27,-1
 478 257.006863131 l 1,28,-1
 478 326.993136869 l 1,29,-1
 516 326.993136869 l 2,30,31
 540.926244835 327.099755035 540.926244835 327.099755035 555.273886577 329.017831357 c 0,32,33
 572.780772129 332.087820082 572.780772129 332.087820082 588.699530078 338.894662693 c 0,34,35
 610.054167068 349.463086995 610.054167068 349.463086995 653.880581286 385.127351707 c 0,36,37
 691.207672783 415.549263648 691.207672783 415.549263648 720.364504936 430.090139998 c 2,38,-1
 720.614817451 430.213428819 l 1,39,40
 763.815078353 450.120340792 763.815078353 450.120340792 807.139382662 448.974723523 c 2,41,-1
 807.54207552 448.961704128 l 1,42,43
 862.653525969 445.241801877 862.653525969 445.241801877 903.867144368 410.509965656 c 2,44,-1
 904.216088067 410.211929171 l 1,45,-1
 904.557614668 409.904486098 l 2,46,47
 908.275187318 406.468429313 908.275187318 406.468429313 910.886889188 403.900030205 c 0,48,49
 944.47014905 369.417070146 944.47014905 369.417070146 955.373725982 320.828519111 c 2,50,-1
 955.461519205 320.42551769 l 1,51,-1
 955.5398395 320.020421514 l 2,52,53
 964.469637809 271.117906303 964.469637809 271.117906303 947.820592263 220.835918342 c 0,54,-1
 947.612625713 220.23557456 l 2,55,56
 931.514260459 176.46757719 931.514260459 176.46757719 898.142976555 138.727516782 c 0,57,-1
 897.782444651 138.329296842 l 2,58,59
 893.46799179 133.635987109 893.46799179 133.635987109 888.975349928 129.142910491 c 0,60,61
 831.114920493 72.1400597698 831.114920493 72.1400597698 748.970548515 50.1687111162 c 0,0,-1
162.842842035 642.51406272 m 1,62,-1
 197.157157965 581.48593728 l 1,63,-1
 165.358454381 563.599166514 l 2,64,65
 143.574145137 550.732171519 143.574145137 550.732171519 133.255519315 540.703613284 c 0,66,67
 131.470037825 538.798516278 131.470037825 538.798516278 130.622669223 537.853719047 c 0,68,69
 120.698353575 523.176895494 120.698353575 523.176895494 120.927277865 508.323453526 c 0,70,71
 123.335729683 491.13890662 123.335729683 491.13890662 134.140575973 479.904919632 c 0,72,73
 135.742096493 478.386307093 135.742096493 478.386307093 136.340123151 477.822736415 c 0,74,75
 152.249865247 466.024093821 152.249865247 466.024093821 172.651494872 464.991307689 c 0,76,77
 199.014404497 465.688425224 199.014404497 465.688425224 247.759226376 487.367139014 c 0,78,79
 311.242970316 514.944243176 311.242970316 514.944243176 352.185145715 514.992650797 c 2,80,-1
 352.63389146 514.990294553 l 1,81,82
 398.687896032 513.013308692 398.687896032 513.013308692 434.682476392 489.281290739 c 0,83,-1
 435.519717334 488.702844243 l 2,84,85
 447.217448468 480.104967722 447.217448468 480.104967722 456.622436824 470.847290614 c 0,86,87
 476.33751713 450.582458343 476.33751713 450.582458343 489.381125459 425.166348616 c 2,88,-1
 489.517212805 424.896928075 l 1,89,90
 517.472276105 365.835438346 517.472276105 365.835438346 514.977091223 276.936371905 c 0,91,-1
 514.968043335 276.669969155 l 2,92,93
 512.836051756 226.362920048 512.836051756 226.362920048 501.930415872 190.132939718 c 0,94,-1
 501.734869292 189.513104341 l 2,95,96
 485.958731587 142.749229171 485.958731587 142.749229171 456.255447905 112.627587727 c 0,97,98
 454.05437892 110.426518743 454.05437892 110.426518743 451.777298229 108.31594952 c 2,99,-1
 451.446650957 108.009483802 l 1,100,101
 411.253873918 73.4741832123 411.253873918 73.4741832123 358.024758547 66.7119744237 c 0,102,-1
 357.416985835 66.6438212739 l 2,103,104
 319.993885959 63.1197315315 319.993885959 63.1197315315 265.250110962 73.6594810129 c 0,105,106
 217.75993691 82.8466728121 217.75993691 82.8466728121 198.510245197 82.8005378018 c 0,107,108
 168.072740944 81.2159577562 168.072740944 81.2159577562 151.080724016 67.6718311552 c 0,109,110
 150.295000834 66.9364075867 150.295000834 66.9364075867 149.564961082 66.2059211486 c 0,111,112
 141.67167424 57.6706605988 141.67167424 57.6706605988 138.234389351 49.0668495406 c 0,113,114
 135.476649723 37.9242149648 135.476649723 37.9242149648 137.447653368 28.7950969618 c 0,115,116
 141.017813545 19.4132899983 141.017813545 19.4132899983 146.48891045 13.6153145313 c 2,117,-1
 148.045650053 12.1493605934 l 1,118,119
 157.403090387 5.87145385018 157.403090387 5.87145385018 166.806722774 4.88123922042 c 1,120,-1
 161.234264282 -64.8845130139 l 1,121,122
 129.759622081 -61.7753592507 129.759622081 -61.7753592507 104.656076439 -42.8039854301 c 2,123,-1
 103.995142376 -42.2942345476 l 1,124,-1
 103.358004951 -41.7525348993 l 2,125,126
 99.5982767311 -38.4230065667 99.5982767311 -38.4230065667 96.9914357666 -35.8821601518 c 0,127,128
 78.5106048775 -16.6295286995 78.5106048775 -16.6295286995 70.3502163643 8.79489365699 c 2,129,-1
 70.1076031632 9.57797878979 l 1,130,131
 62.6687912461 40.3961535976 62.6687912461 40.3961535976 71.5278491199 70.3317868344 c 2,132,-1
 71.74550614 71.0443773514 l 1,133,-1
 71.9932087269 71.7465561421 l 2,134,135
 81.3049589933 96.5852173298 81.3049589933 96.5852173298 100.067486399 115.703395832 c 0,136,137
 102.697458045 118.256989947 102.697458045 118.256989947 104.381166526 119.83003217 c 2,138,-1
 104.914777486 120.318613531 l 1,139,-1
 105.466770169 120.78391449 l 2,140,141
 141.992155216 150.654905685 141.992155216 150.654905685 196.494840203 152.758993575 c 2,142,-1
 196.775061662 152.768222275 l 2,143,144
 224.167767229 152.956478489 224.167767229 152.956478489 278.749889038 142.340518987 c 0,145,146
 323.679428546 133.606182906 323.679428546 133.606182906 349.873405291 136.226505433 c 0,147,148
 382.146925469 140.825747012 382.146925469 140.825747012 404.548842631 159.987806738 c 0,149,150
 405.66950736 161.036597951 405.66950736 161.036597951 406.757973222 162.12506241 c 0,151,152
 425.143189578 181.382699223 425.143189578 181.382699223 435.09535487 210.961991047 c 0,153,154
 443.400905585 239.434679426 443.400905585 239.434679426 445.026915778 279.197035545 c 0,155,156
 446.833875211 351.433467686 446.833875211 351.433467686 426.757401036 393.856630745 c 0,157,158
 418.109301234 410.099375511 418.109301234 410.099375511 407.124962141 421.349815931 c 0,159,160
 401.057435491 427.129019675 401.057435491 427.129019675 395.35580084 431.355930313 c 0,161,162
 375.286016338 443.914042178 375.286016338 443.914042178 351.397197934 445.007705167 c 0,163,164
 324.114303244 444.308051718 324.114303244 444.308051718 276.027913936 423.315877254 c 0,165,166
 212.008114252 394.983276929 212.008114252 394.983276929 171.743369362 395.007797015 c 2,167,-1
 171.314830642 395.010915983 l 1,168,169
 125.072775594 397.132378102 125.072775594 397.132378102 91.628194661 423.95022654 c 2,170,-1
 91.1325482054 424.354735631 l 1,171,-1
 90.6511338179 424.777745417 l 2,172,173
 87.0805616559 428.022740703 87.0805616559 428.022740703 84.6431012899 430.407444948 c 0,174,175
 55.1582629784 460.929519407 55.1582629784 460.929519407 51.1373524373 502.969502124 c 2,176,-1
 51.0773259425 503.665124499 l 1,177,178
 49.7973360595 545.953885504 49.7973360595 545.953885504 74.88406754 580.224115369 c 2,179,-1
 75.2880814126 580.766368028 l 1,180,-1
 75.7133366305 581.293297366 l 2,181,182
 79.8901673736 586.250464193 79.8901673736 586.250464193 83.7580446323 590.201087967 c 0,183,184
 101.381806166 607.316749396 101.381806166 607.316749396 130.452496615 624.291153974 c 2,185,-1
 130.646952275 624.40387473 l 1,186,-1
 130.842842035 624.51406272 l 1,187,-1
 162.842842035 642.51406272 l 1,62,-1
EndSplineSet
Layer: 2
SplineSet
79 0 m 1,0,1
 69 26 69 26 69 56 c 0,2,3
 69 78 69 78 79.5 100.5 c 128,-1,4
 90 123 90 123 113.5 138 c 128,-1,5
 137 153 137 153 176 153 c 0,6,7
 208 153 208 153 232 147.5 c 128,-1,8
 256 142 256 142 278.5 137 c 128,-1,9
 301 132 301 132 327 132 c 0,10,11
 389 132 389 132 418 173.5 c 128,-1,12
 447 215 447 215 447 288 c 0,13,14
 447 365 447 365 421 404 c 128,-1,15
 395 443 395 443 338 443 c 0,16,17
 307 443 307 443 286.5 436 c 128,-1,18
 266 429 266 429 249 420.5 c 128,-1,19
 232 412 232 412 212 405 c 128,-1,20
 192 398 192 398 161 398 c 0,21,22
 115 398 115 398 83.5 423 c 128,-1,23
 52 448 52 448 52 501 c 0,24,25
 52 545 52 545 82.5 577 c 128,-1,26
 113 609 113 609 161 641 c 1,27,-1
 199 584 l 1,28,29
 165 562 165 562 144.5 544.5 c 128,-1,30
 124 527 124 527 124 503 c 0,31,32
 124 491 124 491 132.5 478.5 c 128,-1,33
 141 466 141 466 170 466 c 0,34,35
 184 466 184 466 199 472 c 128,-1,36
 214 478 214 478 227 485 c 0,37,38
 247 496 247 496 272.5 503.5 c 128,-1,39
 298 511 298 511 332 511 c 0,40,41
 394 511 394 511 434.5 486.5 c 128,-1,42
 475 462 475 462 497 420 c 128,-1,43
 519 378 519 378 524 325 c 1,44,45
 562 325 562 325 589.5 336.5 c 128,-1,46
 617 348 617 348 652 381 c 0,47,48
 689 415 689 415 722 431.5 c 128,-1,49
 755 448 755 448 797 448 c 0,50,51
 872 448 872 448 914.5 401.5 c 128,-1,52
 957 355 957 355 957 283 c 0,53,54
 957 215 957 215 926 168 c 128,-1,55
 895 121 895 121 846.5 94 c 128,-1,56
 798 67 798 67 745 57 c 1,57,-1
 728 121 l 1,58,59
 799 138 799 138 842 179 c 128,-1,60
 885 220 885 220 885 284 c 0,61,62
 885 327 885 327 860 353.5 c 128,-1,63
 835 380 835 380 797 380 c 0,64,65
 769 380 769 380 748.5 369 c 128,-1,66
 728 358 728 358 701 331 c 0,67,68
 662 292 662 292 619.5 274.5 c 128,-1,69
 577 257 577 257 524 257 c 1,70,71
 519 194 519 194 491 151 c 128,-1,72
 463 108 463 108 421.5 86 c 128,-1,73
 380 64 380 64 332 64 c 0,74,75
 292 64 292 64 267.5 69.5 c 128,-1,76
 243 75 243 75 224 80 c 128,-1,77
 205 85 205 85 179 85 c 0,78,79
 160 85 160 85 150.5 73 c 128,-1,80
 141 61 141 61 141 44 c 0,81,82
 141 36 141 36 143 25 c 128,-1,83
 145 14 145 14 150 0 c 1,84,-1
 79 0 l 1,0,1
  Spiro
    79 0 v
    71.5 27 o
    69 56 o
    71.625 78.125 o
    79.5 100.5 o
    93.25 121.125 o
    113.5 138 o
    140.875 149.25 o
    176 153 o
    206 151.625 o
    232 147.5 o
    255.625 142.125 o
    278.5 137 o
    301.875 133.25 o
    327 132 o
    380.75 142.375 o
    418 173.5 o
    439.75 222.875 o
    447 288 o
    440.5 355.5 o
    421 404 o
    387.25 433.25 o
    338 443 o
    309.625 441.25 o
    286.5 436 o
    266.875 428.625 o
    249 420.5 o
    231.25 412.375 o
    212 405 o
    189.25 399.75 o
    161 398 o
    118.625 404.25 o
    83.5 423 o
    59.875 455 o
    52 501 o
    59.625 542 o
    82.5 577 o
    117.375 609 o
    161 641 v
    199 584 v
    168.375 563.125 o
    144.5 544.5 o
    129.125 525.375 o
    124 503 o
    126.125 490.875 o
    132.5 478.5 o
    146.125 469.125 o
    170 466 o
    184.25 467.5 o
    199 472 o
    213.5 478.25 o
    227 485 o
    248.375 495.125 o
    272.5 503.5 o
    300.125 509.125 o
    332 511 o
    388.625 504.875 o
    434.5 486.5 o
    470.375 457.625 o
    497 420 o
    514.75 375.25 o
    524 325 v
    559.375 327.875 o
    589.5 336.5 o
    618.875 353.375 o
    652 381 o
    688 410.625 o
    722 431.5 o
    757.25 443.875 o
    797 448 o
    863.875 436.375 o
    914.5 401.5 o
    946.375 348.625 o
    957 283 o
    949.25 220.25 o
    926 168 o
    890.625 126 o
    846.5 94 o
    796.875 71.25 o
    745 57 v
    728 121 v
    792 144 o
    842 179 o
    874.25 225.75 o
    885 284 o
    878.75 322.875 o
    860 353.5 o
    831.75 373.375 o
    797 380 o
    770.875 377.25 o
    748.5 369 o
    726.375 354 o
    701 331 o
    661.125 297.375 o
    619.5 274.5 o
    574.375 261.375 o
    524 257 v
    513.25 199 o
    491 151 o
    459.625 113.25 o
    421.5 86 o
    378.375 69.5 o
    332 64 o
    295.875 65.375 o
    267.5 69.5 o
    244.375 74.875 o
    224 80 o
    203.25 83.75 o
    179 85 o
    162.375 82 o
    150.5 73 o
    143.375 59.75 o
    141 44 o
    141.5 35.25 o
    143 25 o
    145.75 13.25 o
    150 0 v
    0 0 z
  EndSpiro
EndSplineSet
EndChar

StartChar: uni1706
Encoding: 10 5894 11
Width: 975
GlyphClass: 2
InSpiro: 1
Flags: W
AnchorPoint: "Anchor-1" 539 0 basechar 0
AnchorPoint: "Anchor-0" 488 693 basechar 0
LayerCount: 3
Back
SplineSet
128 426 m 0,0,1
 106.612089028 412.962167129 106.612089028 412.962167129 99.9010622383 389.644335634 c 0,2,3
 94.3253039551 365.646502547 94.3253039551 365.646502547 106 344 c 0,4,5
 117.756351631 324.669965649 117.756351631 324.669965649 138.557509099 314.492164531 c 0,6,7
 158.496515311 305.667475759 158.496515311 305.667475759 182 306 c 0,8,9
 217.940721217 307.303846441 217.940721217 307.303846441 258.096754514 328.639647113 c 0,10,11
 287.833359111 344.844754168 287.833359111 344.844754168 324 374 c 0,12,13
 341.614312666 388.239056744 341.614312666 388.239056744 376.185377915 417.65453578 c 0,14,15
 468.436711672 495.857945621 468.436711672 495.857945621 520 526 c 0,16,17
 617.604281165 582.238214654 617.604281165 582.238214654 719.395228579 593.833033577 c 0,18,19
 827.747323696 605.451136558 827.747323696 605.451136558 928 568 c 1,20,21
 835.357474914 602.96733852 835.357474914 602.96733852 736 594 c 0,22,23
 626.312405311 583.38424039 626.312405311 583.38424039 520 521 c 0,24,25
 349.791891702 420.731055154 349.791891702 420.731055154 258.032463551 245.651423145 c 0,26,27
 247.076788006 224.584544833 247.076788006 224.584544833 238 204 c 0,28,29
 195.095276731 105.424583892 195.095276731 105.424583892 186 0 c 1024
  Spiro
    128 426 {
    106 344 o
    182 306 o
    324 374 o
    520 526 o
    928 568 v
    736 594 o
    520 521 o
    238 204 o
    186 0 v
    0 0 z
  EndSpiro
EndSplineSet
Fore
SplineSet
109.79290183 455.899002487 m 1,0,-1
 146.20709817 396.100997513 l 1,1,2
 142.364194234 393.481516456 142.364194234 393.481516456 140.079783062 391.376078933 c 0,3,4
 135.700876686 386.152836268 135.700876686 386.152836268 133.777852192 380.764283618 c 0,5,6
 132.225217274 370.006325562 132.225217274 370.006325562 136.387528424 361.419909908 c 0,7,8
 139.437659681 357.076623034 139.437659681 357.076623034 142.101615816 354.243660879 c 0,9,10
 147.601174043 349.322173196 147.601174043 349.322173196 153.365794224 346.223413716 c 0,11,12
 166.590844214 341.030488882 166.590844214 341.030488882 181.112421447 340.984944278 c 0,13,14
 209.418754323 342.685148825 209.418754323 342.685148825 241.50856218 359.46741506 c 0,15,16
 269.10516395 374.826184812 269.10516395 374.826184812 302.023198028 401.243259512 c 0,17,18
 320.277605632 416.055880595 320.277605632 416.055880595 353.577399311 444.375262756 c 0,19,20
 448.289468916 524.465603006 448.289468916 524.465603006 502.531068185 556.336562709 c 0,21,22
 606.932545386 616.016706165 606.932545386 616.016706165 715.406756277 628.599807591 c 2,23,-1
 715.522216856 628.612959493 l 2,24,25
 793.496760352 636.670962417 793.496760352 636.670962417 867.074621396 621.819688356 c 0,26,27
 904.796068912 614.084249097 904.796068912 614.084249097 940.392476395 600.737468896 c 1,28,-1
 915.718280237 535.220941512 l 1,29,30
 884.376308385 546.761074185 884.376308385 546.761074185 853.450076156 553.21162628 c 0,31,32
 797.298329755 564.240376005 797.298329755 564.240376005 739.282036525 559.159766641 c 0,33,34
 636.848294158 548.731108232 636.848294158 548.731108232 537.758040676 490.831878789 c 0,35,36
 463.585320635 446.777014153 463.585320635 446.777014153 405.73846551 389.157386348 c 0,37,38
 336.293383546 319.17288336 336.293383546 319.17288336 289.088867171 229.496590483 c 0,39,40
 278.470351295 208.929713784 278.470351295 208.929713784 270.088280244 190.008716552 c 0,41,42
 229.583777452 96.1216741661 229.583777452 96.1216741661 220.862704544 -3.02983746973 c 1,43,-1
 151.133504642 2.9858976267 l 1,44,45
 161.10012264 114.621052331 161.10012264 114.621052331 205.911719756 217.991283448 c 0,46,47
 215.808439985 240.257181611 215.808439985 240.257181611 226.976059931 261.806255807 c 0,48,49
 232.208975086 271.790808656 232.208975086 271.790808656 237.693321879 281.555709908 c 1,50,51
 209.431591826 272.136406334 209.431591826 272.136406334 183.278286943 271.030041466 c 0,52,-1
 182.498820008 271.010391559 l 2,53,54
 150.929402466 270.986744693 150.929402466 270.986744693 124.370461298 282.48980739 c 2,55,-1
 123.760877954 282.759599337 l 1,56,-1
 123.162274831 283.052489939 l 2,57,58
 105.510381774 292.129314887 105.510381774 292.129314887 92.6041411329 304.746186196 c 0,59,60
 82.933338836 314.833146625 82.933338836 314.833146625 76.0825772856 325.823153987 c 2,61,-1
 75.6151967993 326.591630564 l 1,62,-1
 75.1883229276 327.383113812 l 2,63,64
 57.7498342031 361.164313294 57.7498342031 361.164313294 65.819843284 397.607187279 c 0,65,-1
 66.277003471 399.366330872 l 1,66,67
 73.8829839299 423.745997727 73.8829839299 423.745997727 90.5823083794 440.873553616 c 0,68,69
 99.7205228178 449.598872678 99.7205228178 449.598872678 109.79290183 455.899002487 c 1,0,-1
EndSplineSet
Layer: 2
SplineSet
142 0 m 1,0,1
 151 74 151 74 176.5 148.5 c 128,-1,2
 202 223 202 223 242 291 c 1,3,4
 221 281 221 281 203 277 c 128,-1,5
 185 273 185 273 168 273 c 0,6,7
 122 273 122 273 95 299 c 128,-1,8
 68 325 68 325 68 368 c 0,9,10
 68 415 68 415 100 450 c 1,11,-1
 152 406 l 1,12,13
 145 397 145 397 140.5 389 c 128,-1,14
 136 381 136 381 136 371 c 0,15,16
 136 341 136 341 173 341 c 0,17,18
 203 341 203 341 249.5 364.5 c 128,-1,19
 296 388 296 388 372 458 c 0,20,21
 455 534 455 534 557 582.5 c 128,-1,22
 659 631 659 631 778 631 c 0,23,24
 822 631 822 631 864.5 623 c 128,-1,25
 907 615 907 615 943 598 c 1,26,-1
 914 536 l 1,27,28
 892 547 892 547 856 555 c 128,-1,29
 820 563 820 563 778 563 c 0,30,31
 718 563 718 563 649 542 c 128,-1,32
 580 521 580 521 511.5 477.5 c 128,-1,33
 443 434 443 434 383.5 367 c 128,-1,34
 324 300 324 300 281 208.5 c 128,-1,35
 238 117 238 117 221 0 c 1,36,-1
 142 0 l 1,0,1
EndSplineSet
EndChar

StartChar: uni1707
Encoding: 11 5895 12
Width: 1048
GlyphClass: 2
Flags: W
AnchorPoint: "Anchor-1" 552 0 basechar 0
AnchorPoint: "Anchor-0" 527 693 basechar 0
LayerCount: 3
Back
SplineSet
243 459 m 5,0,-1
 227 443 l 6,1,2
 176.60165396 392.153525396 176.60165396 392.153525396 157.612554858 360.783976159 c 4,3,4
 127.586367958 309.356828186 127.586367958 309.356828186 131 258 c 4,5,6
 136.775493895 191.519309326 136.775493895 191.519309326 190.148467775 149.510628891 c 4,7,8
 238.557185632 112.80671383 238.557185632 112.80671383 309 110 c 4,9,10
 376.265569743 107.599978729 376.265569743 107.599978729 497.783663932 147.243262256 c 6,11,-1
 498.784431744 147.56983231 l 5,12,-1
 499.785100001 147.896528347 l 5,13,-1
 500.78566906 148.22333022 l 5,14,-1
 501.786139277 148.550217767 l 5,15,-1
 502.786511008 148.877170815 l 5,16,-1
 503.78678461 149.204169181 l 5,17,-1
 504.78696044 149.531192668 l 5,18,-1
 506.594671409 150.122332086 l 6,19,20
 515.712337141 153.102359377 515.712337141 153.102359377 519.764729205 154.421438368 c 4,21,22
 650.72348137 196.697302038 650.72348137 196.697302038 731 198 c 4,23,24
 869.978141414 199.904171627 869.978141414 199.904171627 972.01894891 116.169559875 c 4,25,26
 975.021064678 113.676335118 975.021064678 113.676335118 977 112 c 1028
  Spiro
    243 459 {
    227 443 ]
    131 258 o
    309 110 o
    731 198 o
    977 112 o
    0 0 z
  EndSpiro
71 540 m 4,28,29
 167.98306952 457.265669028 167.98306952 457.265669028 303.590846995 457.934126761 c 4,30,31
 306.796148295 457.963086528 306.796148295 457.963086528 309 458 c 4,32,33
 385.504982823 459.771615714 385.504982823 459.771615714 520.074868899 501.541408172 c 4,34,35
 657.035077006 543.78436261 657.035077006 543.78436261 731 546 c 4,36,37
 866.738213903 549.72429095 866.738213903 549.72429095 966.248322736 469.114819765 c 4,38,39
 972.210892091 464.212670643 972.210892091 464.212670643 977 460 c 1028
  Spiro
    71 540 {
    309 458 o
    731 546 o
    977 460 o
    0 0 z
  EndSpiro
EndSplineSet
Fore
SplineSet
218.251262658 483.748737342 m 1,0,-1
 267.748737342 434.251262658 l 1,1,-1
 251.860135998 418.363155397 l 2,2,3
 204.88589522 370.717581038 204.88589522 370.717581038 187.706424604 342.897870376 c 0,4,5
 163.658256669 300.531387144 163.658256669 300.531387144 165.892534198 260.691452636 c 0,6,7
 170.50629813 217.352161826 170.50629813 217.352161826 199.248440492 188.116149741 c 0,8,9
 205.510294838 182.07403011 205.510294838 182.07403011 211.520429626 177.234135123 c 0,10,11
 251.978583309 147.575893773 251.978583309 147.575893773 310.25724853 144.97071547 c 0,12,13
 372.236147579 143.24387724 372.236147579 143.24387724 486.886804446 180.506692259 c 2,14,-1
 487.882824842 180.831712762 l 1,15,-1
 488.879352423 181.157056674 l 1,16,-1
 489.876387937 181.482704227 l 1,17,-1
 490.873932054 181.808635575 l 1,18,-1
 491.871985456 182.13483083 l 1,19,-1
 492.870548971 182.461270104 l 1,20,-1
 493.869408812 182.787863279 l 1,21,-1
 495.694489528 183.384677742 l 1,22,-1
 508.973010449 187.718993675 l 2,23,24
 645.098839355 231.417528496 645.098839355 231.417528496 730.516924127 232.989827671 c 0,25,26
 882.557394785 234.368769415 882.557394785 234.368769415 994.354725147 143.118683863 c 0,27,28
 997.751239276 140.285567085 997.751239276 140.285567085 999.598113887 138.729086388 c 0,29,-1
 954.401886113 85.2709136115 l 1,30,31
 951.774159567 87.4785907515 951.774159567 87.4785907515 949.683172673 89.2204358871 c 0,32,33
 856.895808474 164.386457543 856.895808474 164.386457543 731.483075873 163.010172329 c 0,34,35
 655.665156893 161.389730678 655.665156893 161.389730678 530.556447961 121.123883061 c 2,36,-1
 517.49485329 116.85998643 l 1,37,-1
 515.704512068 116.274522057 l 1,38,-1
 514.703020249 115.947068258 l 1,39,-1
 513.70103656 115.6195108 l 1,40,-1
 512.6983465 115.291799959 l 1,41,-1
 511.694950183 114.963956213 l 1,42,-1
 510.690847579 114.63600002 l 1,43,-1
 509.686038646 114.307951858 l 1,44,-1
 508.680523418 113.979832253 l 2,45,46
 381.090073784 72.6367533085 381.090073784 72.6367533085 307.74275147 75.0292845302 c 0,47,48
 225.93753415 78.8859747012 225.93753415 78.8859747012 169.028426314 121.596523344 c 0,49,-1
 168.528155541 121.983005997 l 2,50,51
 158.07011563 130.408332588 158.07011563 130.408332588 149.750965809 138.618675058 c 0,52,53
 102.427324592 186.995260206 102.427324592 186.995260206 96.139110702 254.949194912 c 0,54,-1
 96.0844773727 255.661835814 l 1,55,56
 92.5460193222 318.211446928 92.5460193222 318.211446928 127.375988937 378.42531148 c 2,57,-1
 127.5148749 378.663187471 l 1,58,59
 149.758492945 414.659983794 149.758492945 414.659983794 202.139864002 467.636844603 c 2,60,-1
 218.251262658 483.748737342 l 1,0,-1
48.3086966402 513.350132173 m 0,61,-1
 93.6913033598 566.649867827 l 1,62,63
 180.819873986 492.322214196 180.819873986 492.322214196 303.272275369 492.925824521 c 0,64,65
 306.494709938 492.960241288 306.494709938 492.960241288 308.295576408 492.986302123 c 0,66,67
 380.804033303 495.071901964 380.804033303 495.071901964 509.718681885 534.976421492 c 0,68,69
 651.335896964 578.447380969 651.335896964 578.447380969 730.032917702 580.979872525 c 0,70,71
 878.978523525 584.359840245 878.978523525 584.359840245 988.450061024 496.17470111 c 0,72,73
 995.232106713 490.548638332 995.232106713 490.548638332 1000.0951209 486.300050469 c 0,74,-1
 953.904879101 433.699949531 l 1,75,76
 948.887918322 438.051311256 948.887918322 438.051311256 944.046584448 442.05493842 c 0,77,78
 853.988853228 514.025900613 853.988853228 514.025900613 731.967082298 511.020127475 c 0,79,80
 661.893651247 508.549975313 661.893651247 508.549975313 530.431055913 468.106394852 c 0,81,82
 391.088706565 425.076244643 391.088706565 425.076244643 309.816306076 423.016313295 c 0,83,-1
 309.590522298 423.011808237 l 2,84,85
 306.517676595 422.968539455 306.517676595 422.968539455 303.909418621 422.942429001 c 0,86,87
 154.910220414 422.922264216 154.910220414 422.922264216 48.3086966402 513.350132173 c 0,61,-1
EndSplineSet
Layer: 2
SplineSet
290 80 m 0,0,1
 201 80 201 80 147.5 127 c 128,-1,2
 94 174 94 174 94 251 c 0,3,4
 94 308 94 308 118 357.5 c 128,-1,5
 142 407 142 407 183 444 c 1,6,7
 149 456 149 456 116.5 474 c 128,-1,8
 84 492 84 492 51 517 c 1,9,-1
 89 573 l 1,10,11
 129 545 129 545 162 527 c 128,-1,12
 195 509 195 509 228.5 501 c 128,-1,13
 262 493 262 493 304 493 c 0,14,15
 366 493 366 493 425.5 508 c 128,-1,16
 485 523 485 523 529 537 c 0,17,18
 574 551 574 551 629 565 c 128,-1,19
 684 579 684 579 744 579 c 0,20,21
 818 579 818 579 877 555.5 c 128,-1,22
 936 532 936 532 997 487 c 1,23,-1
 955 433 l 1,24,25
 921 459 921 459 888 476 c 128,-1,26
 855 493 855 493 818 502 c 128,-1,27
 781 511 781 511 731 511 c 0,28,29
 685 511 685 511 637 497.5 c 128,-1,30
 589 484 589 484 550 472 c 0,31,32
 501 456 501 456 434.5 440.5 c 128,-1,33
 368 425 368 425 302 425 c 0,34,35
 281 425 281 425 261 427 c 1,36,37
 219 397 219 397 195 352 c 128,-1,38
 171 307 171 307 171 253 c 0,39,40
 171 205 171 205 201 176.5 c 128,-1,41
 231 148 231 148 291 148 c 0,42,43
 350 148 350 148 405 159 c 128,-1,44
 460 170 460 170 527 190 c 0,45,46
 577 205 577 205 630.5 218.5 c 128,-1,47
 684 232 684 232 744 232 c 0,48,49
 818 232 818 232 877 208.5 c 128,-1,50
 936 185 936 185 997 140 c 1,51,-1
 955 86 l 1,52,53
 921 112 921 112 888 129 c 128,-1,54
 855 146 855 146 818 155 c 128,-1,55
 781 164 781 164 731 164 c 0,56,57
 685 164 685 164 639 151 c 128,-1,58
 593 138 593 138 550 126 c 0,59,60
 496 111 496 111 430.5 95.5 c 128,-1,61
 365 80 365 80 290 80 c 0,0,1
  Spiro
    290 80 o
    209.875 91.75 o
    147.5 127 o
    107.375 181.5 o
    94 251 o
    100 306.125 o
    118 357.5 o
    146.25 403.875 o
    183 444 v
    149.375 457.5 o
    116.5 474 o
    83.875 493.75 o
    51 517 v
    89 573 v
    127.25 547.5 o
    162 527 o
    195.125 511.5 o
    228.5 501 o
    264.125 495 o
    304 493 o
    365.375 496.75 o
    425.5 508 o
    481.125 522.75 o
    529 537 o
    576.5 551 o
    629 565 o
    685.25 575.5 o
    744 579 o
    814.25 573.125 o
    877 555.5 o
    936.5 526.625 o
    997 487 v
    955 433 v
    921.25 456.75 o
    888 476 o
    854 491 o
    818 502 o
    777.75 508.75 o
    731 511 o
    684.5 507.625 o
    637 497.5 o
    591.25 484.375 o
    550 472 o
    496.625 456.125 o
    434.5 440.5 o
    368.125 428.875 o
    302 425 o
    281.25 425.5 o
    261 427 v
    223.5 393.25 o
    195 352 o
    177 304.75 o
    171 253 o
    178.5 209.875 o
    201 176.5 o
    238.5 155.125 o
    291 148 o
    349 150.75 o
    405 159 o
    463 172.25 o
    527 190 o
    577.875 204.625 o
    630.5 218.5 o
    685.625 228.625 o
    744 232 o
    814.25 226.125 o
    877 208.5 o
    936.5 179.625 o
    997 140 v
    955 86 v
    921.25 109.75 o
    888 129 o
    854 144 o
    818 155 o
    777.75 161.75 o
    731 164 o
    685 160.75 o
    639 151 o
    593.75 138.25 o
    550 126 o
    493.125 110.875 o
    430.5 95.5 o
    362.625 83.875 o
    0 0 z
  EndSpiro
EndSplineSet
EndChar

StartChar: uni1708
Encoding: 12 5896 13
Width: 850
GlyphClass: 2
Flags: W
AnchorPoint: "Anchor-0" 410 693 basechar 0
AnchorPoint: "Anchor-1" 437 -88 basechar 0
LayerCount: 3
Back
SplineSet
364 -50 m 0,0,1
 381.17413857 -19.0511300482 381.17413857 -19.0511300482 404 8 c 0,2,3
 428.942171171 37.120535207 428.942171171 37.120535207 458 60 c 0,4,5
 463.853588529 64.4717188826 463.853588529 64.4717188826 475.224558173 72.2152010859 c 128,-1,6
 486.38209436 80.4894154837 486.38209436 80.4894154837 490.46778095 86.59080019 c 0,7,8
 493.159608192 91.9402777611 493.159608192 91.9402777611 493.781115096 96.521262441 c 128,-1,9
 493.760761213 102.314236077 493.760761213 102.314236077 491.889395191 106.784226304 c 128,-1,10
 488.920450305 111.630669933 488.920450305 111.630669933 485.171381484 114.805784515 c 128,-1,11
 481.289399712 117.467520809 481.289399712 117.467520809 476 120 c 2,12,-1
 402 155 l 2,13,14
 393.517017826 159.248543652 393.517017826 159.248543652 390.261338425 161.535850715 c 128,-1,15
 384.415816548 166.838801131 384.415816548 166.838801131 382.375404385 172.160961433 c 128,-1,16
 381.034163655 179.275873922 381.034163655 179.275873922 384.066859369 185.114910476 c 0,17,18
 386.398335289 188.194616147 386.398335289 188.194616147 388.486258458 190.150460051 c 128,-1,19
 391.174536116 192.194589462 391.174536116 192.194589462 394 194 c 2,20,-1
 486 252 l 2,21,22
 489.925885266 254.659804136 489.925885266 254.659804136 491.422882711 255.837359535 c 128,-1,23
 494.222607039 258.813534115 494.222607039 258.813534115 495.61198498 260.955283382 c 128,-1,24
 497.054724926 264.511673881 497.054724926 264.511673881 497.39856194 267.304302238 c 128,-1,25
 497.189159236 271.054614375 497.189159236 271.054614375 496.286103799 273.808732595 c 0,26,27
 493.169197681 279.645181623 493.169197681 279.645181623 487.706684228 283.713862332 c 128,-1,28
 483.327907506 286.494171104 483.327907506 286.494171104 476 290 c 2,29,-1
 401 326 l 2,30,31
 394.656979754 329.297571381 394.656979754 329.297571381 392.239923531 331.032798401 c 128,-1,32
 388.024583651 335.25227547 388.024583651 335.25227547 386.531758839 339.187208509 c 128,-1,33
 385.783925474 344.610748746 385.783925474 344.610748746 387.840308566 348.9590247 c 128,-1,34
 390.707056729 352.787005077 390.707056729 352.787005077 395 356 c 2,35,-1
 456 400 l 2,36,37
 469.630948231 409.90937684 469.630948231 409.90937684 470.957210254 410.959581212 c 128,-1,38
 479.475725195 418.663520573 479.475725195 418.663520573 482.406557273 425.267879839 c 0,39,40
 483.858912863 430.298303285 483.858912863 430.298303285 483.704725529 434.368324493 c 128,-1,41
 482.761267056 439.392082654 482.761267056 439.392082654 480.655884502 443.026927587 c 128,-1,42
 477.46555892 446.956800601 477.46555892 446.956800601 474.098144785 449.496657905 c 128,-1,43
 471.068489439 451.392192794 471.068489439 451.392192794 466 454 c 0,44,45
 434.117841253 471.655334163 434.117841253 471.655334163 419.829696007 505.52682697 c 128,-1,46
 410.055207333 530.61118382 410.055207333 530.61118382 410 575 c 2,47,-1
 410 599 l 1025
  Spiro
    364 -50 {
    404 8 c
    458 60 ]
    476 120 [
    402 155 ]
    394 194 [
    486 252 ]
    476 290 [
    401 326 ]
    395 356 [
    456 400 ]
    466 454 [
    410 575 [
    410 599 v
    0 0 z
  EndSpiro
144 0 m 0,49,50
 102.16892872 118.175652345 102.16892872 118.175652345 109 238 c 0,51,52
 117.981634872 380.55527939 117.981634872 380.55527939 191.284176789 477.746446416 c 0,53,54
 232.505081088 531.180820215 232.505081088 531.180820215 286.891028942 562.419522344 c 128,-1,55
 344.993274648 594.903752497 344.993274648 594.903752497 409 599 c 0,56,57
 478.538347762 602.691985029 478.538347762 602.691985029 542.244312833 573.684563868 c 128,-1,58
 604.055648388 544.672694502 604.055648388 544.672694502 649.880790817 490.7165914 c 0,59,60
 734.050533562 389.831772481 734.050533562 389.831772481 743 238 c 0,61,62
 749.4854807 116.7374308 749.4854807 116.7374308 706 0 c 1024
  Spiro
    144 0 {
    109 238 o
    409 599 o
    743 238 o
    706 0 v
    0 0 z
  EndSpiro
EndSplineSet
Fore
SplineSet
394.607608206 -66.9897767962 m 1,0,-1
 333.38813966 -33.0178858151 l 1,1,2
 352.690006892 1.28492882547 352.690006892 1.28492882547 377.395503062 30.7443813831 c 0,3,4
 388.853503393 43.9647248992 388.853503393 43.9647248992 400.046716532 55.229928824 c 0,5,6
 417.966813486 72.9308323358 417.966813486 72.9308323358 436.374607161 87.5236233026 c 2,7,-1
 436.575834873 87.6820653662 l 2,8,9
 441.647848409 91.488910092 441.647848409 91.488910092 446.763543529 95.1034777736 c 1,10,-1
 387.019369257 123.360857497 l 1,11,-1
 386.665914849 123.528031879 l 1,12,-1
 386.316361039 123.703099395 l 2,13,14
 375.128541626 129.490742604 375.128541626 129.490742604 370.163785234 132.875299074 c 2,15,-1
 368.382808923 134.126540119 l 1,16,-1
 366.762889316 135.596101526 l 2,17,18
 364.828745863 137.425278742 364.828745863 137.425278742 363.930536233 138.292201448 c 0,19,20
 354.124578681 148.84354845 354.124578681 148.84354845 349.70213944 159.599708946 c 2,21,-1
 348.575769757 162.537703593 l 1,22,-1
 347.991219039 165.638584078 l 2,23,24
 344.997097961 184.990272849 344.997097961 184.990272849 353.002141023 201.253744444 c 2,25,-1
 354.357947656 203.864162776 l 1,26,-1
 356.137154942 206.214362803 l 2,27,28
 360.107821648 211.166140674 360.107821648 211.166140674 363.105505372 214.286998476 c 2,29,-1
 364.571928797 215.706825696 l 1,30,-1
 365.893373206 216.944677275 l 1,31,-1
 367.327781373 218.035381545 l 2,32,33
 371.658426228 221.213108384 371.658426228 221.213108384 375.348343806 223.623392521 c 2,34,-1
 443.662959583 266.691302467 l 1,35,-1
 385.839833984 294.446402755 l 1,36,-1
 385.340559928 294.686054302 l 2,37,38
 375.805767855 299.83576452 375.805767855 299.83576452 371.852478836 302.578129818 c 2,39,-1
 369.522162081 304.251085772 l 1,40,-1
 367.478811686 306.296441634 l 2,41,42
 357.963175543 316.602889608 357.963175543 316.602889608 353.815135743 326.739644281 c 2,43,-1
 352.411227001 330.440203683 l 1,44,-1
 351.868714028 334.374691064 l 2,45,46
 350.225894842 350.513833386 350.225894842 350.513833386 356.200513321 363.938275283 c 2,47,-1
 357.698020847 367.104794202 l 1,48,-1
 359.801305311 369.913318424 l 2,49,50
 363.190479796 374.147056482 363.190479796 374.147056482 366.107868535 377.176722574 c 0,51,52
 370.359762562 381.181957631 370.359762562 381.181957631 374.053887739 384.045128428 c 0,53,-1
 374.549124667 384.409023323 l 1,54,-1
 435.444164825 428.333017678 l 2,55,56
 436.767843109 429.295300471 436.767843109 429.295300471 437.960451496 430.163527816 c 1,57,58
 426.463684036 438.222508964 426.463684036 438.222508964 417.535374278 446.980711902 c 0,59,60
 398.450435982 466.7104815 398.450435982 466.7104815 387.586239413 491.897661645 c 2,61,-1
 387.399526223 492.340284138 l 1,62,-1
 387.225048192 492.788048656 l 2,63,64
 375.190480531 524.833609496 375.190480531 524.833609496 375.006863131 575 c 2,65,-1
 375.006863131 599 l 1,66,-1
 444.993136869 599 l 1,67,-1
 444.993136869 575 l 2,68,69
 445.24960584 537.876392913 445.24960584 537.876392913 452.270590471 518.691687292 c 0,70,71
 458.42432114 505.388300536 458.42432114 505.388300536 467.032848961 496.478186585 c 0,72,73
 474.415371524 489.595680618 474.415371524 489.595680618 482.546692147 484.854502758 c 0,74,75
 488.87847067 481.485602398 488.87847067 481.485602398 492.649058807 479.183321042 c 2,76,-1
 493.934854996 478.378849491 l 1,77,-1
 495.147932702 477.463890966 l 2,78,79
 499.317372306 474.106251198 499.317372306 474.106251198 502.354027543 471.175266259 c 0,80,81
 505.595513245 467.754516988 505.595513245 467.754516988 507.853386522 465.060213627 c 2,82,-1
 509.582442685 462.930346007 l 1,83,-1
 510.95291743 460.564285183 l 2,84,85
 516.008397255 451.180727874 516.008397255 451.180727874 518.093374292 440.866979859 c 2,86,-1
 518.57389547 438.308285166 l 1,87,-1
 518.672588937 435.703113297 l 2,88,89
 518.770707692 425.463855081 518.770707692 425.463855081 516.022502114 415.517736701 c 2,90,-1
 515.360743045 413.225647657 l 1,91,-1
 514.394931183 411.049279871 l 2,92,93
 508.702330849 399.250179708 508.702330849 399.250179708 498.61404727 388.971100812 c 0,94,95
 496.065379835 386.509555046 496.065379835 386.509555046 494.415283475 384.983260437 c 2,96,-1
 493.559822592 384.209602257 l 1,97,-1
 492.658354771 383.495772388 l 2,98,99
 488.958020511 380.676285382 488.958020511 380.676285382 476.555835175 371.666982322 c 2,100,-1
 440.675771748 345.786106494 l 1,101,-1
 491.160166016 321.553597245 l 2,102,103
 500.657012632 316.871805344 500.657012632 316.871805344 506.453046391 313.277335273 c 2,104,-1
 507.547150939 312.582632468 l 1,105,-1
 508.588135934 311.807268598 l 2,106,107
 512.899337941 308.37127578 512.899337941 308.37127578 515.88808085 305.502245837 c 0,108,109
 522.80800486 298.089319264 522.80800486 298.089319264 527.165220613 290.299958929 c 2,110,-1
 528.590025202 287.631992991 l 1,111,-1
 529.534116609 284.752724188 l 2,112,113
 531.808176207 277.056046794 531.808176207 277.056046794 532.336871851 269.269824473 c 2,114,-1
 532.51253121 266.123841097 l 1,115,-1
 532.127694245 262.99821303 l 2,116,117
 530.911171203 255.077590831 530.911171203 255.077590831 528.038883485 247.769502644 c 2,118,-1
 526.794070046 244.701005996 l 1,119,-1
 524.992494645 241.92384747 l 2,120,121
 521.23847427 236.524729454 521.23847427 236.524729454 516.928019518 231.86845709 c 2,122,-1
 515.108730074 229.934508471 l 1,123,-1
 513.035273379 228.3035036 l 2,124,125
 509.485262791 225.635608287 509.485262791 225.635608287 505.611153628 223.003851859 c 2,126,-1
 505.136455208 222.68224164 l 1,127,-1
 504.651656194 222.376607479 l 1,128,-1
 434.683423565 178.266199952 l 1,129,-1
 490.980630743 151.639142503 l 2,130,131
 499.198965147 147.516517431 499.198965147 147.516517431 504.942771687 143.692719129 c 2,132,-1
 506.407177894 142.68862808 l 1,133,-1
 507.766654055 141.537277494 l 2,134,135
 510.216457822 139.334349202 510.216457822 139.334349202 511.632880908 137.976138638 c 0,136,137
 517.556371979 131.658922585 517.556371979 131.658922585 521.748656407 125.056357376 c 2,138,-1
 523.14015044 122.784911577 l 1,139,-1
 524.16929483 120.326672348 l 2,140,141
 528.561289002 108.894082036 528.561289002 108.894082036 528.774034316 96.6451543725 c 2,142,-1
 528.782615622 94.2028055566 l 1,143,-1
 528.454527455 91.7845430145 l 2,144,145
 526.662530378 80.9235794857 526.662530378 80.9235794857 521.735285912 70.8486056105 c 2,146,-1
 520.767710366 68.9257393863 l 1,147,-1
 519.569180463 67.1359075288 l 2,148,149
 515.367429532 61.2821522407 515.367429532 61.2821522407 510.657215931 56.4534029887 c 0,150,151
 503.940228458 50.013226142 503.940228458 50.013226142 496.047245582 44.0781207511 c 2,152,-1
 495.483679026 43.6601906245 l 1,153,-1
 494.904317542 43.2656530008 l 2,154,155
 484.638765333 36.2294043084 484.638765333 36.2294043084 479.414204535 32.3099548137 c 0,156,157
 463.395374809 19.4770617093 463.395374809 19.4770617093 449.544191215 5.73245414095 c 0,158,159
 439.358451 -4.60007507864 439.358451 -4.60007507864 430.604496938 -14.7443813831 c 0,160,161
 409.931431735 -39.6080399651 409.931431735 -39.6080399651 394.607608206 -66.9897767962 c 1,0,-1
176.985132761 11.7151746288 m 0,162,-1
 111.014867239 -11.7151746288 l 1,163,164
 67.064085146 113.616965647 67.064085146 113.616965647 74.076623241 240.216839612 c 0,165,166
 84.3004474869 393.477491433 84.3004474869 393.477491433 163.31646528 498.795599978 c 0,167,-1
 163.547203695 499.098094286 l 2,168,169
 179.675676237 519.733793107 179.675676237 519.733793107 196.581130485 536.759365181 c 0,170,171
 230.473736711 570.191942706 230.473736711 570.191942706 269.46271589 592.779452509 c 2,172,-1
 269.637020765 592.87957135 l 1,173,174
 335.378594961 629.11638407 335.378594961 629.11638407 406.748390596 633.921168848 c 0,175,-1
 407.130742295 633.943552893 l 2,176,177
 485.687916905 637.633257547 485.687916905 637.633257547 556.76768071 605.535932452 c 2,178,-1
 556.950384021 605.452741625 l 1,179,180
 612.502027746 578.913402374 612.502027746 578.913402374 655.792040194 535.918058142 c 0,181,182
 666.960116338 524.596073684 666.960116338 524.596073684 676.580578158 513.349248059 c 0,183,-1
 676.779134607 513.113372161 l 1,184,185
 768.038415318 402.638342953 768.038415318 402.638342953 777.942823163 239.882951814 c 0,186,187
 784.428784194 110.849102647 784.428784194 110.849102647 738.790392866 -12.2513357054 c 1,188,-1
 673.185601354 12.1868918242 l 1,189,190
 713.917047262 122.693256414 713.917047262 122.693256414 708.057176837 236.117048186 c 0,191,192
 699.182215838 376.364451992 699.182215838 376.364451992 623.081337371 468.201228343 c 0,193,194
 614.453012761 478.188030984 614.453012761 478.188030984 606.294565511 486.420583459 c 0,195,196
 570.768202584 521.358984547 570.768202584 521.358984547 527.538647687 541.916119061 c 0,197,198
 471.217922048 566.982244616 471.217922048 566.982244616 411.060860011 564.066551712 c 0,199,200
 354.736544511 559.945457846 354.736544511 559.945457846 304.145607305 531.959713676 c 0,201,202
 272.281804377 513.239152346 272.281804377 513.239152346 246.078605168 487.261890498 c 0,203,204
 231.565953123 472.506190787 231.565953123 472.506190787 219.137420404 456.54543356 c 0,205,206
 152.463334657 366.930078283 152.463334657 366.930078283 143.923376759 235.783160388 c 0,207,208
 137.889144512 122.740509479 137.889144512 122.740509479 176.985132761 11.7151746288 c 0,162,-1
EndSplineSet
Layer: 2
SplineSet
174.594667294 10.9750279132 m 1,0,-1
 113.405332706 -10.9750279132 l 1,1,2
 69.3407761019 113.451788513 69.3407761019 113.451788513 76.5628500776 239.922227831 c 0,3,4
 86.1367635762 392.361944256 86.1367635762 392.361944256 165.3744473 497.371769204 c 0,5,6
 181.152197267 517.862999241 181.152197267 517.862999241 198.246299011 535.083563068 c 0,7,8
 232.116593488 568.480384407 232.116593488 568.480384407 270.837247723 590.684958106 c 0,9,10
 335.48652973 626.886056344 335.48652973 626.886056344 407.037575596 631.434760842 c 0,11,12
 484.741575025 635.618102972 484.741575025 635.618102972 555.837561584 603.211756763 c 0,13,14
 610.215772919 577.745703237 610.215772919 577.745703237 653.848582156 534.407154249 c 0,15,16
 665.160876326 522.93536606 665.160876326 522.93536606 674.754162632 511.637227044 c 0,17,18
 765.879845728 402.512625358 765.879845728 402.512625358 775.440815784 239.858853356 c 0,19,20
 782.317938121 111.727292563 782.317938121 111.727292563 736.429176208 -11.4272376164 c 1,21,-1
 675.548626016 11.3679526206 l 1,22,23
 716.788259441 122.674099813 716.788259441 122.674099813 710.559184216 236.141146644 c 0,24,25
 701.858405188 377.956207878 701.858405188 377.956207878 625.007419002 469.795955756 c 0,26,27
 616.301198439 479.952775425 616.301198439 479.952775425 607.886641379 488.445213471 c 0,28,29
 571.560288899 524.177281545 571.560288899 524.177281545 528.651064082 544.157370974 c 0,30,31
 486.540042728 563.129605363 486.540042728 563.129605363 442.655481863 566.312434405 c 1,32,33
 443.625416456 533.919831213 443.625416456 533.919831213 449.935854052 517.781935249 c 0,34,35
 455.934885629 504.211335725 455.934885629 504.211335725 465.443657828 494.357925608 c 0,36,37
 473.15355541 487.149285571 473.15355541 487.149285571 481.058982525 482.807817047 c 2,38,-1
 482.474269884 482.077398627 l 2,39,40
 489.233696701 478.417250388 489.233696701 478.417250388 492.355962638 476.389436137 c 0,41,42
 497.448156777 472.632093381 497.448156777 472.632093381 500.915662129 469.327524863 c 0,43,44
 505.131101381 464.747809924 505.131101381 464.747809924 507.838356242 460.851306643 c 0,45,46
 514.678125163 449.513686511 514.678125163 449.513686511 516.058805373 437.387777381 c 0,47,48
 516.798664598 424.899096819 516.798664598 424.899096819 512.797306772 413.738538405 c 0,49,50
 507.752042076 401.56466462 507.752042076 401.56466462 498.295922815 391.872792725 c 0,51,52
 494.599488032 388.348371598 494.599488032 388.348371598 491.40091562 385.691960087 c 0,53,54
 486.167735641 381.541355068 486.167735641 381.541355068 478.874616768 376.385209881 c 0,55,56
 475.962013828 374.315033116 475.962013828 374.315033116 474.990098523 373.620192629 c 2,57,-1
 435.800787969 345.352493212 l 1,58,-1
 490.077297015 319.29976887 l 2,59,60
 490.544378885 319.075569573 490.544378885 319.075569573 491.049627932 318.834083699 c 0,61,62
 501.128363304 313.781695961 501.128363304 313.781695961 506.010874521 310.575043874 c 0,63,64
 511.290841351 306.67426674 511.290841351 306.67426674 514.857044039 303.272532225 c 0,65,66
 522.627152226 294.769597878 522.627152226 294.769597878 526.457835942 285.901105833 c 0,67,68
 530.126455154 275.548317897 530.126455154 275.548317897 529.851101789 265.664552395 c 0,69,70
 528.865318425 254.607168451 528.865318425 254.607168451 524.237756189 245.553028991 c 0,71,72
 520.267515989 238.852360186 520.267515989 238.852360186 515.497962291 233.87598278 c 0,73,74
 513.634109675 232.120875793 513.634109675 232.120875793 512.731233767 231.295945061 c 0,75,76
 508.323616049 227.627049448 508.323616049 227.627049448 503.319395037 224.492564087 c 2,77,-1
 429.497759886 177.952837579 l 1,78,-1
 489.91058569 149.379203753 l 2,79,80
 499.716766596 144.405902487 499.716766596 144.405902487 504.855893773 140.670479 c 0,81,82
 508.38391898 137.771084488 508.38391898 137.771084488 510.685733024 135.575646251 c 0,83,84
 517.359781486 128.312832302 517.359781486 128.312832302 521.155396567 120.931655153 c 0,85,86
 527.035529519 107.569212579 527.035529519 107.569212579 526.16308048 93.8196643334 c 0,87,88
 524.655215382 80.7878809224 524.655215382 80.7878809224 518.34679123 69.8754159195 c 0,89,90
 513.843066545 62.9012595867 513.843066545 62.9012595867 508.534951046 57.4223763041 c 0,91,92
 502.028218665 51.1826658133 502.028218665 51.1826658133 493.522093683 45.3494779395 c 0,93,94
 492.454768822 44.6212695332 492.454768822 44.6212695332 491.417936726 43.9163003169 c 0,95,96
 481.862350738 37.3343774089 481.862350738 37.3343774089 477.982487485 34.3653074481 c 0,97,98
 461.633216169 21.3905632696 461.633216169 21.3905632696 447.737674359 7.60681430663 c 0,99,100
 437.461969015 -2.82717114244 437.461969015 -2.82717114244 428.860243501 -12.9362039761 c 0,101,102
 407.877573708 -38.1638765141 407.877573708 -38.1638765141 392.421350477 -65.7762213106 c 1,103,-1
 335.574701113 -34.2308939713 l 1,104,105
 354.275890199 -0.53018364928 354.275890199 -0.53018364928 379.139756499 28.9362039761 c 0,106,107
 390.446897744 42.1620874171 390.446897744 42.1620874171 401.775733582 53.5687550838 c 0,108,109
 419.51070122 71.0765872702 419.51070122 71.0765872702 438.017512515 85.6346925519 c 0,110,111
 444.217728379 90.3871853038 444.217728379 90.3871853038 451.712221835 95.528927823 c 1,112,-1
 388.08941431 125.620796247 l 2,113,114
 376.331225673 131.506012453 376.331225673 131.506012453 370.699504279 135.57805266 c 0,115,116
 366.952940213 138.625845692 366.952940213 138.625845692 364.492650698 140.973440086 c 0,117,118
 354.998545878 151.346523764 354.998545878 151.346523764 351.238158139 162.84283685 c 0,119,120
 345.783051792 183.83541247 345.783051792 183.83541247 356.269541851 201.965667922 c 0,121,122
 359.988268942 207.572942073 359.988268942 207.572942073 363.965676993 211.723232959 c 0,123,124
 366.244750589 213.861326333 366.244750589 213.861326333 367.616941573 215.066989986 c 0,125,126
 371.875981424 218.492920902 371.875981424 218.492920902 376.680604963 221.507435913 c 2,127,-1
 448.822619531 266.988271184 l 1,128,-1
 386.901877973 296.710227115 l 2,129,130
 376.97276904 301.853113701 376.97276904 301.853113701 372.056050481 305.556705514 c 0,131,132
 369.251848717 307.96066248 369.251848717 307.96066248 367.581854547 309.545034271 c 0,133,134
 358.558655343 319.485863246 358.558655343 319.485863246 355.185505661 330.601931873 c 0,135,136
 350.880849472 349.123721702 350.880849472 349.123721702 359.67201754 365.182560684 c 0,137,138
 363.29104422 370.914833961 363.29104422 370.914833961 367.437660761 375.232444061 c 0,139,140
 370.903682747 378.698466047 370.903682747 378.698466047 375.849094174 382.263854352 c 2,141,-1
 437.009901477 426.379807371 l 2,142,143
 438.503621718 427.457244922 438.503621718 427.457244922 441.2786894 429.420031555 c 0,144,145
 441.85236099 429.825790826 441.85236099 429.825790826 442.308748045 430.149338671 c 1,146,147
 429.620259916 438.447812878 429.620259916 438.447812878 419.48171705 448.395984831 c 0,148,149
 400.043913173 468.492044442 400.043913173 468.492044442 389.723537962 493.27171869 c 0,150,151
 379.120966427 520.154979998 379.120966427 520.154979998 377.719696657 562.122299429 c 1,152,153
 338.6605609 554.252440377 338.6605609 554.252440377 302.944810162 534.154086582 c 0,154,155
 270.844961081 515.528597945 270.844961081 515.528597945 244.208239788 489.121622291 c 0,156,157
 229.41181438 474.073843498 229.41181438 474.073843498 217.193906278 458.121123628 c 0,158,159
 149.476233938 367.905257014 149.476233938 367.905257014 141.437149922 236.077772169 c 0,160,161
 135.124776386 121.967504037 135.124776386 121.967504037 174.594667294 10.9750279132 c 1,0,-1
  Spiro
    174.595 10.975 v
    113.405 -10.975 v
    82.1624 113.963 o
    76.5629 239.922 o
    103.553 380.504 o
    165.374 497.372 o
    181.481 517.045 o
    198.246 535.084 o
    233.329 565.682 o
    270.837 590.685 o
    337.212 618.973 o
    407.038 631.435 o
    483.09 626.471 o
    555.838 603.212 o
    607.529 573.278 o
    653.849 534.407 o
    664.731 522.979 o
    674.754 511.637 o
    745.489 389.13 o
    775.441 239.859 o
    769.126 112.972 o
    736.429 -11.4272 v
    675.549 11.368 v
    704.921 123.214 o
    710.559 236.141 o
    684.821 365.462 o
    625.007 469.796 o
    616.374 479.537 o
    607.887 488.445 o
    569.915 520.239 o
    528.651 544.157 o
    486.097 559.182 o
    442.655 566.312 v
    444.961 537.984 o
    449.936 517.782 o
    456.812 505.141 o
    465.444 494.358 o
    473.202 487.866 o
    481.059 482.808 [
    482.474 482.077 ]
    488.324 478.825 o
    492.356 476.389 o
    497.042 472.745 o
    500.916 469.328 o
    504.754 464.919 o
    507.838 460.851 o
    513.313 449.317 o
    516.059 437.388 o
    515.613 425.231 o
    512.797 413.739 o
    506.649 402.185 o
    498.296 391.873 o
    494.724 388.565 o
    491.401 385.692 o
    485.653 381.29 o
    478.875 376.385 o
    476.447 374.659 o
    474.99 373.62 [
    435.801 345.352 v
    490.077 319.3 ]
    490.554 319.071 o
    491.05 318.834 o
    499.829 314.243 o
    506.011 310.575 o
    510.862 306.799 o
    514.857 303.273 o
    521.642 294.678 o
    526.458 285.901 o
    529.14 275.666 o
    529.851 265.665 o
    527.955 255.108 o
    524.238 245.553 o
    520.068 239.283 o
    515.498 233.876 o
    513.874 232.353 o
    512.731 231.296 o
    508.174 227.761 o
    503.319 224.493 [
    429.498 177.953 v
    489.911 149.379 ]
    498.55 144.715 o
    504.856 140.67 o
    508.077 137.947 o
    510.686 135.576 o
    516.64 128.283 o
    521.155 120.932 o
    525.347 107.472 o
    526.163 93.8197 o
    523.455 81.3177 o
    518.347 69.8754 o
    513.642 63.2751 o
    508.535 57.4224 o
    501.528 51.2843 o
    493.522 45.3495 o
    492.462 44.6271 o
    491.418 43.9163 o
    483.281 38.2376 o
    477.982 34.3653 o
    462.247 21.1883 o
    447.738 7.60681 o
    437.88 -2.74593 o
    428.86 -12.9362 o
    409.259 -38.76 o
    392.421 -65.7762 v
    335.575 -34.2309 v
    355.817 -1.58876 o
    379.14 28.9362 o
    390.452 41.7073 o
    401.776 53.5688 o
    419.704 70.3392 o
    438.018 85.6347 o
    444.541 90.4845 o
    451.712 95.5289 v
    388.089 125.621 ]
    377.863 131.053 o
    370.7 135.578 o
    367.275 138.451 o
    364.493 140.973 o
    356.432 151.627 o
    351.238 162.843 o
    349.768 183.12 o
    356.27 201.966 o
    360.053 207.209 o
    363.966 211.723 o
    366.018 213.628 o
    367.617 215.067 o
    372.012 218.39 o
    376.681 221.507 [
    448.823 266.988 v
    386.902 296.71 ]
    378.226 301.493 o
    372.056 305.557 o
    369.535 307.756 o
    367.582 309.545 o
    359.971 319.78 o
    355.186 330.602 o
    354.155 348.508 o
    359.672 365.183 o
    363.423 370.561 o
    367.438 375.232 o
    371.274 378.723 o
    375.849 382.264 [
    437.01 426.38 ]
    438.824 427.679 o
    441.279 429.42 o
    441.823 429.805 o
    442.309 430.149 v
    430.258 438.86 o
    419.482 448.396 o
    402.323 469.663 o
    389.724 493.272 o
    381.421 523.926 o
    377.72 562.122 v
    339.496 551.195 o
    302.945 534.154 o
    272.211 513.583 o
    244.208 489.122 o
    230.056 473.848 o
    217.194 458.121 o
    164.396 357.502 o
    141.437 236.078 o
    146.57 122.747 o
    0 0 z
  EndSpiro
EndSplineSet
EndChar

StartChar: uni1709
Encoding: 13 5897 14
Width: 1070
GlyphClass: 2
InSpiro: 1
Flags: W
AnchorPoint: "Anchor-1" 590 0 basechar 0
AnchorPoint: "Anchor-0" 488 693 basechar 0
LayerCount: 3
Back
SplineSet
705 404 m 0,0,1
 755.074251183 344.50898045 755.074251183 344.50898045 793 278 c 0,2,3
 809.34331003 249.062626723 809.34331003 249.062626723 823 220 c 1024
  Spiro
    705 404 {
    793 278 o
    823 220 o
    0 0 z
  EndSpiro
57 406 m 1,5,-1
 179 406 l 2,6,7
 182.819056997 406 182.819056997 406 190.457516472 406.085579901 c 0,8,9
 203.607937874 406.232914813 203.607937874 406.232914813 210.181422246 406.088211406 c 0,10,11
 229.486011607 405.274846682 229.486011607 405.274846682 240.649982267 400.540922094 c 0,12,13
 248.36364721 396.614267677 248.36364721 396.614267677 253.444672405 391.788286203 c 0,14,15
 259.00625429 385.493329843 259.00625429 385.493329843 261.818710823 378.770534679 c 0,16,17
 264.315110523 371.236790895 264.315110523 371.236790895 264.512986054 363.499762186 c 0,18,19
 264.390492078 357.13832739 264.390492078 357.13832739 263 348 c 2,20,-1
 251 270 l 2,21,22
 240.493750936 200.999364879 240.493750936 200.999364879 239.367190907 176.930101916 c 0,23,24
 237.478468783 121.739791953 237.478468783 121.739791953 257 86 c 0,25,26
 271.615127282 61.1142088948 271.615127282 61.1142088948 293.729414662 46.5436422083 c 0,27,28
 317.453938996 31.9751688263 317.453938996 31.9751688263 345 30 c 0,29,30
 385.155220758 28.0927399886 385.155220758 28.0927399886 427 52 c 0,31,32
 483.898954522 85.5025881842 483.898954522 85.5025881842 551.727137657 171.887246013 c 0,33,34
 594.89807711 227.182378265 594.89807711 227.182378265 649 316 c 2,35,-1
 761 500 l 2,36,37
 794.482207702 554.023045655 794.482207702 554.023045655 823.718990299 575.257807187 c 0,38,39
 866.507578347 605.711153442 866.507578347 605.711153442 917 600 c 0,40,41
 952.284351807 595.467908566 952.284351807 595.467908566 980.398558712 575.134200555 c 0,42,43
 1008.7350763 553.481484724 1008.7350763 553.481484724 1023 522 c 1024
  Spiro
    57 406 {
    179 406 ]
    263 348 [
    251 270 ]
    257 86 o
    345 30 o
    427 52 o
    649 316 [
    761 500 ]
    917 600 o
    1023 522 [
    0 0 z
  EndSpiro
EndSplineSet
Fore
SplineSet
678.19970598 381.48621569 m 1,0,-1
 731.75662349 426.565667349 l 1,1,2
 784.123911898 364.011364437 784.123911898 364.011364437 823.484546191 295.209525618 c 0,3,4
 840.658192628 264.634531627 840.658192628 264.634531627 854.689334289 234.874075408 c 1,5,-1
 791.323690427 205.09820686 l 1,6,7
 777.891451057 233.483100873 777.891451057 233.483100873 762.515453809 260.790474382 c 0,8,9
 725.732709493 324.846403677 725.732709493 324.846403677 678.19970598 381.48621569 c 1,0,-1
57 371.006863131 m 1,10,-1
 57 440.993136869 l 1,11,-1
 179 440.993136869 l 2,12,13
 183.5993661 441.00767563 183.5993661 441.00767563 190.062480642 441.076503891 c 0,14,15
 203.908406803 441.207882522 203.908406803 441.207882522 210.957434501 441.072808148 c 0,16,-1
 211.665664873 441.050095428 l 2,17,18
 237.660208386 439.602960278 237.660208386 439.602960278 254.338963364 432.759080535 c 2,19,-1
 255.45595381 432.285436462 l 1,20,-1
 256.536596284 431.73533355 l 2,21,22
 269.065472833 424.966301406 269.065472833 424.966301406 277.537392502 417.176384508 c 2,23,-1
 278.666401159 416.10404681 l 1,24,-1
 279.694039102 414.94090004 l 2,25,26
 289.112075057 403.705608535 289.112075057 403.705608535 294.102091638 392.304662474 c 2,27,-1
 294.614483677 391.079858933 l 1,28,-1
 295.032540999 389.818227332 l 2,29,30
 299.027654272 376.836708597 299.027654272 376.836708597 299.494597055 364.401256961 c 2,31,-1
 299.514804222 363.611146974 l 1,32,-1
 299.499587739 362.820914948 l 2,33,34
 299.180396955 353.436274593 299.180396955 353.436274593 297.583733003 342.643716643 c 2,35,-1
 285.591960564 264.697472402 l 2,36,37
 275.527491266 198.299724254 275.527491266 198.299724254 274.331952981 175.494801997 c 0,38,39
 273.220409904 130.353121005 273.220409904 130.353121005 287.471370777 103.244505943 c 0,40,41
 294.025007509 92.763826157 294.025007509 92.763826157 301.093768832 85.4822812144 c 0,42,43
 306.991740731 79.9244760402 306.991740731 79.9244760402 312.512696935 76.0910627096 c 0,44,45
 329.238803661 66.5256900122 329.238803661 66.5256900122 347.098610814 64.9341996278 c 0,46,47
 377.379554362 64.3140944219 377.379554362 64.3140944219 409.443745512 82.2871004372 c 0,48,49
 437.868811031 99.5169942558 437.868811031 99.5169942558 469.113465166 130.563195182 c 0,50,51
 495.971028394 157.670805179 495.971028394 157.670805179 524.11471766 193.399385234 c 0,52,53
 566.495763998 247.955465296 566.495763998 247.955465296 619.089226764 334.187774687 c 2,54,-1
 731.089226764 518.187774687 l 1,55,-1
 731.235479934 518.425885731 l 2,56,57
 757.847591085 560.890893396 757.847591085 560.890893396 782.243449893 585.523116632 c 0,58,59
 793.263636169 596.267659619 793.263636169 596.267659619 803.175589033 603.599859836 c 0,60,-1
 803.447763624 603.795549401 l 1,61,62
 857.703898588 641.527346224 857.703898588 641.527346224 920.960879816 634.769905999 c 0,63,-1
 921.488996305 634.706125703 l 2,64,65
 965.908231311 628.477978782 965.908231311 628.477978782 1000.88551458 603.517163548 c 2,66,-1
 1001.25762479 603.248033409 l 1,67,-1
 1001.62280602 602.968988347 l 2,68,69
 1011.80593237 594.973157996 1011.80593237 594.973157996 1019.89558704 587.003790337 c 0,70,71
 1042.05810093 564.234890084 1042.05810093 564.234890084 1054.89343212 536.430678699 c 1,72,-1
 991.122287245 507.534629995 l 1,73,74
 982.840739241 524.772794055 982.840739241 524.772794055 970.398112354 537.506315654 c 0,75,76
 964.777776962 542.887677135 964.777776962 542.887677135 959.540658905 547.018365067 c 0,77,78
 938.141902666 561.700969785 938.141902666 561.700969785 912.774831487 565.259695224 c 0,79,80
 875.404754787 568.617208207 875.404754787 568.617208207 844.132715681 546.821349707 c 0,81,82
 837.649470471 541.807723804 837.649470471 541.807723804 831.740924576 536.025641949 c 0,83,84
 812.315044198 516.094474028 812.315044198 516.094474028 790.836974302 481.690984207 c 2,85,-1
 678.910773236 297.812225313 l 2,86,87
 623.517338661 207.093823913 623.517338661 207.093823913 579.339557654 150.375106792 c 0,88,89
 547.573140564 110.150872202 547.573140564 110.150872202 518.610939849 81.0657204994 c 0,90,91
 479.8387869 42.6999441809 479.8387869 42.6999441809 444.751651198 21.8281156913 c 0,92,-1
 444.358981191 21.6003524133 l 2,93,94
 393.19837943 -6.99824831564 393.19837943 -6.99824831564 343.327236996 -4.95343550797 c 0,95,-1
 342.478663078 -4.90286794674 l 2,96,97
 306.039611496 -1.79953799407 306.039611496 -1.79953799407 275.425758868 16.7037162137 c 0,98,-1
 274.490763717 17.2986060392 l 2,99,100
 261.771570471 25.9860512272 261.771570471 25.9860512272 251.596294149 35.9848065313 c 0,101,102
 237.271708515 50.7587114169 237.271708515 50.7587114169 226.808233092 68.2821599851 c 2,103,-1
 226.534952985 68.7474855027 l 1,104,-1
 226.276294076 69.2210352196 l 2,105,106
 202.422821846 114.088900584 202.422821846 114.088900584 204.394682403 178.136048882 c 0,107,-1
 204.412608607 178.578543257 l 2,108,109
 205.834210832 205.711345929 205.834210832 205.711345929 216.408039436 275.302527598 c 2,110,-1
 228.416266997 353.356283357 l 2,111,112
 229.266093601 359.390626941 229.266093601 359.390626941 229.498267747 363.325279881 c 0,113,114
 229.21914625 365.266831722 229.21914625 365.266831722 229.057655153 366.159901314 c 2,115,-1
 228.371015545 367.186206776 l 2,116,117
 226.692709955 368.253705717 226.692709955 368.253705717 226.087257209 368.636162765 c 0,118,119
 218.874539787 370.529091697 218.874539787 370.529091697 209.044903954 371.111133779 c 0,120,121
 202.0243184 371.20879977 202.0243184 371.20879977 190.852552302 371.094655911 c 0,122,123
 182.934849249 371.013504987 182.934849249 371.013504987 179 371.006863131 c 2,124,-1
 57 371.006863131 l 1,10,-1
EndSplineSet
Layer: 2
SplineSet
327 0 m 0,0,1
 259 0 259 0 226.5 42 c 128,-1,2
 194 84 194 84 194 151 c 0,3,4
 194 186 194 186 202.5 231 c 128,-1,5
 211 276 211 276 218 311 c 0,6,7
 222 328 222 328 223 343 c 128,-1,8
 224 358 224 358 224 374 c 1,9,-1
 58 374 l 1,10,-1
 58 442 l 1,11,-1
 199 442 l 2,12,13
 256 442 256 442 278.5 422.5 c 128,-1,14
 301 403 301 403 301 364 c 0,15,16
 301 343 301 343 296.5 320 c 128,-1,17
 292 297 292 297 288 280 c 0,18,19
 279 241 279 241 275 211.5 c 128,-1,20
 271 182 271 182 271 144 c 0,21,22
 271 107 271 107 287.5 87.5 c 128,-1,23
 304 68 304 68 332 68 c 0,24,25
 387 68 387 68 435.5 106.5 c 128,-1,26
 484 145 484 145 532 208 c 0,27,28
 557 241 557 241 583.5 280 c 128,-1,29
 610 319 610 319 643 371 c 128,-1,30
 676 423 676 423 719 492 c 0,31,32
 765 566 765 566 807.5 600 c 128,-1,33
 850 634 850 634 910 634 c 0,34,35
 962 634 962 634 999.5 607 c 128,-1,36
 1037 580 1037 580 1056 533 c 1,37,-1
 993 506 l 1,38,39
 980 539 980 539 958 552.5 c 128,-1,40
 936 566 936 566 906 566 c 0,41,42
 872 566 872 566 843 542 c 128,-1,43
 814 518 814 518 780 461 c 2,44,-1
 746 404 l 1,45,46
 764 382 764 382 784 352 c 128,-1,47
 804 322 804 322 822 291 c 128,-1,48
 840 260 840 260 852 235 c 1,49,-1
 789 202 l 1,50,51
 773 233 773 233 751 271.5 c 128,-1,52
 729 310 729 310 706 340 c 1,53,54
 681 300 681 300 651 253.5 c 128,-1,55
 621 207 621 207 586.5 162.5 c 128,-1,56
 552 118 552 118 512 81 c 128,-1,57
 472 44 472 44 426 22 c 128,-1,58
 380 0 380 0 327 0 c 0,0,1
EndSplineSet
EndChar

StartChar: uni170A
Encoding: 14 5898 15
Width: 847
GlyphClass: 2
Flags: W
AnchorPoint: "Anchor-1" 516 -79 basechar 0
AnchorPoint: "Anchor-0" 484 693 basechar 0
LayerCount: 3
Back
SplineSet
102 261 m 0,0,1
 135.628268255 400.840284487 135.628268255 400.840284487 235 502 c 0,2,3
 284.94133751 551.95213732 284.94133751 551.95213732 342.901832744 577.402502805 c 128,-1,4
 406.549654684 604.53926961 406.549654684 604.53926961 472 601 c 0,5,6
 536.800574643 596.762266852 536.800574643 596.762266852 592.357894087 564.413832109 c 128,-1,7
 646.918341673 531.673990933 646.918341673 531.673990933 684 478 c 0,8,9
 724.037810652 418.712186729 724.037810652 418.712186729 738.644627953 343.398764965 c 128,-1,10
 752.820933636 267.202013318 752.820933636 267.202013318 739 198 c 0,11,12
 729.58304416 153.310805313 729.58304416 153.310805313 709.887065917 119.254990881 c 128,-1,13
 686.568524884 80.590762771 686.568524884 80.590762771 653 58 c 0,14,15
 599.277817088 23.3691477101 599.277817088 23.3691477101 538 34 c 0,16,17
 470.161280305 46.2642315505 470.161280305 46.2642315505 433.142365037 105.161788673 c 0,18,19
 430.169362317 110.032500089 430.169362317 110.032500089 428 114 c 1,20,21
 378.828716733 70.2804638552 378.828716733 70.2804638552 324 48 c 0,22,23
 289.076551864 34.2913995342 289.076551864 34.2913995342 257.601287877 31.5295983194 c 128,-1,24
 220.941596908 28.940694027 220.941596908 28.940694027 190 40 c 0,25,26
 158.463639156 52.110630157 158.463639156 52.110630157 135.960873173 75.8046466969 c 128,-1,27
 113.992878191 100.055542924 113.992878191 100.055542924 103.141376274 131.824230143 c 0,28,29
 84.9720867463 187.957469243 84.9720867463 187.957469243 102 261 c 0,0,1
  Spiro
    102 261 o
    235 502 o
    472 601 o
    684 478 o
    739 198 o
    653 58 o
    538 34 o
    428 114 v
    324 48 o
    190 40 o
    0 0 z
  EndSpiro
EndSplineSet
Fore
SplineSet
67.980858908 269.225441358 m 1,0,1
 104.546365142 418.700691576 104.546365142 418.700691576 210.248534443 526.746008832 c 0,2,3
 265.495991051 581.386312189 265.495991051 581.386312189 328.807593982 609.4457739 c 2,4,-1
 328.9783536 609.520754189 l 1,5,6
 400.802223003 639.655584434 400.802223003 639.655584434 473.903752376 635.941704524 c 0,7,-1
 474.300618215 635.917998135 l 2,8,9
 547.699108665 630.644558807 547.699108665 630.644558807 609.963299175 594.671347358 c 0,10,-1
 610.357800631 594.438147672 l 2,11,12
 645.385561855 573.061529394 645.385561855 573.061529394 673.453003154 545.21147068 c 0,13,14
 695.292578364 523.040044957 695.292578364 523.040044957 712.817236416 497.872656978 c 0,15,-1
 713.02546343 497.567813969 l 2,16,17
 756.94930576 431.739132561 756.94930576 431.739132561 772.994236606 350.101956599 c 0,18,-1
 773.044189391 349.839040013 l 2,19,20
 788.173400002 266.533938672 788.173400002 266.533938672 773.311948054 191.10547384 c 0,21,-1
 773.237488199 190.742632892 l 2,22,23
 762.280371437 140.283950737 762.280371437 140.283950737 740.195536075 101.737394112 c 2,24,-1
 740.036018785 101.461576828 l 2,25,26
 723.546713679 74.6938273563 723.546713679 74.6938273563 703.964494732 54.8889246735 c 0,27,28
 688.730974543 40.0000077807 688.730974543 40.0000077807 672.521435927 28.9432711383 c 2,29,-1
 672.23623744 28.7513398162 l 1,30,31
 606.205565608 -12.952266965 606.205565608 -12.952266965 531.980370724 -0.47517673047 c 0,32,-1
 531.735608396 -0.431821202755 l 2,33,34
 472.12122179 11.0080485392 472.12122179 11.0080485392 431.766723002 50.8597671881 c 0,35,36
 425.605066403 57.1785927929 425.605066403 57.1785927929 420.679119381 62.9424168719 c 1,37,38
 380.083251944 33.1654702278 380.083251944 33.1654702278 337.204860135 15.5808481128 c 0,39,-1
 336.81941319 15.4268883279 l 2,40,41
 296.750176326 -0.00442408058924 296.750176326 -0.00442408058924 260.682405195 -3.32864442002 c 2,42,-1
 260.383774219 -3.35484783463 l 1,43,44
 215.672283969 -6.1136532577 215.672283969 -6.1136532577 178.184220768 7.05065214142 c 0,45,-1
 177.420594125 7.3337005238 l 2,46,47
 140.54041478 22.0163411574 140.54041478 22.0163411574 113.842717465 48.3564971847 c 0,48,49
 112.185926886 50.0132877635 112.185926886 50.0132877635 110.571732485 51.7130241178 c 2,50,-1
 110.284025237 52.0159620007 l 1,51,52
 83.2122442533 82.5937388148 83.2122442533 82.5937388148 70.0296202045 120.473162861 c 2,53,-1
 69.9387781087 120.739110759 l 1,54,55
 49.0668780255 187.072114431 49.0668780255 187.072114431 67.9246509288 268.9880731 c 0,56,-1
 67.980858908 269.225441358 l 1,0,1
356.825570241 545.28429777 m 0,57,58
 304.56552027 521.769988162 304.56552027 521.769988162 259.781908062 477.284436966 c 0,59,60
 167.556040716 382.520107119 167.556040716 382.520107119 136.047903581 252.894103622 c 0,61,62
 121.710326149 189.355947599 121.710326149 189.355947599 136.344088884 142.909875241 c 0,63,64
 145.387742891 117.984259969 145.387742891 117.984259969 161.635849002 99.5964219633 c 0,65,66
 162.481545907 98.7125625725 162.481545907 98.7125625725 163.340192148 97.8539718678 c 0,67,68
 180.401019682 81.510021419 180.401019682 81.510021419 202.196657087 72.8139746138 c 0,69,70
 226.612755545 64.6598982088 226.612755545 64.6598982088 254.81711614 66.4141891532 c 0,71,72
 281.648670873 69.1493021851 281.648670873 69.1493021851 310.98733203 80.4973347006 c 0,73,74
 360.603598079 101.163038789 360.603598079 101.163038789 404.764144185 140.175588578 c 2,75,-1
 437.615015875 169.384199312 l 1,76,-1
 458.716395118 130.792342334 l 2,77,78
 460.880359651 126.95714175 460.880359651 126.95714175 462.910009157 123.584302613 c 0,79,80
 471.719837192 110.098135803 471.719837192 110.098135803 481.264197685 100.357241871 c 0,81,82
 507.149211346 75.4836605418 507.149211346 75.4836605418 544.141948389 68.454007133 c 0,83,84
 592.162276912 60.9500695464 592.162276912 60.9500695464 633.760669631 87.2470859336 c 0,85,86
 645.199620542 95.2828128421 645.199620542 95.2828128421 654.467020049 104.386399357 c 0,87,88
 668.680516479 119.053803614 668.680516479 119.053803614 679.737159267 137.047307085 c 0,89,90
 696.492205555 166.868954592 696.492205555 166.868954592 704.724263628 205.076124086 c 0,91,92
 716.858149872 268.06992302 716.858149872 268.06992302 704.269555206 336.826748049 c 0,93,94
 690.54714611 405.298522074 690.54714611 405.298522074 655.07783682 458.279118446 c 0,95,96
 640.384225867 479.122246833 640.384225867 479.122246833 623.955528471 495.713995997 c 0,97,98
 601.093463923 518.139961658 601.093463923 518.139961658 574.554765518 534.271322603 c 0,99,100
 525.61630795 562.151699667 525.61630795 562.151699667 469.89806773 566.06893323 c 0,101,102
 412.302232612 568.659072423 412.302232612 568.659072423 356.825570241 545.28429777 c 0,57,58
EndSplineSet
Layer: 2
SplineSet
70.4107975575 268.637909833 m 2,0,1
 106.815344608 417.443480572 106.815344608 417.443480572 212.016496269 524.978436772 c 0,2,3
 329.001410062 640.789495204 329.001410062 640.789495204 473.767770064 633.445868486 c 2,4,-1
 474.136288342 633.423855411 l 2,5,6
 547.053516625 628.175701044 547.053516625 628.175701044 608.389897972 592.207290685 c 0,7,8
 642.93549745 571.420087357 642.93549745 571.420087357 671.038898127 543.536856231 c 0,9,10
 693.836936771 520.395019795 693.836936771 520.395019795 712.338460119 493.498447454 c 0,11,12
 754.619260429 430.7560384 754.619260429 430.7560384 770.348978848 349.058854699 c 0,13,14
 785.652408344 266.655120857 785.652408344 266.655120857 773.036338264 203.72186592 c 0,15,16
 752.950602601 108.144466026 752.950602601 108.144466026 700.899859095 55.5688917786 c 0,17,18
 686.492248398 41.5062375547 686.492248398 41.5062375547 671.127047646 31.0187517712 c 2,19,-1
 670.594006887 30.6676316923 l 2,20,21
 606.175940705 -10.8580922043 606.175940705 -10.8580922043 529.010364021 2.82499124717 c 0,22,23
 472.663717707 13.484241189 472.663717707 13.484241189 434.075145691 51.5719402526 c 0,24,25
 427.292442366 58.3546435783 427.292442366 58.3546435783 421.026828386 66.1134186707 c 1,26,27
 382.95417847 37.0997898697 382.95417847 37.0997898697 346.075649714 22.1264683698 c 0,28,29
 283.93363448 -2.38085456568 283.93363448 -2.38085456568 232.738046505 -0.808351105965 c 0,30,31
 163.905788532 2.41081968949 163.905788532 2.41081968949 115.918826545 49.8075955578 c 0,32,33
 114.132274908 51.5941471952 114.132274908 51.5941471952 112.385242534 53.4338543021 c 2,34,-1
 112.118085804 53.7151537647 l 2,35,36
 39.7124096668 135.133168562 39.7124096668 135.133168562 70.3586044339 268.41749645 c 2,37,-1
 70.4107975575 268.637909833 l 2,0,1
470.047544165 568.564057888 m 0,38,39
 353.352029684 573.823974087 353.352029684 573.823974087 258.016212068 479.054275101 c 0,40,41
 165.285031581 383.775962441 165.285031581 383.775962441 133.615911079 253.473107889 c 0,42,43
 110.959065206 152.84177633 110.959065206 152.84177633 159.803207658 97.8954392369 c 0,44,45
 160.838671076 96.8115076634 160.838671076 96.8115076634 161.880767322 95.769536335 c 0,46,47
 192.811755514 65.9976016175 192.811755514 65.9976016175 235.056211368 64.1378579516 c 0,48,49
 273.544712324 63.2834399991 273.544712324 63.2834399991 321.829618883 82.4453950196 c 0,50,51
 362.07502012 99.1125388945 362.07502012 99.1125388945 406.423848172 138.305903679 c 2,52,-1
 436.928229028 165.428185076 l 1,53,-1
 456.522366896 129.592889309 l 2,54,55
 467.316307092 110.506059688 467.316307092 110.506059688 480.037086469 97.5338810297 c 0,56,57
 505.2054089 73.3691492492 505.2054089 73.3691492492 540.428733372 66.8083880134 c 0,58,59
 592.64798753 58.3010410345 592.64798753 58.3010410345 635.135185499 85.1581788074 c 0,60,61
 646.137184862 92.894112321 646.137184862 92.894112321 654.937918318 101.530832556 c 0,62,63
 693.703054691 141.391289597 693.703054691 141.391289597 709.367639531 216.790952711 c 0,64,65
 719.38593739 268.173744772 719.38593739 268.173744772 706.509765439 336.855345348 c 0,66,67
 692.915071328 406.245577419 692.915071328 406.245577419 658.617692206 456.887730208 c 0,68,69
 642.730922178 479.750901141 642.730922178 479.750901141 625.076957349 497.574915454 c 0,70,71
 601.82158281 520.388456241 601.82158281 520.388456241 575.329018344 536.2289671 c 0,72,73
 526.354602386 564.607453913 526.354602386 564.607453913 470.047544165 568.564057888 c 0,38,39
EndSplineSet
EndChar

StartChar: uni170B
Encoding: 15 5899 16
Width: 1030
GlyphClass: 2
InSpiro: 1
Flags: W
AnchorPoint: "Anchor-1" 577 0 basechar 0
AnchorPoint: "Anchor-0" 488 693 basechar 0
LayerCount: 3
Back
SplineSet
238 342 m 0,0,1
 325.091989013 377.043601988 325.091989013 377.043601988 418 374 c 0,2,3
 518.083352824 370.030298468 518.083352824 370.030298468 606 324 c 1024
  Spiro
    238 342 {
    418 374 o
    606 324 o
    0 0 z
  EndSpiro
62 464 m 1,5,-1
 164 464 l 2,6,7
 193.782526148 463.95551121 193.782526148 463.95551121 197.489053129 463.798587972 c 0,8,9
 217.872634061 462.407944428 217.872634061 462.407944428 229.837848537 456.294031028 c 0,10,11
 237.758530359 451.49365554 237.758530359 451.49365554 242.751721489 445.800838939 c 0,12,13
 248.056448004 438.612424344 248.056448004 438.612424344 250.303052555 430.998556843 c 0,14,15
 252.117853976 422.747885731 252.117853976 422.747885731 251.394509493 414.380952856 c 0,16,17
 250.557125605 407.861237717 250.557125605 407.861237717 248 398 c 0,18,19
 225.782044967 311.831149461 225.782044967 311.831149461 220.114880312 240.258870943 c 0,20,21
 216.785434618 194.924185475 216.785434618 194.924185475 220.782217187 160.196408717 c 0,22,23
 226.548224441 114.9902006 226.548224441 114.9902006 244 84 c 0,24,25
 259.396692986 58.3182201639 259.396692986 58.3182201639 280.468091755 43.8839906745 c 0,26,27
 304.761575114 28.4244110707 304.761575114 28.4244110707 332 28 c 0,28,29
 360.00610903 28.4276690559 360.00610903 28.4276690559 387.011623522 43.7885922787 c 0,30,31
 408.429319865 56.5763249581 408.429319865 56.5763249581 432 80 c 0,32,33
 491.245650159 139.611951816 491.245650159 139.611951816 546 226 c 2,34,-1
 718 498 l 2,35,36
 752.350006531 551.401017432 752.350006531 551.401017432 781.232917412 572.461520942 c 0,37,38
 824.558909619 602.581934036 824.558909619 602.581934036 874 598 c 0,39,40
 909.516906593 593.850490382 909.516906593 593.850490382 937.682553583 573.511038808 c 0,41,42
 966.123944529 551.788440028 966.123944529 551.788440028 980 520 c 1024
  Spiro
    62 464 {
    164 464 ]
    248 398 [
    244 84 o
    332 28 o
    432 80 o
    546 226 [
    718 498 ]
    874 598 o
    980 520 [
    0 0 z
  EndSpiro
EndSplineSet
Fore
SplineSet
251.094249623 309.536120729 m 0,0,-1
 224.905750377 374.463879271 l 1,1,2
 319.382403698 412.031380511 319.382403698 412.031380511 419.154465207 408.97423266 c 0,3,-1
 419.397410148 408.965435342 l 2,4,5
 527.765943445 404.216827539 527.765943445 404.216827539 622.24008541 355.011918412 c 1,6,-1
 589.75991459 292.988081588 l 1,7,8
 508.243742551 335.151879395 508.243742551 335.151879395 416.724110381 339.029727818 c 0,9,10
 330.826705715 341.397377012 330.826705715 341.397377012 251.094249623 309.536120729 c 0,0,-1
62 429.006863131 m 1,11,-1
 62 498.993136869 l 1,12,-1
 164.052673086 498.993097528 l 2,13,14
 194.373666594 498.932410878 194.373666594 498.932410878 198.980460077 498.760169408 c 0,15,-1
 199.888638265 498.709974129 l 2,16,17
 227.739967857 496.408031843 227.739967857 496.408031843 245.771634123 487.464384395 c 2,18,-1
 246.892128076 486.891841128 l 1,19,-1
 247.96838325 486.239570392 l 2,20,21
 258.370294139 479.586275543 258.370294139 479.586275543 265.573239037 472.604933388 c 0,22,23
 267.828515093 470.24008634 267.828515093 470.24008634 269.085025931 468.858101068 c 2,24,-1
 270.061285177 467.745052378 l 1,25,-1
 270.93744158 466.55777619 l 2,26,27
 279.841661182 453.845663059 279.841661182 453.845663059 283.861671894 440.945095486 c 2,28,-1
 284.210377761 439.76331195 l 1,29,-1
 284.475373875 438.558554362 l 2,30,31
 287.249891067 424.573310053 287.249891067 424.573310053 286.256672684 411.344847024 c 0,32,-1
 286.100661984 409.892165111 l 2,33,34
 284.745403134 400.428046354 284.745403134 400.428046354 281.880736135 389.219028537 c 0,35,36
 260.492225076 305.648833988 260.492225076 305.648833988 255.013340626 237.676800061 c 0,37,38
 252.073330436 195.53481264 252.073330436 195.53481264 255.519776103 164.439754246 c 0,39,40
 260.733418196 126.309449873 260.733418196 126.309449873 274.277340351 101.579528034 c 0,41,42
 281.771005114 89.6883021646 281.771005114 89.6883021646 289.560731858 81.6856253197 c 0,43,44
 294.983854084 76.5601196991 294.983854084 76.5601196991 299.750570451 73.1087330182 c 0,45,46
 315.854200592 63.6292075451 315.854200592 63.6292075451 332.008663038 62.9994257568 c 0,47,48
 351.153512956 64.0053680805 351.153512956 64.0053680805 369.392441722 74.0409804134 c 0,49,50
 387.623356994 85.4334144659 387.623356994 85.4334144659 407.173634253 104.670869356 c 0,51,52
 464.058360163 162.339290966 464.058360163 162.339290966 516.402048476 244.691949607 c 2,53,-1
 688.402048476 516.691949607 l 1,54,-1
 688.5467545 516.918837504 l 2,55,56
 715.303564288 558.085924172 715.303564288 558.085924172 739.206280538 582.209332095 c 0,57,58
 750.536104213 593.267478627 750.536104213 593.267478627 760.636687519 600.765128366 c 0,59,-1
 761.276431299 601.220660907 l 1,60,61
 815.630244498 638.168732513 815.630244498 638.168732513 877.252651125 632.842768798 c 2,62,-1
 877.671578482 632.803944866 l 1,63,64
 922.95056632 626.982935247 922.95056632 626.982935247 958.14877249 601.908988304 c 2,65,-1
 958.528222285 601.634973624 l 1,66,-1
 958.900478053 601.350656915 l 2,67,68
 968.920544407 593.482831488 968.920544407 593.482831488 976.863786049 585.660005814 c 0,69,70
 999.401982521 562.496105519 999.401982521 562.496105519 1012.07351759 534.025152058 c 0,71,-1
 947.926482406 505.974847942 l 1,72,73
 939.843262623 523.385673747 939.843262623 523.385673747 927.366311366 536.162531131 c 0,74,75
 921.900039802 541.389857391 921.900039802 541.389857391 916.837858254 545.385168696 c 0,76,77
 895.605378784 559.905773547 895.605378784 559.905773547 870.329037302 563.195245177 c 0,78,79
 833.572784177 565.701886842 833.572784177 565.701886842 801.526002858 543.935706699 c 0,80,81
 794.866821135 538.75193464 794.866821135 538.75193464 788.703755221 532.711857412 c 0,82,83
 769.337374551 512.875280762 769.337374551 512.875280762 747.524964867 479.192629633 c 2,84,-1
 575.597951524 207.308050393 l 2,85,86
 518.335864419 117.432263309 518.335864419 117.432263309 456.826365747 55.3291306444 c 0,87,88
 429.554041672 28.6232354781 429.554041672 28.6232354781 404.945689923 13.7248671965 c 0,89,-1
 404.313136307 13.3561837495 l 2,90,91
 369.00158092 -6.15374676233 369.00158092 -6.15374676233 332.538393789 -6.98902634217 c 2,92,-1
 331.994521546 -6.99733157759 l 1,93,-1
 331.450652147 -6.98885736533 l 2,94,95
 293.937259369 -5.84548734894 293.937259369 -5.84548734894 261.692146202 14.3393226812 c 2,96,-1
 261.195403283 14.6554336556 l 2,97,98
 249.360930225 23.0486427309 249.360930225 23.0486427309 240.063257175 32.1881506367 c 0,99,100
 225.286684073 47.4043682494 225.286684073 47.4043682494 213.968495003 66.0120800056 c 0,101,-1
 213.49419247 66.8281744648 l 1,102,103
 192.781294189 104.479588215 192.781294189 104.479588215 186.072154233 155.738172931 c 0,104,-1
 186.020110141 156.16717633 l 2,105,106
 181.772604908 194.872419827 181.772604908 194.872419827 185.216419998 242.840941825 c 0,107,108
 191.38285371 318.289159229 191.38285371 318.289159229 214.119263865 406.780971463 c 0,109,110
 215.847047735 413.693313342 215.847047735 413.693313342 216.581901275 418.116851858 c 0,111,112
 216.537052501 420.588264777 216.537052501 420.588264777 216.400640449 421.990161043 c 2,113,-1
 215.545622009 423.6021867 l 2,114,115
 213.74986589 424.969987774 213.74986589 424.969987774 212.996650294 425.529326417 c 0,116,117
 205.804946217 427.93617854 205.804946217 427.93617854 195.71535319 428.842587135 c 0,118,119
 186.01791782 428.967040481 186.01791782 428.967040481 163.947326914 429.006902472 c 2,120,-1
 62 429.006863131 l 1,11,-1
EndSplineSet
Layer: 2
SplineSet
324 0 m 0,0,1
 263 0 263 0 226.5 53.5 c 128,-1,2
 190 107 190 107 190 198 c 0,3,4
 190 234 190 234 192.5 261 c 128,-1,5
 195 288 195 288 199 317 c 0,6,7
 205 358 205 358 211 383.5 c 128,-1,8
 217 409 217 409 217 434 c 1,9,-1
 58 434 l 1,10,-1
 58 502 l 1,11,-1
 186 502 l 2,12,13
 239 502 239 502 266.5 490.5 c 128,-1,14
 294 479 294 479 294 429 c 0,15,16
 294 416 294 416 293 406 c 128,-1,17
 292 396 292 396 290 389 c 1,18,19
 322 399 322 399 359.5 403 c 128,-1,20
 397 407 397 407 421 407 c 0,21,22
 473 407 473 407 516 396 c 128,-1,23
 559 385 559 385 594 368 c 1,24,25
 604 382 604 382 620.5 408 c 128,-1,26
 637 434 637 434 673 492 c 0,27,28
 719 566 719 566 761.5 600 c 128,-1,29
 804 634 804 634 864 634 c 0,30,31
 916 634 916 634 953.5 607 c 128,-1,32
 991 580 991 580 1010 533 c 1,33,-1
 947 506 l 1,34,35
 934 540 934 540 911.5 553 c 128,-1,36
 889 566 889 566 860 566 c 0,37,38
 826 566 826 566 797.5 542 c 128,-1,39
 769 518 769 518 734 461 c 0,40,41
 684 377 684 377 653 325.5 c 128,-1,42
 622 274 622 274 602.5 242 c 128,-1,43
 583 210 583 210 565 184 c 0,44,45
 532 135 532 135 494 93 c 128,-1,46
 456 51 456 51 414 25.5 c 128,-1,47
 372 0 372 0 324 0 c 0,0,1
  Spiro
    324 0 o
    269.125 13.375 o
    226.5 53.5 o
    199.125 116.375 o
    190 198 o
    190.625 231.75 o
    192.5 261 o
    195.375 288.5 o
    199 317 o
    205 354.125 o
    211 383.5 o
    215.5 408.875 o
    217 434 v
    58 434 v
    58 502 v
    186 502 ]
    232.625 499.125 o
    266.5 490.5 o
    287.125 469.375 o
    294 429 o
    293.75 416.75 o
    293 406 o
    291.75 396.75 o
    290 389 v
    323.375 397.5 o
    359.5 403 o
    393.625 406 o
    421 407 o
    470.75 404.25 o
    516 396 o
    557 383.5 o
    594 368 v
    605.625 385 o
    620.5 408 o
    641.875 442 o
    673 492 o
    718.125 556 o
    761.5 600 o
    808.375 625.5 o
    864 634 o
    912.375 627.25 o
    953.5 607 o
    986.375 575 o
    1010 533 v
    947 506 v
    931.625 534.75 o
    911.5 553 o
    887.375 562.75 o
    860 566 o
    827.375 560 o
    797.5 542 o
    767.375 509.75 o
    734 461 o
    688.75 385.125 o
    653 325.5 o
    624.875 278.875 o
    602.5 242 o
    583.375 211.5 o
    565 184 o
    530.75 136.75 o
    494 93 o
    455 55.125 o
    414 25.5 o
    370.5 6.375 o
    0 0 z
  EndSpiro
324 68 m 0,48,49
 362 68 362 68 400.5 100 c 128,-1,50
 439 132 439 132 478.5 186.5 c 128,-1,51
 518 241 518 241 559 310 c 1,52,53
 528 324 528 324 490.5 331.5 c 128,-1,54
 453 339 453 339 418 339 c 0,55,56
 381 339 381 339 345 332.5 c 128,-1,57
 309 326 309 326 277 315 c 1,58,59
 272 290 272 290 269.5 259 c 128,-1,60
 267 228 267 228 267 196 c 0,61,62
 267 137 267 137 284.5 102.5 c 128,-1,63
 302 68 302 68 324 68 c 0,48,49
  Spiro
    324 68 o
    362.125 76 o
    400.5 100 o
    439.25 137.625 o
    478.5 186.5 o
    518.375 244.625 o
    559 310 v
    526.375 322.375 o
    490.5 331.5 o
    453.625 337.125 o
    418 339 o
    381.25 337.375 o
    345 332.5 o
    310 324.875 o
    277 315 v
    272.625 288.5 o
    269.5 259 o
    267.625 227.75 o
    267 196 o
    271.375 143.125 o
    284.5 102.5 o
    303.125 76.625 o
    0 0 z
  EndSpiro
EndSplineSet
EndChar

StartChar: uni170C
Encoding: 16 5900 17
Width: 1029
GlyphClass: 2
InSpiro: 1
Flags: W
AnchorPoint: "Anchor-1" 583 0 basechar 0
AnchorPoint: "Anchor-0" 520 693 basechar 0
LayerCount: 3
Back
SplineSet
57 406 m 1,0,-1
 179 406 l 2,1,2
 182.819056997 406 182.819056997 406 190.457516472 406.085579901 c 0,3,4
 203.607937874 406.232914813 203.607937874 406.232914813 210.181422246 406.088211406 c 0,5,6
 229.486011607 405.274846682 229.486011607 405.274846682 240.649982267 400.540922094 c 0,7,8
 248.36364721 396.614267677 248.36364721 396.614267677 253.444672405 391.788286203 c 0,9,10
 259.00625429 385.493329843 259.00625429 385.493329843 261.818710823 378.770534679 c 0,11,12
 264.315110523 371.236790895 264.315110523 371.236790895 264.512986054 363.499762186 c 0,13,14
 264.390492078 357.13832739 264.390492078 357.13832739 263 348 c 2,15,-1
 251 270 l 2,16,17
 240.493750936 200.999364879 240.493750936 200.999364879 239.367190907 176.930101916 c 0,18,19
 237.478468783 121.739791953 237.478468783 121.739791953 257 86 c 0,20,21
 271.615127282 61.1142088948 271.615127282 61.1142088948 293.729414662 46.5436422083 c 0,22,23
 317.453938996 31.9751688263 317.453938996 31.9751688263 345 30 c 0,24,25
 385.155220758 28.0927399886 385.155220758 28.0927399886 427 52 c 0,26,27
 483.898954522 85.5025881842 483.898954522 85.5025881842 551.727137657 171.887246013 c 0,28,29
 594.89807711 227.182378265 594.89807711 227.182378265 649 316 c 2,30,-1
 761 500 l 2,31,32
 794.473215605 554.013572356 794.473215605 554.013572356 823.719470415 575.345334251 c 0,33,34
 867.567185771 605.811047643 867.567185771 605.811047643 917 600 c 0,35,36
 964.724583968 593.121387976 964.724583968 593.121387976 992.618938827 557.892120378 c 0,37,38
 1021.30914331 519.432663809 1021.30914331 519.432663809 1011 474 c 0,39,40
 1004.84537608 450.411956823 1004.84537608 450.411956823 989.547770186 431.821170473 c 0,41,42
 973.660922241 413.708196402 973.660922241 413.708196402 952.143398536 402.674910674 c 0,43,44
 910.18965167 382.360664476 910.18965167 382.360664476 859 390 c 0,45,46
 831.576507692 394.549647039 831.576507692 394.549647039 807 406 c 1024
  Spiro
    57 406 {
    179 406 ]
    263 348 [
    251 270 ]
    257 86 o
    345 30 o
    427 52 o
    649 316 [
    761 500 ]
    917 600 o
    1011 474 o
    859 390 o
    807 406 v
    0 0 z
  EndSpiro
EndSplineSet
Fore
SplineSet
57 371.006863131 m 1,0,-1
 57 440.993136869 l 1,1,-1
 179 440.993136869 l 2,2,3
 183.5993661 441.00767563 183.5993661 441.00767563 190.062480642 441.076503891 c 0,4,5
 203.908406803 441.207882522 203.908406803 441.207882522 210.957434501 441.072808148 c 0,6,-1
 211.665664873 441.050095428 l 2,7,8
 237.660208386 439.602960278 237.660208386 439.602960278 254.338963364 432.759080535 c 2,9,-1
 255.45595381 432.285436462 l 1,10,-1
 256.536596284 431.73533355 l 2,11,12
 269.065472833 424.966301406 269.065472833 424.966301406 277.537392502 417.176384508 c 2,13,-1
 278.666401159 416.10404681 l 1,14,-1
 279.694039102 414.94090004 l 2,15,16
 289.112075057 403.705608535 289.112075057 403.705608535 294.102091638 392.304662474 c 2,17,-1
 294.614483677 391.079858933 l 1,18,-1
 295.032540999 389.818227332 l 2,19,20
 299.027654272 376.836708597 299.027654272 376.836708597 299.494597055 364.401256961 c 2,21,-1
 299.514804222 363.611146974 l 1,22,-1
 299.499587739 362.820914948 l 2,23,24
 299.180396955 353.436274593 299.180396955 353.436274593 297.583733003 342.643716643 c 2,25,-1
 285.591960564 264.697472402 l 2,26,27
 275.527491266 198.299724254 275.527491266 198.299724254 274.331952981 175.494801997 c 0,28,29
 273.220409904 130.353121005 273.220409904 130.353121005 287.471370777 103.244505943 c 0,30,31
 294.025007509 92.763826157 294.025007509 92.763826157 301.093768832 85.4822812144 c 0,32,33
 306.991740731 79.9244760402 306.991740731 79.9244760402 312.512696935 76.0910627096 c 0,34,35
 329.238803661 66.5256900122 329.238803661 66.5256900122 347.098610814 64.9341996278 c 0,36,37
 377.379554362 64.3140944219 377.379554362 64.3140944219 409.443745512 82.2871004372 c 0,38,39
 437.868811031 99.5169942558 437.868811031 99.5169942558 469.113465166 130.563195182 c 0,40,41
 495.971028394 157.670805179 495.971028394 157.670805179 524.11471766 193.399385234 c 0,42,43
 566.495763998 247.955465296 566.495763998 247.955465296 619.089226764 334.187774687 c 2,44,-1
 731.089226764 518.187774687 l 1,45,-1
 731.234716054 518.424653165 l 2,46,47
 757.914423617 561.002698614 757.914423617 561.002698614 782.374490404 585.699182958 c 0,48,49
 793.300384206 596.352766086 793.300384206 596.352766086 803.119265111 603.646042502 c 0,50,-1
 803.770637526 604.109793251 l 1,51,52
 859.038334876 641.648293828 859.038334876 641.648293828 921.114284518 634.752213654 c 2,53,-1
 921.570868744 634.698540143 l 1,54,55
 974.148789954 626.435930944 974.148789954 626.435930944 1008.41498368 592.710195222 c 0,56,57
 1014.94312317 585.971041372 1014.94312317 585.971041372 1020.08352179 579.592287235 c 2,58,-1
 1020.39612096 579.19748907 l 1,59,-1
 1020.69693469 578.794245784 l 2,60,61
 1058.40083961 526.869322124 1058.40083961 526.869322124 1045.12170396 466.213457134 c 0,62,-1
 1044.85538334 465.121285133 l 2,63,64
 1036.19631118 433.809680597 1036.19631118 433.809680597 1016.59826754 409.608023165 c 2,65,-1
 1016.24662486 409.180680876 l 2,66,67
 1011.82572747 404.267313917 1011.82572747 404.267313917 1008.55885947 400.944895572 c 0,68,69
 990.074329632 382.994340888 990.074329632 382.994340888 968.120867412 371.526917286 c 2,70,-1
 967.76763073 371.345792298 l 1,71,-1
 967.410305654 371.172773435 l 2,72,73
 915.137174586 346.529389753 915.137174586 346.529389753 853.800377669 355.392526555 c 0,74,-1
 853.235684757 355.481498482 l 2,75,76
 820.678424981 361.164745389 820.678424981 361.164745389 792.201418167 374.275397399 c 1,77,-1
 821.798581833 437.724602601 l 1,78,79
 842.527924264 428.380538025 842.527924264 428.380538025 864.482246532 424.565528949 c 0,80,81
 904.908573722 419.146982502 904.908573722 419.146982502 936.514611729 434.0025711 c 0,82,83
 949.510821578 441.144258806 949.510821578 441.144258806 959.061384787 450.442370255 c 0,84,85
 961.443100245 452.92623598 961.443100245 452.92623598 962.843749054 454.458273115 c 0,86,87
 972.796039925 467.469487842 972.796039925 467.469487842 977.00223955 482.340186846 c 0,88,89
 982.597282794 511.970152186 982.597282794 511.970152186 964.845852108 536.579301526 c 0,90,91
 961.513424761 540.527510428 961.513424761 540.527510428 958.917509002 543.212720539 c 0,92,93
 940.136951714 560.889263213 940.136951714 560.889263213 912.431229852 565.300280713 c 0,94,95
 876.13608213 568.615501257 876.13608213 568.615501257 844.011525733 546.818638551 c 0,96,97
 837.639048324 541.846234957 837.639048324 541.846234957 831.871965088 536.201708275 c 0,98,99
 812.382991579 516.207423709 812.382991579 516.207423709 790.837360547 481.691618753 c 2,100,-1
 678.910773236 297.812225313 l 2,101,102
 623.517338661 207.093823913 623.517338661 207.093823913 579.339557654 150.375106792 c 0,103,104
 547.573140564 110.150872202 547.573140564 110.150872202 518.610939849 81.0657204994 c 0,105,106
 479.8387869 42.6999441809 479.8387869 42.6999441809 444.751651198 21.8281156913 c 0,107,-1
 444.358981191 21.6003524133 l 2,108,109
 393.19837943 -6.99824831564 393.19837943 -6.99824831564 343.327236996 -4.95343550797 c 0,110,-1
 342.478663078 -4.90286794674 l 2,111,112
 306.039611496 -1.79953799407 306.039611496 -1.79953799407 275.425758868 16.7037162137 c 0,113,-1
 274.490763717 17.2986060392 l 2,114,115
 261.771570471 25.9860512272 261.771570471 25.9860512272 251.596294149 35.9848065313 c 0,116,117
 237.271708515 50.7587114169 237.271708515 50.7587114169 226.808233092 68.2821599851 c 2,118,-1
 226.534952985 68.7474855027 l 1,119,-1
 226.276294076 69.2210352196 l 2,120,121
 202.422821846 114.088900584 202.422821846 114.088900584 204.394682403 178.136048882 c 0,122,-1
 204.412608607 178.578543257 l 2,123,124
 205.834210832 205.711345929 205.834210832 205.711345929 216.408039436 275.302527598 c 2,125,-1
 228.416266997 353.356283357 l 2,126,127
 229.266093601 359.390626941 229.266093601 359.390626941 229.498267747 363.325279881 c 0,128,129
 229.21914625 365.266831722 229.21914625 365.266831722 229.057655153 366.159901314 c 2,130,-1
 228.371015545 367.186206776 l 2,131,132
 226.692709955 368.253705717 226.692709955 368.253705717 226.087257209 368.636162765 c 0,133,134
 218.874539787 370.529091697 218.874539787 370.529091697 209.044903954 371.111133779 c 0,135,136
 202.0243184 371.20879977 202.0243184 371.20879977 190.852552302 371.094655911 c 0,137,138
 182.934849249 371.013504987 182.934849249 371.013504987 179 371.006863131 c 2,139,-1
 57 371.006863131 l 1,0,-1
EndSplineSet
Layer: 2
SplineSet
331 0 m 0,0,1
 281 0 281 0 250.5 20 c 128,-1,2
 220 40 220 40 207 74.5 c 128,-1,3
 194 109 194 109 194 151 c 0,4,5
 194 186 194 186 202.5 231 c 128,-1,6
 211 276 211 276 218 311 c 0,7,8
 222 328 222 328 223 343 c 128,-1,9
 224 358 224 358 224 374 c 1,10,-1
 58 374 l 1,11,-1
 58 442 l 1,12,-1
 199 442 l 2,13,14
 256 442 256 442 278.5 422.5 c 128,-1,15
 301 403 301 403 301 364 c 0,16,17
 301 343 301 343 296.5 320 c 128,-1,18
 292 297 292 297 288 280 c 0,19,20
 279 241 279 241 275 211.5 c 128,-1,21
 271 182 271 182 271 144 c 0,22,23
 271 113 271 113 284.5 90.5 c 128,-1,24
 298 68 298 68 335 68 c 0,25,26
 373 68 373 68 411 91 c 128,-1,27
 449 114 449 114 485 152.5 c 128,-1,28
 521 191 521 191 554.5 238.5 c 128,-1,29
 588 286 588 286 619 336.5 c 128,-1,30
 650 387 650 387 677 433 c 0,31,32
 714 495 714 495 743.5 540 c 128,-1,33
 773 585 773 585 810 609.5 c 128,-1,34
 847 634 847 634 906 634 c 0,35,36
 947 634 947 634 978 616.5 c 128,-1,37
 1009 599 1009 599 1026.5 569.5 c 128,-1,38
 1044 540 1044 540 1044 504 c 0,39,40
 1044 472 1044 472 1029 438 c 128,-1,41
 1014 404 1014 404 981.5 381.5 c 128,-1,42
 949 359 949 359 895 359 c 0,43,44
 864 359 864 359 837.5 365 c 128,-1,45
 811 371 811 371 792 380 c 1,46,-1
 820 442 l 1,47,48
 832 436 832 436 850.5 431.5 c 128,-1,49
 869 427 869 427 892 427 c 0,50,51
 928 427 928 427 950 449.5 c 128,-1,52
 972 472 972 472 972 504 c 0,53,54
 972 527 972 527 954.5 546.5 c 128,-1,55
 937 566 937 566 902 566 c 0,56,57
 869 566 869 566 843 545.5 c 128,-1,58
 817 525 817 525 793.5 488 c 128,-1,59
 770 451 770 451 741 401 c 0,60,61
 695 320 695 320 647.5 248 c 128,-1,62
 600 176 600 176 549.5 120 c 128,-1,63
 499 64 499 64 445 32 c 128,-1,64
 391 0 391 0 331 0 c 0,0,1
EndSplineSet
EndChar

StartChar: uni170E
Encoding: 18 5902 18
Width: 913
GlyphClass: 2
Flags: W
AnchorPoint: "Anchor-1" 507 -49 basechar 0
AnchorPoint: "Anchor-0" 488 693 basechar 0
LayerCount: 3
Back
SplineSet
50 532 m 4,0,1
 116.044487621 461.370657145 116.044487621 461.370657145 216.391115729 456.22362197 c 0,2,3
 219.696584946 456.074899266 219.696584946 456.074899266 222 456 c 0,4,5
 309.794873545 454.017334933 309.794873545 454.017334933 435.871904822 519.548544515 c 0
 548.340559432 578.110176611 548.340559432 578.110176611 596.763037153 592.872183685 c 0,7,8
 621.486260902 600.265916793 621.486260902 600.265916793 644 604 c 0,9,10
 759.580149438 622.789835676 759.580149438 622.789835676 852.215194798 561.368607365 c 0,11,12
 856.645412384 558.381316836 856.645412384 558.381316836 860 556 c 1,13,14
 793.117574173 598.393827228 793.117574173 598.393827228 714 604 c 0,15,16
 601.111700948 610.967055771 601.111700948 610.967055771 512 552 c 0,17,18
 470.911874407 523.871724553 470.911874407 523.871724553 449.592391424 488.81423904 c 0
 424.47639599 445.33377234 424.47639599 445.33377234 432 403 c 0,20,21
 441.09446973 354.760036438 441.09446973 354.760036438 485.002191628 331.867091072 c 0,22,23
 488.480972604 330.133044405 488.480972604 330.133044405 491 329 c 0,24,25
 499.370723315 325.2628357 499.370723315 325.2628357 500.409865869 324.73092109 c 0
 505.590813844 321.446939869 505.590813844 321.446939869 508.539227904 318.432769373 c 0
 511.982709415 313.785704914 511.982709415 313.785704914 513.397849219 309.413418265 c 0
 514.407660552 303.923148214 514.407660552 303.923148214 513.64918344 299.170695665 c 0,29,30
 510.987027223 289.672156559 510.987027223 289.672156559 502.827406173 281.97326472 c 0
 497.146258499 277.14277761 497.146258499 277.14277761 486 270 c 2,32,-1
 458 252 l 2,33,34
 447.245465711 244.714783207 447.245465711 244.714783207 443.051796222 240.367518543 c 0
 436.364382804 231.928390912 436.364382804 231.928390912 435.526714117 223.331088687 c 0
 435.816235076 213.341656605 435.816235076 213.341656605 442.025291778 206.017860005 c 0
 447.692810071 200.605239599 447.692810071 200.605239599 458 196 c 2,38,-1
 508 174 l 2,39,40
 516.219719692 170.181711081 516.219719692 170.181711081 519.838660122 167.885166801 c 0
 525.894685337 163.157353507 525.894685337 163.157353507 529.193627378 158.504352106 c 0
 532.649809447 152.1549791 532.649809447 152.1549791 533.359508282 145.96946049 c 0
 533.442892326 138.951491712 533.442892326 138.951491712 531.24177237 132.912161705 c 0,44,45
 526.116237832 121.999759754 526.116237832 121.999759754 514.177101535 112.840128492 c 0
 509.829405879 109.605967751 509.829405879 109.605967751 500.717614709 103.733015767 c 0,47,48
 494.550913252 99.7233622577 494.550913252 99.7233622577 492 98 c 0,49,50
 467.206697673 80.7179265139 467.206697673 80.7179265139 447 60 c 0,51,52
 423.848317284 35.6447094483 423.848317284 35.6447094483 407 8 c 1024
  Spiro
    50 532 {
    222 456 o
    644 604 o
    860 556 v
    714 604 o
    512 552 o
    432 403 c
    491 329 ]
    486 270 [
    458 252 ]
    458 196 [
    508 174 ]
    492 98 [
    447 60 o
    407 8 v
    0 0 z
  EndSpiro
EndSplineSet
Fore
SplineSet
24.4222560858 508.108512489 m 1,0,-1
 75.5777439142 555.891487511 l 1,1,2
 78.2109729544 553.075457841 78.2109729544 553.075457841 80.890325883 550.396485737 c 0,3,4
 136.733247631 495.713032229 136.733247631 495.713032229 217.975882688 491.181126853 c 0,5,6
 221.166416702 491.045918722 221.166416702 491.045918722 222.969822761 490.980307959 c 0,7,8
 302.528310853 489.92695437 302.528310853 489.92695437 419.701316941 550.596749627 c 0,9,10
 535.017044601 610.498303238 535.017044601 610.498303238 586.693614612 626.394298801 c 0,11,12
 613.977300631 634.426196487 613.977300631 634.426196487 638.348246842 638.536988268 c 0,13,14
 767.819621133 658.854667332 767.819621133 658.854667332 871.762916813 590.407628959 c 0,15,16
 876.88096125 586.926679172 876.88096125 586.926679172 880.236357298 584.562527097 c 1,17,-1
 841.276548305 526.421992581 l 1,18,19
 781.240164415 563.86610026 781.240164415 563.86610026 711.667430695 569.083701668 c 0,20,21
 610.410645321 574.653868683 610.410645321 574.653868683 531.525534887 522.944571216 c 0,22,23
 514.117901669 510.740876579 514.117901669 510.740876579 501.516456575 498.310038998 c 0,24,25
 488.286932578 484.688979166 488.286932578 484.688979166 479.712677159 470.969864171 c 0,26,27
 461.661838797 438.343593391 461.661838797 438.343593391 466.418576856 409.340920565 c 0,28,29
 471.001217397 388.446631808 471.001217397 388.446631808 483.323738303 375.70228025 c 0,30,31
 491.310585027 368.287444342 491.310585027 368.287444342 500.922820143 363.046178449 c 0,32,33
 503.776074663 361.659349053 503.776074663 361.659349053 505.289722532 360.956716277 c 0,34,35
 514.938738609 356.601859394 514.938738609 356.601859394 516.36580643 355.889943825 c 2,36,-1
 517.785655859 355.163153595 l 1,37,-1
 519.133342767 354.308912534 l 2,38,39
 527.772882958 348.492766618 527.772882958 348.492766618 533.087899995 343.38377498 c 0,40,41
 533.326412148 343.145262827 533.326412148 343.145262827 533.564393877 342.902013995 c 2,42,-1
 535.254536876 341.174176907 l 1,43,-1
 536.684079601 339.244973231 l 2,44,45
 543.514153598 329.395819097 543.514153598 329.395819097 546.687210977 320.230485239 c 2,46,-1
 547.394281671 318.045884292 l 1,47,-1
 547.81051116 315.782875132 l 2,48,49
 549.654352472 303.871086558 549.654352472 303.871086558 548.202367448 293.619485338 c 2,50,-1
 547.884023058 291.624808659 l 1,51,-1
 547.339856396 289.683229014 l 2,52,53
 541.732370906 271.743471127 541.732370906 271.743471127 528.58460157 258.203895651 c 0,54,55
 527.719261296 257.338555377 527.719261296 257.338555377 526.834921173 256.50450569 c 2,56,-1
 526.169750003 255.8768931 l 1,57,-1
 525.475032225 255.286198145 l 2,58,59
 517.071155189 248.386302383 517.071155189 248.386302383 504.910788884 240.541578821 c 2,60,-1
 480.03439672 224.54961243 l 1,61,-1
 522.118277378 206.032704941 l 1,62,-1
 522.76289151 205.741206345 l 2,63,64
 533.393993931 200.651823756 533.393993931 200.651823756 538.577477488 197.453428957 c 2,65,-1
 540.009705093 196.544551296 l 1,66,-1
 541.349815017 195.498355269 l 2,67,68
 546.446425429 191.323363472 546.446425429 191.323363472 549.909013776 187.9699942 c 0,69,70
 554.67505389 182.902246995 554.67505389 182.902246995 557.767909704 178.72413945 c 2,71,-1
 558.958507459 177.044857744 l 1,72,-1
 559.941390864 175.239196689 l 2,73,74
 566.482609666 162.376533556 566.482609666 162.376533556 568.123016902 149.986495966 c 2,75,-1
 568.328705788 148.193774365 l 1,76,-1
 568.350156505 146.388387446 l 2,77,78
 568.156632003 132.535305346 568.156632003 132.535305346 564.117448513 120.892272117 c 2,79,-1
 563.58319305 119.426406959 l 1,80,-1
 562.920591732 118.015710796 l 2,81,82
 556.25274456 104.781147923 556.25274456 104.781147923 545.956221997 94.2199166539 c 0,83,84
 540.551332148 89.0495527909 540.551332148 89.0495527909 535.454996246 85.0464163508 c 0,85,-1
 535.041300294 84.7338798587 l 2,86,87
 528.768181344 80.189356089 528.768181344 80.189356089 519.779781906 74.3724648679 c 0,88,89
 514.329050834 70.8170842215 514.329050834 70.8170842215 511.774759001 69.1140137922 c 0,90,91
 490.87955169 54.2546790075 490.87955169 54.2546790075 474.342694965 37.8777981954 c 0,92,93
 473.274327837 36.809431659 473.274327837 36.809431659 472.220463707 35.7307969947 c 0,94,95
 451.547976073 13.5748985646 451.547976073 13.5748985646 436.883854102 -10.2319539319 c 1,96,-1
 377.099285825 26.2042899327 l 1,97,98
 396.445250043 57.4301146905 396.445250043 57.4301146905 421.621881382 84.1032228977 c 0,99,-1
 421.938427804 84.4319719326 l 2,100,101
 423.38157466 85.9116303609 423.38157466 85.9116303609 424.845220282 87.3752728784 c 0,102,103
 446.882206561 109.08653439 446.882206561 109.08653439 472.008054507 126.734455813 c 0,104,-1
 472.426766052 127.021802508 l 2,105,106
 476.301304102 129.606519995 476.301304102 129.606519995 481.655447512 133.093566666 c 0,107,108
 489.276600687 138.048155312 489.276600687 138.048155312 493.109387994 140.796060426 c 2,109,-1
 494.304340298 141.758343883 l 1,110,-1
 443.881722622 163.967295059 l 2,111,112
 427.646260041 171.670172053 427.646260041 171.670172053 417.86219146 180.696792636 c 2,113,-1
 416.509376257 181.988764676 l 1,114,-1
 415.305502688 183.408775086 l 2,115,116
 401.554621098 200.65418621 401.554621098 200.65418621 400.548376859 222.309583593 c 2,117,-1
 400.483891241 224.534551003 l 1,118,-1
 400.699664466 226.749111069 l 2,119,120
 403.125349985 245.920355339 403.125349985 245.920355339 415.595690589 262.078387579 c 2,121,-1
 416.659265101 263.42055689 l 1,122,-1
 417.8542428 264.659301225 l 1,123,-1
 418.67043662 265.490145367 l 2,124,125
 426.365564923 272.80798314 426.365564923 272.80798314 438.390730989 280.997424887 c 2,126,-1
 438.737265249 281.232170264 l 1,127,-1
 467.089211116 299.458421179 l 1,128,-1
 469.03021591 300.715326181 l 1,129,130
 448.447027937 311.858616706 448.447027937 311.858616706 433.82626362 326.204805567 c 0,131,132
 405.717954756 355.240071911 405.717954756 355.240071911 397.615905278 396.477141923 c 2,133,-1
 397.581902557 396.657503187 l 2,134,135
 392.012350661 430.516138692 392.012350661 430.516138692 401.214316713 464.017193349 c 1,136,137
 299.332160482 419.513906755 299.332160482 419.513906755 221.203914636 421.015850849 c 0,138,-1
 220.854077462 421.025488524 l 2,139,140
 217.610731601 421.144106162 217.610731601 421.144106162 214.80634877 421.266117087 c 0,141,142
 105.230616141 427.647029644 105.230616141 427.647029644 31.3928512 500.899011054 c 0,143,144
 27.858072503 504.433789751 27.858072503 504.433789751 24.4222560858 508.108512489 c 1,0,-1
EndSplineSet
Layer: 2
SplineSet
26.2492377939 509.815047311 m 1,0,-1
 73.7507622061 554.184952689 l 2,1,2
 76.4321417523 551.378304948 76.4321417523 551.378304948 78.1858849688 549.598844437 c 0,3,4
 137.499727189 491.363818645 137.499727189 491.363818645 222.930623356 488.480398974 c 0,5,6
 302.281251357 486.769613151 302.281251357 486.769613151 420.856358932 548.379020691 c 0,7,8
 427.364882301 551.771326412 427.364882301 551.771326412 437.536933328 557.101796576 c 0,9,10
 551.267251109 616.701462816 551.267251109 616.701462816 614.512559327 631.297117349 c 0,11,12
 627.216254091 634.161193976 627.216254091 634.161193976 638.751943496 636.070060534 c 0,13,14
 765.70798265 656.709271726 765.70798265 656.709271726 868.401144592 589.63121885 c 0,15,16
 874.223172343 585.768397601 874.223172343 585.768397601 878.915321643 582.433583242 c 1,17,-1
 842.437954278 528.647055244 l 1,18,19
 782.563754517 566.535583551 782.563754517 566.535583551 711.799004935 571.580440579 c 0,20,21
 609.980919311 577.808614363 609.980919311 577.808614363 530.014594173 524.94341525 c 0,22,23
 512.578146577 513.024690757 512.578146577 513.024690757 499.745565781 500.381848425 c 0,24,25
 486.182496892 486.394079487 486.182496892 486.394079487 477.52137981 472.182420149 c 0,26,27
 458.680074624 439.352752067 458.680074624 439.352752067 463.928087956 409.056939643 c 0,28,29
 468.490287604 388.358495196 468.490287604 388.358495196 483.321650184 373.019934838 c 0,30,31
 493.185873182 363.757656894 493.185873182 363.757656894 504.004775392 358.79065555 c 0,32,33
 505.480975006 358.159844505 505.480975006 358.159844505 506.042029296 357.920735623 c 0,34,35
 512.837060817 354.909457975 512.837060817 354.909457975 515.964594914 353.274119955 c 0,36,37
 524.603513214 348.133728722 524.603513214 348.133728722 530.464049264 342.539029177 c 0,38,39
 532.196118883 340.705644389 532.196118883 340.705644389 532.962844197 339.875804736 c 0,40,41
 541.44368909 329.446006617 541.44368909 329.446006617 544.805661636 317.769534312 c 0,42,43
 547.76880358 304.894154005 547.76880358 304.894154005 545.480567308 292.62163492 c 0,44,45
 541.261165934 274.66988418 541.261165934 274.66988418 527.645418394 260.730755367 c 0,46,47
 525.5982461 258.771893545 525.5982461 258.771893545 524.506580928 257.759350933 c 0,48,49
 516.959004886 251.204174358 516.959004886 251.204174358 505.116247668 243.64375448 c 0,50,51
 504.315151314 243.130626157 504.315151314 243.130626157 503.56001825 242.645751762 c 2,52,-1
 475.56001825 224.645751762 l 2,53,54
 475.154938248 224.38534319 475.154938248 224.38534319 474.769389075 224.134448152 c 1,55,-1
 521.109828994 203.744654588 l 2,56,57
 532.205712406 198.600225638 532.205712406 198.600225638 537.984364015 194.853850413 c 0,58,59
 543.904323378 190.567575483 543.904323378 190.567575483 548.095423604 186.543693542 c 0,60,61
 553.2713673 180.976541059 553.2713673 180.976541059 556.651415178 175.902248629 c 0,62,63
 564.447354993 162.673708748 564.447354993 162.673708748 565.763752124 148.38702097 c 0,64,65
 566.416423979 133.834590554 566.416423979 133.834590554 561.391874581 120.765827115 c 0,66,67
 555.548665951 107.347414828 555.548665951 107.347414828 545.033970147 96.580338115 c 0,68,69
 539.361946418 91.150902829 539.361946418 91.150902829 533.551000382 86.7414690461 c 0,70,71
 527.402610892 82.2578671357 527.402610892 82.2578671357 518.310004813 76.3996053037 c 0,72,73
 512.603957348 72.6902812169 512.603957348 72.6902812169 510.334649541 71.1596366477 c 0,74,75
 490.087962147 57.0185228848 490.087962147 57.0185228848 473.448278806 40.5457757607 c 0,76,77
 471.898727947 38.9962249024 471.898727947 38.9962249024 470.375232766 37.4200482119 c 0,78,79
 449.791232238 15.7211784376 449.791232238 15.7211784376 434.823341915 -8.80781822666 c 1,80,-1
 379.162277075 24.7839891322 l 1,81,82
 398.661053309 56.5498992659 398.661053309 56.5498992659 423.624767234 82.5799517881 c 0,83,84
 425.538618142 84.5600079825 425.538618142 84.5600079825 427.486338028 86.5077165378 c 0,85,86
 449.417573643 108.103737372 449.417573643 108.103737372 473.665350459 124.840363352 c 0,87,88
 476.911549472 127.06178447 476.911549472 127.06178447 482.82626167 130.873742719 c 0,89,90
 491.47621206 136.524151237 491.47621206 136.524151237 494.803202689 138.938787938 c 0,91,92
 497.47342786 141.082165437 497.47342786 141.082165437 498.924734926 142.396394492 c 1,93,94
 496.4740277 143.541899536 496.4740277 143.541899536 494.890171006 144.255345412 c 2,95,-1
 444.890171006 166.255345412 l 2,96,97
 428.279429881 174.173778931 428.279429881 174.173778931 419.705821823 182.350635041 c 2,98,-1
 418.197631276 183.915426985 l 2,99,100
 402.440143454 202.092913844 402.440143454 202.092913844 403.070538477 224.896655425 c 0,101,102
 404.700458181 245.906100805 404.700458181 245.906100805 418.896026208 262.111362545 c 0,103,104
 420.62330444 263.941221921 420.62330444 263.941221921 421.435218609 264.784147154 c 0,105,106
 428.916787016 271.985196884 428.916787016 271.985196884 440.43998175 279.354248238 c 2,107,-1
 468.43998175 297.354248238 l 2,108,109
 469.28422603 297.896976699 469.28422603 297.896976699 470.085660151 298.409649854 c 0,110,111
 472.689291015 300.096126952 472.689291015 300.096126952 474.066268928 301.000869884 c 1,112,113
 453.405247273 311.293910596 453.405247273 311.293910596 437.359709407 327.057994061 c 0,114,115
 407.885800493 357.461633671 407.885800493 357.461633671 400.071912044 396.943060357 c 0,116,117
 393.893122985 432.208192779 393.893122985 432.208192779 404.828350083 467.955536893 c 1,118,119
 302.970784513 421.489284684 302.970784513 421.489284684 221.069376644 423.519601026 c 0,120,121
 109.045297448 427.475169792 109.045297448 427.475169792 32.2239441917 503.63690366 c 0,122,123
 28.7199597358 507.201527134 28.7199597358 507.201527134 26.2492377939 509.815047311 c 1,0,-1
  Spiro
    26.2492 509.815 v
    73.7508 554.185 ]
    76.2002 551.635 o
    78.1859 549.599 o
    144.029 505.202 o
    222.931 488.48 o
    312.087 502.6 o
    420.856 548.379 o
    428.281 552.256 o
    437.537 557.102 o
    538.646 605.45 o
    614.513 631.297 o
    626.924 633.922 o
    638.752 636.07 o
    759.642 634.78 o
    868.401 589.631 o
    873.941 585.9 o
    878.915 582.434 v
    842.438 528.647 v
    779.841 558.325 o
    711.799 571.58 o
    615.444 563.035 o
    530.015 524.943 o
    513.729 512.844 o
    499.746 500.382 o
    487.408 486.338 o
    477.521 472.182 o
    464.702 439.986 o
    463.928 409.057 o
    471.058 389.698 o
    483.322 373.02 o
    493.425 364.831 o
    504.005 358.791 o
    505.252 358.258 o
    506.042 357.921 o
    511.92 355.253 o
    515.965 353.274 o
    523.909 348.02 o
    530.464 342.539 o
    531.955 340.957 o
    532.963 339.876 o
    540.164 329.134 o
    544.806 317.77 o
    546.456 305.045 o
    545.481 292.622 o
    538.912 275.673 o
    527.645 260.731 o
    525.837 259.008 o
    524.507 257.759 o
    515.885 250.953 o
    505.116 243.644 o
    504.327 243.138 o
    503.56 242.646 [
    475.56 224.646 ]
    475.16 224.388 o
    474.769 224.134 v
    521.11 203.745 ]
    530.876 198.95 o
    537.984 194.854 o
    543.472 190.633 o
    548.095 186.544 o
    552.822 181.1 o
    556.651 175.902 o
    562.827 162.409 o
    565.764 148.387 o
    564.997 134.206 o
    561.392 120.766 o
    554.381 108.01 o
    545.034 96.5803 o
    539.327 91.4059 o
    533.551 86.7415 o
    526.667 81.9142 o
    518.31 76.3996 o
    513.463 73.235 o
    510.335 71.1596 o
    490.99 56.4356 o
    473.448 40.5458 o
    471.905 38.9896 o
    470.375 37.42 o
    451.195 15.0136 o
    434.823 -8.80782 v
    379.162 24.784 v
    400.027 55.1159 o
    423.625 82.58 o
    425.547 84.5519 o
    427.486 86.5077 o
    449.997 106.889 o
    473.665 124.84 o
    477.579 127.459 o
    482.826 130.874 o
    490.145 135.715 o
    494.803 138.939 o
    497.169 140.875 o
    498.925 142.396 v
    496.691 143.434 o
    494.89 144.255 [
    444.89 166.255 ]
    430.289 174.238 o
    419.706 182.351 [
    418.198 183.915 ]
    406.537 203.249 o
    403.071 224.897 o
    407.842 244.705 o
    418.896 262.111 o
    420.394 263.694 o
    421.435 264.784 o
    429.927 272.027 o
    440.44 279.354 [
    468.44 297.354 ]
    469.274 297.889 o
    470.086 298.41 o
    472.383 299.901 o
    474.066 301.001 v
    454.559 312.662 o
    437.36 327.058 o
    413.301 359.731 o
    400.072 396.943 o
    398.172 432.329 o
    404.828 467.956 v
    307.96 433.613 o
    221.069 423.52 o
    117.846 445.527 o
    32.2239 503.637 o
    28.9783 506.964 o
    0 0 z
  EndSpiro
EndSplineSet
EndChar

StartChar: uni170F
Encoding: 19 5903 19
Width: 761
GlyphClass: 2
InSpiro: 1
Flags: W
AnchorPoint: "Anchor-1" 457 -30 basechar 0
AnchorPoint: "Anchor-0" 537 742 basechar 0
LayerCount: 3
Back
SplineSet
58 408 m 1,0,-1
 186 408 l 2,1,2
 207.964854783 407.843292601 207.964854783 407.843292601 217.67315579 406.358314533 c 128,-1,3
 235.520226546 402.892404007 235.520226546 402.892404007 246.620691545 394.234260079 c 128,-1,4
 259.108480119 383.030479168 259.108480119 383.030479168 262.358477016 367.432252116 c 128,-1,5
 264.185797539 355.093641993 264.185797539 355.093641993 260 336 c 2,6,-1
 248 282 l 2,7,8
 231.688877574 207.906052491 231.688877574 207.906052491 229.657484255 179.659869544 c 128,-1,9
 226.152927568 119.155831727 226.152927568 119.155831727 252 80 c 0,10,11
 281.40771894 37.9130630126 281.40771894 37.9130630126 332.780003599 29.4332635063 c 128,-1,12
 378.84337446 22.900644442 378.84337446 22.900644442 428 46 c 0,13,14
 484.631908145 73.5352975228 484.631908145 73.5352975228 537.631094833 135.393270775 c 128,-1,15
 582.408624961 188.331607635 582.408624961 188.331607635 616 254 c 0,16,17
 664.476327822 350.020027498 664.476327822 350.020027498 674 444 c 0,18,19
 678.598250312 493.845837573 678.598250312 493.845837573 669.909224022 529.833247201 c 128,-1,20
 658.151483954 574.765120054 658.151483954 574.765120054 628 604 c 0,21,22
 603.368220284 626.76338176 603.368220284 626.76338176 571.383017436 637.082409571 c 128,-1,23
 540.103761374 646.511120045 540.103761374 646.511120045 506 644 c 0,24,25
 416.531207747 636.937314521 416.531207747 636.937314521 353.273680035 564.63709692 c 0,26,27
 351.704135902 562.819585008 351.704135902 562.819585008 351 562 c 1024
  Spiro
    58 408 {
    186 408 ]
    260 336 [
    248 282 ]
    252 80 o
    428 46 o
    616 254 c
    674 444 c
    628 604 o
    506 644 o
    351 562 v
    0 0 z
  EndSpiro
EndSplineSet
Fore
SplineSet
264.576990071 177.365947247 m 0,0,1
 262.319050436 128.840411881 262.319050436 128.840411881 280.979525567 99.6430271224 c 0,2,3
 286.294807852 92.4569418807 286.294807852 92.4569418807 291.311449781 87.2931394756 c 0,4,5
 310.695478584 68.9529850513 310.695478584 68.9529850513 338.121076838 64.0223187992 c 0,6,7
 374.144004719 59.7100394486 374.144004719 59.7100394486 412.88954875 77.5784016041 c 0,8,9
 451.424628145 96.8796696492 451.424628145 96.8796696492 487.944451517 133.13646209 c 0,10,11
 500.016130378 145.360272149 500.016130378 145.360272149 510.885515856 157.971900612 c 0,12,13
 553.263273481 208.512023533 553.263273481 208.512023533 584.753202262 269.783278293 c 0,14,15
 630.123741454 360.428982989 630.123741454 360.428982989 639.170362149 447.395386636 c 0,16,17
 642.945906915 491.27000872 642.945906915 491.27000872 635.974497198 521.256366761 c 0,18,19
 626.297594394 555.815103504 626.297594394 555.815103504 604.8593426 577.66782762 c 0,20,21
 604.405673667 578.121490256 604.405673667 578.121490256 603.945508546 578.571085564 c 0,22,23
 584.491098254 595.760441736 584.491098254 595.760441736 560.915771396 603.679713741 c 0,24,25
 535.417138002 610.906475778 535.417138002 610.906475778 508.774138201 609.116173336 c 0,26,27
 440.690817227 602.944706129 440.690817227 602.944706129 390.78883563 553.548942035 c 0,28,29
 384.643698344 547.276057388 384.643698344 547.276057388 379.803283012 541.805563558 c 2,30,-1
 377.529602977 539.168466638 l 1,31,-1
 377.488021404 539.120238815 l 1,32,-1
 324.470397023 584.831533362 l 1,33,-1
 326.744077058 587.468630282 l 2,34,35
 334.416186876 596.10647913 334.416186876 596.10647913 341.291360947 603.046416718 c 0,36,37
 410.459131672 671.159820705 410.459131672 671.159820705 503.225861799 678.883826664 c 0,38,39
 544.445410502 681.561172106 544.445410502 681.561172106 581.525372526 670.582626837 c 2,40,-1
 581.848074793 670.485352585 l 1,41,42
 621.746236285 657.096047723 621.746236285 657.096047723 651.739233658 629.719279452 c 2,43,-1
 652.051342097 629.43084542 l 2,44,45
 653.36440982 628.157694908 653.36440982 628.157694908 654.356817283 627.165302303 c 0,46,47
 689.830699575 590.836251728 689.830699575 590.836251728 703.758330193 538.735984899 c 2,48,-1
 703.842647269 538.413769567 l 1,49,50
 713.780963523 495.726404994 713.780963523 495.726404994 708.844135891 440.762134335 c 0,51,-1
 708.813588337 440.446531712 l 2,52,53
 698.182440454 339.500831247 698.182440454 339.500831247 647.246797738 238.216721707 c 0,54,55
 611.27648108 168.480977284 611.27648108 168.480977284 564.37667381 112.814640938 c 0,56,57
 550.508298211 96.78135476 550.508298211 96.78135476 537.4419262 83.6389874073 c 0,58,59
 491.428023661 38.1635656426 491.428023661 38.1635656426 443.317718813 14.5225171092 c 2,60,-1
 443.110525095 14.4217763632 l 1,61,62
 383.827316122 -12.8272279266 383.827316122 -12.8272279266 327.833163585 -5.2109960575 c 2,63,-1
 327.437815907 -5.1549286068 l 1,64,65
 276.140980217 3.98621990056 276.140980217 3.98621990056 241.813975098 37.7956647925 c 0,66,67
 231.453939591 48.4737045669 231.453939591 48.4737045669 223.288215219 59.9755694647 c 0,68,-1
 222.771404049 60.7364204318 l 1,69,70
 190.866994992 110.295681424 190.866994992 110.295681424 194.723337312 181.698581264 c 0,71,-1
 194.755151706 182.188662138 l 2,72,73
 197.26096245 214.153936805 197.26096245 214.153936805 213.828994274 289.565976144 c 2,74,-1
 225.844016641 343.633894904 l 2,75,76
 228.115322359 354.583325218 228.115322359 354.583325218 227.831370586 361.400730597 c 0,77,78
 226.143406003 365.06044826 226.143406003 365.06044826 224.223004868 367.255091332 c 0,79,80
 218.738618982 370.222817414 218.738618982 370.222817414 211.743888076 371.853495656 c 0,81,82
 202.690254477 372.828448234 202.690254477 372.828448234 185.871920711 373.006863131 c 2,83,-1
 58 373.006863131 l 1,84,-1
 58 442.993136869 l 1,85,-1
 186 442.993136869 l 1,86,-1
 186.251564488 442.992239493 l 2,87,88
 210.979297992 442.699825631 210.979297992 442.699825631 222.999340747 440.946664716 c 2,89,-1
 223.694644572 440.840311305 l 1,90,91
 250.68190359 435.091431798 250.68190359 435.091431798 268.119863223 421.856799408 c 2,92,-1
 269.072445153 421.113804277 l 1,93,-1
 269.97447342 420.304523512 l 2,94,95
 272.329430037 418.105214476 272.329430037 418.105214476 273.639901217 416.833464564 c 0,96,97
 291.334627659 398.247267669 291.334627659 398.247267669 296.612258005 374.611863688 c 2,98,-1
 296.821387504 373.608155217 l 1,99,-1
 296.971708273 372.593144806 l 2,100,101
 299.474861837 353.146897436 299.474861837 353.146897436 294.155983359 328.366105096 c 2,102,-1
 282.171005726 274.434023856 l 2,103,104
 266.643578654 203.59524748 266.643578654 203.59524748 264.576990071 177.365947247 c 0,0,1
EndSplineSet
Layer: 2
SplineSet
351 0 m 0,0,1
 274 0 274 0 234 41 c 128,-1,2
 194 82 194 82 194 152 c 0,3,4
 194 187 194 187 202.5 231.5 c 128,-1,5
 211 276 211 276 218 311 c 0,6,7
 222 328 222 328 223 343 c 128,-1,8
 224 358 224 358 224 374 c 1,9,-1
 58 374 l 1,10,-1
 58 442 l 1,11,-1
 199 442 l 2,12,13
 256 442 256 442 278.5 422.5 c 128,-1,14
 301 403 301 403 301 364 c 0,15,16
 301 335 301 335 293.5 303 c 128,-1,17
 286 271 286 271 278.5 235.5 c 128,-1,18
 271 200 271 200 271 159 c 0,19,20
 271 111 271 111 293 89.5 c 128,-1,21
 315 68 315 68 357 68 c 0,22,23
 397 68 397 68 437 93 c 128,-1,24
 477 118 477 118 512.5 160.5 c 128,-1,25
 548 203 548 203 576 255.5 c 128,-1,26
 604 308 604 308 620 364 c 128,-1,27
 636 420 636 420 636 471 c 0,28,29
 636 532 636 532 607.5 569 c 128,-1,30
 579 606 579 606 514 606 c 0,31,32
 473 606 473 606 438 588 c 128,-1,33
 403 570 403 570 378 538 c 1,34,-1
 327 582 l 1,35,36
 359 623 359 623 406 648.5 c 128,-1,37
 453 674 453 674 519 674 c 0,38,39
 575 674 575 674 619 653 c 128,-1,40
 663 632 663 632 688 587 c 128,-1,41
 713 542 713 542 713 469 c 0,42,43
 713 407 713 407 693.5 341.5 c 128,-1,44
 674 276 674 276 639 215 c 128,-1,45
 604 154 604 154 558 105.5 c 128,-1,46
 512 57 512 57 459 28.5 c 128,-1,47
 406 0 406 0 351 0 c 0,0,1
  Spiro
    351 0 o
    283.25 10.25 o
    234 41 o
    204 89.25 o
    194 152 o
    196.125 189.375 o
    202.5 231.5 o
    210.625 273.625 o
    218 311 o
    221.25 327.5 o
    223 343 o
    223.75 358.25 o
    224 374 v
    58 374 v
    58 442 v
    199 442 ]
    247.375 437.125 o
    278.5 422.5 o
    295.375 398.125 o
    301 364 o
    299.125 334.25 o
    293.5 303 o
    286 270.125 o
    278.5 235.5 o
    272.875 198.625 o
    271 159 o
    276.5 117.625 o
    293 89.5 o
    320 73.375 o
    357 68 o
    397 74.25 o
    437 93 o
    475.875 122.375 o
    512.5 160.5 o
    546.125 205.5 o
    576 255.5 o
    601 308.875 o
    620 364 o
    632 418.75 o
    636 471 o
    628.875 526 o
    607.5 569 o
    569.875 596.75 o
    514 606 o
    474.5 601.5 o
    438 588 o
    405.5 566.5 o
    378 538 v
    327 582 v
    362.75 619.125 o
    406 648.5 o
    457.75 667.625 o
    519 674 o
    572 668.75 o
    619 653 o
    658.25 626 o
    688 587 o
    706.75 535 o
    713 469 o
    708.125 406.125 o
    693.5 341.5 o
    670.125 277.125 o
    639 215 o
    601.25 157.125 o
    558 105.5 o
    510.25 62 o
    459 28.5 o
    405.5 7.125 o
    0 0 z
  EndSpiro
EndSplineSet
EndChar

StartChar: uni1710
Encoding: 20 5904 20
Width: 922
GlyphClass: 2
InSpiro: 1
Flags: W
AnchorPoint: "Anchor-1" 609 -79 basechar 0
AnchorPoint: "Anchor-0" 488 693 basechar 0
LayerCount: 3
Back
SplineSet
20 600 m 1,0,-1
 212 600 l 1,1,-1
 212 20 l 1,2,-1
 432 406 l 2,3,4
 488.315417986 504.807960648 488.315417986 504.807960648 530.237101458 543.991010985 c 0,5,6
 532.55913914 546.13310371 532.55913914 546.13310371 533.882436258 547.338700801 c 0,7,8
 569.304545213 578.701411546 569.304545213 578.701411546 607.895449233 593.00972677 c 0,9,10
 651.816845539 608.465124737 651.816845539 608.465124737 694 602 c 0,11,12
 743.690278471 593.351307927 743.690278471 593.351307927 776.904834079 559.219776877 c 0,13,14
 811.216218734 522.30338265 811.216218734 522.30338265 814 474 c 0,15,16
 815.100344808 441.167786382 815.100344808 441.167786382 801.419701464 412.636458703 c 0,17,18
 786.613744303 383.84389002 786.613744303 383.84389002 760.720898669 364.995397006 c 0,19,20
 735.522551314 347.57008152 735.522551314 347.57008152 702.907229558 340.289931299 c 0,21,22
 680.306142671 335.563185423 680.306142671 335.563185423 640 334 c 2,23,-1
 588 332 l 1,24,-1
 598 332 l 2,25,26
 704.181968046 332 704.181968046 332 753.443464743 308.996291061 c 0,27,28
 755.789037367 307.877359465 755.789037367 307.877359465 757.121434274 307.228653869 c 0,29,30
 796.177729461 287.177946197 796.177729461 287.177946197 818.092886913 254.89794583 c 0,31,32
 841.254523564 218.928795845 841.254523564 218.928795845 840 178 c 0,33,34
 837.459205819 131.039654495 837.459205819 131.039654495 805.525587923 94.2722663399 c 0,35,36
 775.78567546 61.4508399651 775.78567546 61.4508399651 728.841160186 44.6332492377 c 0,37,38
 675.147813894 25.7234674892 675.147813894 25.7234674892 560.168104477 25.9788346257 c 0,39,40
 550.638340297 26 550.638340297 26 546 26 c 2,41,-1
 516 26 l 1025
  Spiro
    20 600 {
    212 600 v
    212 20 v
    432 406 ]
    694 602 o
    814 474 o
    640 334 [
    588 332 v
    598 332 ]
    840 178 o
    546 26 [
    516 26 v
    0 0 z
  EndSpiro
EndSplineSet
Fore
SplineSet
246.993136869 152.09363211 m 1,0,-1
 401.582393957 423.327510456 l 2,1,2
 457.082722201 520.211181435 457.082722201 520.211181435 500.359093233 563.776294743 c 0,3,4
 503.869777143 567.227153949 503.869777143 567.227153949 506.351320924 569.574090233 c 0,5,-1
 506.5795137 569.785506237 l 1,6,-1
 510.2248485 573.133196053 l 1,7,-1
 510.701635364 573.563137504 l 2,8,9
 551.592112041 609.220969701 551.592112041 609.220969701 595.693959534 625.818644289 c 0,10,-1
 596.241243891 626.016377441 l 2,11,12
 648.9152758 644.05185841 648.9152758 644.05185841 699.336492669 636.586771955 c 2,13,-1
 699.688193628 636.532869145 l 1,14,-1
 700.038639602 636.471873324 l 2,15,16
 759.718911688 625.416375287 759.718911688 625.416375287 800.193940008 585.448185497 c 0,17,18
 801.100001971 584.542123534 801.100001971 584.542123534 801.994313792 583.623103053 c 2,19,-1
 802.278567803 583.331001459 l 1,20,-1
 802.555630587 583.032903348 l 2,21,22
 845.072482432 536.23268758 845.072482432 536.23268758 848.934737597 476.028488724 c 0,23,-1
 848.973352208 475.181035496 l 2,24,25
 849.900797103 433.362768143 849.900797103 433.362768143 832.979458583 397.489132505 c 0,26,-1
 832.549246991 396.623063616 l 2,27,28
 819.629064587 372.318072228 819.629064587 372.318072228 801.571464391 353.988971691 c 0,29,30
 791.583741396 344.284586434 791.583741396 344.284586434 781.294546731 336.675337475 c 2,31,-1
 780.953283738 336.426917767 l 2,32,33
 779.868027399 335.676434658 779.868027399 335.676434658 779.124878745 335.173268086 c 1,34,35
 805.769182247 320.1208799 805.769182247 320.1208799 825.239141778 300.90692507 c 0,36,37
 837.738775568 288.069619749 837.738775568 288.069619749 847.070252165 274.536794418 c 2,38,-1
 847.307981649 274.186630024 l 1,39,-1
 847.537029995 273.830926563 l 2,40,41
 876.221298711 228.174029053 876.221298711 228.174029053 874.976585411 176.919741644 c 0,42,-1
 874.941648611 176.095213939 l 1,43,44
 871.04403833 116.872354743 871.04403833 116.872354743 831.971644274 71.3441870306 c 0,45,-1
 831.479266495 70.7891808531 l 2,46,47
 827.62342922 66.6280782387 827.62342922 66.6280782387 824.606866741 63.5701272499 c 0,48,49
 789.862654666 29.5667483462 789.862654666 29.5667483462 740.503949237 11.6296203276 c 0,50,51
 680.102266145 -9.18086745891 680.102266145 -9.18086745891 560.115428342 -9.01426289747 c 2,52,-1
 546 -8.99313686892 l 1,53,-1
 516 -8.99313686892 l 1,54,-1
 516 60.9931368689 l 1,55,-1
 546 60.9931368689 l 1,56,-1
 560.220780612 60.9719321489 l 2,57,58
 668.99884371 60.9248853189 668.99884371 60.9248853189 717.178371135 77.6368781478 c 0,59,60
 752.43838587 90.7591510546 752.43838587 90.7591510546 775.109392058 113.067601933 c 0,61,62
 777.266025332 115.224233364 777.266025332 115.224233364 779.322834837 117.481243832 c 0,63,64
 802.763957273 145.660960702 802.763957273 145.660960702 805.035220351 179.490562949 c 0,65,66
 805.196079681 209.56895628 805.196079681 209.56895628 788.879397877 235.605480023 c 0,67,68
 782.533154103 244.460515447 782.533154103 244.460515447 775.741667095 251.409450387 c 0,69,70
 760.870192103 265.703112368 760.870192103 265.703112368 741.454508865 275.920787554 c 0,71,72
 739.545372851 276.838350597 739.545372851 276.838350597 738.497650501 277.340315897 c 0,73,74
 695.121026758 296.840083675 695.121026758 296.840083675 598 297.006863131 c 2,75,-1
 588 297.006863131 l 1,76,-1
 586.644883143 366.967087434 l 1,77,-1
 638.644883143 368.967087434 l 2,78,79
 675.69834216 370.508715964 675.69834216 370.508715964 695.475150851 374.491161865 c 0,80,81
 721.382641681 380.701714291 721.382641681 380.701714291 740.486196592 393.563213809 c 0,82,83
 747.129765243 398.672028182 747.129765243 398.672028182 752.073989708 403.486446374 c 0,84,85
 762.948158459 414.904024273 762.948158459 414.904024273 770.066752263 428.217713156 c 0,86,87
 779.510875152 449.314445476 779.510875152 449.314445476 779.040091258 472.395005257 c 0,88,89
 776.078588494 508.051971135 776.078588494 508.051971135 751.53304841 535.105559217 c 0,90,91
 751.115868312 535.531313779 751.115868312 535.531313779 750.696465325 535.950710814 c 0,92,93
 724.94175052 560.689740678 724.94175052 560.689740678 688.313978372 567.466329585 c 0,94,95
 654.551085196 572.021575479 654.551085196 572.021575479 619.825814922 560.100011438 c 0,96,97
 587.129769747 547.409121725 587.129769747 547.409121725 557.296119265 521.320215848 c 2,98,-1
 554.014949534 518.306956684 l 2,99,100
 551.444763739 515.843079855 551.444763739 515.843079855 549.856567916 514.27882006 c 0,101,102
 512.506812649 476.31085114 512.506812649 476.31085114 462.417606043 388.672489544 c 2,103,-1
 242.417606043 2.67248954378 l 1,104,-1
 177.006863131 -112.09363211 l 1,105,-1
 177.006863131 20 l 1,106,-1
 177.006863131 565.006863131 l 1,107,-1
 20 565.006863131 l 1,108,-1
 20 634.993136869 l 1,109,-1
 212 634.993136869 l 1,110,-1
 246.993136869 634.993136869 l 1,111,-1
 246.993136869 600 l 1,112,-1
 246.993136869 152.09363211 l 1,0,-1
EndSplineSet
Layer: 2
SplineSet
512 -10 m 1,0,-1
 512 58 l 1,1,-1
 544 58 l 2,2,3
 621 58 621 58 677.5 70.5 c 128,-1,4
 734 83 734 83 765.5 112.5 c 128,-1,5
 797 142 797 142 797 192 c 0,6,7
 797 211 797 211 786.5 234.5 c 128,-1,8
 776 258 776 258 746.5 275 c 128,-1,9
 717 292 717 292 659 292 c 2,10,-1
 585 292 l 1,11,-1
 585 360 l 1,12,-1
 631 360 l 2,13,14
 683 360 683 360 715.5 376.5 c 128,-1,15
 748 393 748 393 763 418.5 c 128,-1,16
 778 444 778 444 778 472 c 0,17,18
 778 511 778 511 753.5 538.5 c 128,-1,19
 729 566 729 566 674 566 c 0,20,21
 622 566 622 566 575.5 530 c 128,-1,22
 529 494 529 494 490 435 c 0,23,24
 430 345 430 345 371.5 234.5 c 128,-1,25
 313 124 313 124 240 0 c 1,26,-1
 173 0 l 1,27,-1
 171 566 l 1,28,-1
 19 566 l 1,29,-1
 19 634 l 1,30,-1
 147 634 l 2,31,32
 194 634 194 634 215 624.5 c 128,-1,33
 236 615 236 615 242 596.5 c 128,-1,34
 248 578 248 578 248 550 c 2,35,-1
 250 151 l 1,36,-1
 252 151 l 1,37,38
 300 250 300 250 340 324 c 128,-1,39
 380 398 380 398 422 463 c 0,40,41
 474 543 474 543 536.5 588.5 c 128,-1,42
 599 634 599 634 682 634 c 0,43,44
 762 634 762 634 808.5 592 c 128,-1,45
 855 550 855 550 855 482 c 0,46,47
 855 435 855 435 836 397.5 c 128,-1,48
 817 360 817 360 767 337 c 1,49,50
 813 324 813 324 843.5 284.5 c 128,-1,51
 874 245 874 245 874 192 c 0,52,53
 874 96 874 96 798.5 43 c 128,-1,54
 723 -10 723 -10 553 -10 c 2,55,-1
 512 -10 l 1,0,-1
EndSplineSet
EndChar

StartChar: uni1711
Encoding: 21 5905 21
Width: 1049
GlyphClass: 2
InSpiro: 1
Flags: W
AnchorPoint: "Anchor-1" 507 0 basechar 0
AnchorPoint: "Anchor-0" 532 693 basechar 0
LayerCount: 3
Back
SplineSet
70 353 m 0,0,1
 165.918537713 269.2664062 165.918537713 269.2664062 301.924127861 268.785035688 c 0,2,3
 309.469116838 268.794634096 309.469116838 268.794634096 316 269 c 0,4,5
 389.712788568 271.515834128 389.712788568 271.515834128 528.489287239 315.511424748 c 2,6,-1
 529.489414621 315.828507258 l 1,7,-1
 531.429363683 316.443614533 l 1,8,-1
 532.429495391 316.760736352 l 1,9,-1
 533.429562443 317.077824349 l 1,10,-1
 534.476662171 317.409796062 l 2,11,12
 672.785212213 360.906869213 672.785212213 360.906869213 754 359 c 0,13,14
 881.311252317 355.6571124 881.311252317 355.6571124 970.765294494 273.842089843 c 0,15,16
 974.923400329 269.981005506 974.923400329 269.981005506 978 267 c 1024
  Spiro
    70 353 {
    316 269 o
    754 359 o
    978 267 o
    0 0 z
  EndSpiro
EndSplineSet
Fore
SplineSet
47.0049015262 326.612300324 m 0,0,-1
 92.9950984738 379.387699676 l 1,1,2
 179.900319912 304.559151569 179.900319912 304.559151569 301.879269806 303.778144024 c 0,3,4
 309.28565143 303.814131567 309.28565143 303.814131567 314.797282523 303.972618875 c 0,5,6
 384.652917862 306.736018127 384.652917862 306.736018127 517.871756395 348.864707576 c 2,7,-1
 518.870922075 349.181485171 l 1,8,-1
 520.810685913 349.796533716 l 1,9,-1
 521.811220359 350.113783232 l 1,10,-1
 522.812118499 350.431134728 l 1,11,-1
 523.936296543 350.787445125 l 2,12,13
 667.956891496 395.815147958 667.956891496 395.815147958 754.925533067 393.980988016 c 0,14,15
 895.520134745 389.558747056 895.520134745 389.558747056 994.566345897 299.504104106 c 0,16,17
 999.330299617 295.047132409 999.330299617 295.047132409 1002.36233103 292.129317141 c 1,18,-1
 953.651921109 241.856873554 l 1,19,20
 950.126202513 245.229106989 950.126202513 245.229106989 946.964243091 248.18007558 c 0,21,22
 866.528981782 320.686927941 866.528981782 320.686927941 753.074466933 324.019011984 c 0,23,24
 676.876737111 325.369426241 676.876737111 325.369426241 545.017027799 284.032146999 c 2,25,-1
 544.047006387 283.72451397 l 1,26,-1
 543.047770423 283.407689472 l 1,27,-1
 542.048041453 283.09069535 l 1,28,-1
 540.107907167 282.475529345 l 1,29,-1
 539.106818083 282.15814192 l 2,30,31
 395.62984909 236.882528621 395.62984909 236.882528621 317.202717477 234.027381125 c 0,32,33
 310.041590051 233.802196969 310.041590051 233.802196969 301.968985916 233.791927352 c 0,34,35
 152.501494008 235.039298355 152.501494008 235.039298355 47.0049015262 326.612300324 c 0,0,-1
EndSplineSet
Layer: 2
SplineSet
303 236 m 0,0,1
 230 236 230 236 171.5 259.5 c 128,-1,2
 113 283 113 283 52 328 c 1,3,-1
 90 384 l 1,4,5
 130 356 130 356 163 338 c 128,-1,6
 196 320 196 320 229.5 312 c 128,-1,7
 263 304 263 304 305 304 c 0,8,9
 367 304 367 304 426.5 319 c 128,-1,10
 486 334 486 334 530 348 c 0,11,12
 575 362 575 362 630 376 c 128,-1,13
 685 390 685 390 745 390 c 0,14,15
 819 390 819 390 878 366.5 c 128,-1,16
 937 343 937 343 998 298 c 1,17,-1
 956 244 l 1,18,19
 922 270 922 270 889 287 c 128,-1,20
 856 304 856 304 819 313 c 128,-1,21
 782 322 782 322 732 322 c 0,22,23
 686 322 686 322 638 308.5 c 128,-1,24
 590 295 590 295 551 283 c 0,25,26
 502 267 502 267 435.5 251.5 c 128,-1,27
 369 236 369 236 303 236 c 0,0,1
  Spiro
    303 236 o
    233.625 241.875 o
    171.5 259.5 o
    112.375 288.375 o
    52 328 v
    90 384 v
    128.25 358.5 o
    163 338 o
    196.125 322.5 o
    229.5 312 o
    265.125 306 o
    305 304 o
    366.375 307.75 o
    426.5 319 o
    482.125 333.75 o
    530 348 o
    577.5 362 o
    630 376 o
    686.25 386.5 o
    745 390 o
    815.25 384.125 o
    878 366.5 o
    937.5 337.625 o
    998 298 v
    956 244 v
    922.25 267.75 o
    889 287 o
    855 302 o
    819 313 o
    778.75 319.75 o
    732 322 o
    685.5 318.625 o
    638 308.5 o
    592.25 295.375 o
    551 283 o
    497.625 267.125 o
    435.5 251.5 o
    369.125 239.875 o
    0 0 z
  EndSpiro
EndSplineSet
EndChar

StartChar: uni1712
Encoding: 22 5906 22
Width: 0
GlyphClass: 4
Flags: W
AnchorPoint: "Anchor-0" -171 693 mark 0
LayerCount: 3
Fore
SplineSet
-168 703 m 0,0,1
 -199.432617188 702.767578125 -199.432617188 702.767578125 -221.002929688 721.165039062 c 0,2,3
 -242.432617188 739.767578125 -242.432617188 739.767578125 -242.490234375 775.66015625 c 0,4,5
 -242.432617188 813.767578125 -242.432617188 813.767578125 -221.002929688 830.803710938 c 0,6,7
 -199.432617188 848.767578125 -199.432617188 848.767578125 -168 848.3203125 c 0,8,9
 -139.432617188 848.767578125 -139.432617188 848.767578125 -117.146484375 830.803710938 c 0,10,11
 -95.4326171875 813.767578125 -95.4326171875 813.767578125 -94.9423828125 775.66015625 c 0,12,13
 -95.4326171875 739.767578125 -95.4326171875 739.767578125 -117.146484375 721.165039062 c 0,14,15
 -139.432617188 702.767578125 -139.432617188 702.767578125 -168 703 c 0,0,1
EndSplineSet
EndChar

StartChar: uni1713
Encoding: 23 5907 23
Width: 0
GlyphClass: 4
Flags: W
AnchorPoint: "Anchor-1" -98 0 mark 0
LayerCount: 3
Fore
SplineSet
-98 -171.3203125 m 0,0,1
 -129.432617188 -171.552734375 -129.432617188 -171.552734375 -151.002929688 -153.155273438 c 0,2,3
 -172.432617188 -134.552734375 -172.432617188 -134.552734375 -172.490234375 -98.66015625 c 0,4,5
 -172.432617188 -60.552734375 -172.432617188 -60.552734375 -151.002929688 -43.5166015625 c 0,6,7
 -129.432617188 -25.552734375 -129.432617188 -25.552734375 -98 -26 c 0,8,9
 -69.4326171875 -25.552734375 -69.4326171875 -25.552734375 -47.146484375 -43.5166015625 c 0,10,11
 -25.4326171875 -60.552734375 -25.4326171875 -60.552734375 -24.9423828125 -98.66015625 c 0,12,13
 -25.4326171875 -134.552734375 -25.4326171875 -134.552734375 -47.146484375 -153.155273438 c 0,14,15
 -69.4326171875 -171.552734375 -69.4326171875 -171.552734375 -98 -171.3203125 c 0,0,1
EndSplineSet
EndChar

StartChar: uni1714
Encoding: 24 5908 24
Width: 0
GlyphClass: 4
Flags: W
AnchorPoint: "Anchor-1" -264 0 mark 0
LayerCount: 3
Fore
SplineSet
-292.530273438 -183.124023438 m 5,0,-1
 -292.530273438 -124.875 l 5,1,-1
 -351.967773438 -124.875 l 5,2,-1
 -351.967773438 -65.4375 l 5,3,-1
 -292.530273438 -65.4375 l 5,4,-1
 -292.530273438 -6 l 5,5,-1
 -233.092773438 -6 l 5,6,-1
 -233.092773438 -65.4375 l 5,7,-1
 -174.84375 -65.4375 l 5,8,-1
 -174.84375 -124.875 l 5,9,-1
 -233.092773438 -124.875 l 5,10,-1
 -233.092773438 -183.124023438 l 5,11,-1
 -292.530273438 -183.124023438 l 5,0,-1
EndSplineSet
EndChar

StartChar: uni1735
Encoding: 28 5941 25
Width: 329
GlyphClass: 2
Flags: W
LayerCount: 3
Back
SplineSet
54 -138 m 29,0,-1
 256 750 l 1053
EndSplineSet
Fore
SplineSet
88.1175164904 -145.804974134 m 1,0,-1
 19.8634471164 -130.278710605 l 1,1,-1
 221.88248351 757.804974134 l 1,2,-1
 290.136552884 742.278710605 l 1,3,-1
 88.1175164904 -145.804974134 l 1,0,-1
EndSplineSet
EndChar

StartChar: uni1736
Encoding: 29 5942 26
Width: 488
GlyphClass: 2
Flags: W
LayerCount: 3
Back
SplineSet
214 -138 m 25,0,-1
 416 750 l 1049
54 -138 m 25,2,-1
 256 750 l 1049
EndSplineSet
Fore
SplineSet
248.11751649 -145.804974134 m 1,0,-1
 179.863447116 -130.278710605 l 1,1,-1
 381.88248351 757.804974134 l 1,2,-1
 450.136552884 742.278710605 l 1,3,-1
 248.11751649 -145.804974134 l 1,0,-1
88.1175164904 -145.804974134 m 1,4,-1
 19.8634471164 -130.278710605 l 1,5,-1
 221.88248351 757.804974134 l 1,6,-1
 290.136552884 742.278710605 l 1,7,-1
 88.1175164904 -145.804974134 l 1,4,-1
EndSplineSet
EndChar

StartChar: uni25CC
Encoding: 33 9676 30
Width: 594
GlyphClass: 2
Flags: W
AnchorPoint: "Anchor-1" 295 0 basechar 0
AnchorPoint: "Anchor-0" 300 590 basechar 0
LayerCount: 3
Fore
SplineSet
323 514 m 0,0,1
 323 487 323 487 297 487 c 256,2,3
 271 487 271 487 271 514 c 0,4,5
 271 540 271 540 297 540 c 256,6,7
 323 540 323 540 323 514 c 0,0,1
408 496 m 0,8,9
 408 470 408 470 383 470 c 0,10,11
 355 470 355 470 355 496 c 0,12,13
 355 523 355 523 383 523 c 0,14,15
 408 523 408 523 408 496 c 0,8,9
239 496 m 0,16,17
 239 470 239 470 212 470 c 0,18,19
 186 470 186 470 186 496 c 0,20,21
 186 523 186 523 212 523 c 0,22,23
 239 523 239 523 239 496 c 0,16,17
480 448 m 0,24,25
 480 422 480 422 455 422 c 0,26,27
 428 422 428 422 428 448 c 0,28,29
 428 475 428 475 455 475 c 0,30,31
 480 475 480 475 480 448 c 0,24,25
167 448 m 0,32,33
 167 422 167 422 140 422 c 0,34,35
 114 422 114 422 114 447 c 0,36,37
 114 475 114 475 140 475 c 0,38,39
 167 475 167 475 167 448 c 0,32,33
529 376 m 0,40,41
 529 349 529 349 502 349 c 0,42,43
 476 349 476 349 476 376 c 0,44,45
 476 402 476 402 503 402 c 0,46,47
 529 402 529 402 529 376 c 0,40,41
118 376 m 0,48,49
 118 349 118 349 93 349 c 0,50,51
 65 349 65 349 65 376 c 0,52,53
 65 402 65 402 92 402 c 0,54,55
 118 402 118 402 118 376 c 0,48,49
546 291 m 256,56,57
 546 265 546 265 521 265 c 0,58,59
 494 265 494 265 494 291 c 256,60,61
 494 317 494 317 521 317 c 0,62,63
 546 317 546 317 546 291 c 256,56,57
101 291 m 256,64,65
 101 265 101 265 75 265 c 0,66,67
 48 265 48 265 48 291 c 256,68,69
 48 317 48 317 75 317 c 0,70,71
 101 317 101 317 101 291 c 256,64,65
529 206 m 0,72,73
 529 180 529 180 502 180 c 0,74,75
 476 180 476 180 476 206 c 0,76,77
 476 233 476 233 502 233 c 0,78,79
 529 233 529 233 529 206 c 0,72,73
118 206 m 0,80,81
 118 180 118 180 92 180 c 0,82,83
 65 180 65 180 65 206 c 0,84,85
 65 233 65 233 92 233 c 0,86,87
 118 233 118 233 118 206 c 0,80,81
480 133 m 0,88,89
 480 107 480 107 455 107 c 0,90,91
 428 107 428 107 428 133 c 0,92,93
 428 160 428 160 455 160 c 0,94,95
 480 160 480 160 480 133 c 0,88,89
167 133 m 0,96,97
 167 107 167 107 140 107 c 0,98,99
 114 107 114 107 114 133 c 0,100,101
 114 160 114 160 140 160 c 0,102,103
 167 160 167 160 167 133 c 0,96,97
408 85 m 0,104,105
 408 60 408 60 383 60 c 0,106,107
 355 60 355 60 355 85 c 0,108,109
 355 112 355 112 383 112 c 0,110,111
 408 112 408 112 408 85 c 0,104,105
239 87 m 0,112,113
 239 60 239 60 212 60 c 0,114,115
 186 60 186 60 186 85 c 0,116,117
 186 112 186 112 212 112 c 0,118,119
 239 112 239 112 239 87 c 0,112,113
323 69 m 0,120,121
 323 42 323 42 297 42 c 256,122,123
 271 42 271 42 271 69 c 0,124,125
 271 95 271 95 297 95 c 256,126,127
 323 95 323 95 323 69 c 0,120,121
EndSplineSet
EndChar

